Pragati-Regular.ufo
<glyph name="exclam" format="1">
  <advance width="133"/>
  <unicode hex="0021"/>
  <outline>
    <contour>
      <point x="101" y="399" type="line"/>
      <point x="99" y="374"/>
      <point x="94" y="274"/>
      <point x="90" y="181" type="curve" smooth="yes"/>
      <point x="88" y="153"/>
      <point x="87" y="125"/>
      <point x="86" y="100" type="curve"/>
      <point x="49" y="100" type="line"/>
      <point x="49" y="104"/>
      <point x="49" y="107"/>
      <point x="49" y="111" type="curve" smooth="yes"/>
      <point x="45" y="207"/>
      <point x="41" y="304"/>
      <point x="35" y="399" type="curve"/>
    </contour>
    <contour>
      <point x="98" y="0" type="line"/>
      <point x="39" y="0" type="line"/>
      <point x="39" y="63" type="line"/>
      <point x="98" y="63" type="line"/>
    </contour>
  </outline>
</glyph>
<glyph name="quotesingle" format="1">
  <advance width="92"/>
  <unicode hex="0027"/>
  <outline>
    <contour>
      <point x="68" y="314" type="line"/>
      <point x="56" y="237" type="line"/>
      <point x="33" y="237" type="line"/>
      <point x="20" y="314" type="line"/>
      <point x="20" y="399" type="line"/>
      <point x="68" y="399" type="line"/>
    </contour>
  </outline>
</glyph>
<glyph name="parenright" format="1">
  <advance width="159"/>
  <unicode hex="0029"/>
  <outline>
    <contour>
      <point x="40" y="428" type="line"/>
      <point x="101" y="357"/>
      <point x="136" y="264"/>
      <point x="136" y="168" type="curve" smooth="yes"/>
      <point x="136" y="72"/>
      <point x="101" y="-20"/>
      <point x="40" y="-92" type="curve"/>
      <point x="9" y="-92" type="line"/>
      <point x="53" y="-20"/>
      <point x="86" y="78"/>
      <point x="86" y="169" type="curve" smooth="yes"/>
      <point x="86" y="260"/>
      <point x="53" y="357"/>
      <point x="9" y="428" type="curve"/>
    </contour>
  </outline>
</glyph>
<glyph name="asterisk" format="1">
  <advance width="186"/>
  <unicode hex="002A"/>
  <outline>
    <contour>
      <point x="150" y="378" type="line"/>
      <point x="170" y="344" type="line"/>
      <point x="123" y="322" type="line"/>
      <point x="170" y="300" type="line"/>
      <point x="150" y="266" type="line"/>
      <point x="107" y="296" type="line"/>
      <point x="113" y="244" type="line"/>
      <point x="72" y="244" type="line"/>
      <point x="78" y="296" type="line"/>
      <point x="35" y="266" type="line"/>
      <point x="15" y="300" type="line"/>
      <point x="63" y="322" type="line"/>
      <point x="15" y="344" type="line"/>
      <point x="35" y="378" type="line"/>
      <point x="78" y="348" type="line"/>
      <point x="72" y="399" type="line"/>
      <point x="113" y="399" type="line"/>
      <point x="107" y="349" type="line"/>
    </contour>
  </outline>
</glyph>
<glyph name="plus" format="1">
  <advance width="279"/>
  <unicode hex="002B"/>
  <outline>
    <contour>
      <point x="254" y="173" type="line"/>
      <point x="254" y="124" type="line"/>
      <point x="163" y="124" type="line"/>
      <point x="163" y="0" type="line"/>
      <point x="115" y="0" type="line"/>
      <point x="115" y="124" type="line"/>
      <point x="25" y="124" type="line"/>
      <point x="25" y="173" type="line"/>
      <point x="115" y="173" type="line"/>
      <point x="115" y="298" type="line"/>
      <point x="163" y="298" type="line"/>
      <point x="163" y="173" type="line"/>
    </contour>
  </outline>
</glyph>
<glyph name="slash" format="1">
  <advance width="133"/>
  <unicode hex="002F"/>
  <outline>
    <contour>
      <point x="1" y="-28" type="line"/>
      <point x="92" y="428" type="line"/>
      <point x="133" y="428" type="line"/>
      <point x="42" y="-28" type="line"/>
    </contour>
  </outline>
</glyph>
<glyph name="zero" format="1">
  <advance width="266"/>
  <unicode hex="0030"/>
  <outline>
    <contour>
      <point x="133" y="407" type="curve" smooth="yes"/>
      <point x="201" y="407"/>
      <point x="243" y="362"/>
      <point x="243" y="200" type="curve" smooth="yes"/>
      <point x="243" y="38"/>
      <point x="201" y="-7"/>
      <point x="133" y="-7" type="curve" smooth="yes"/>
      <point x="64" y="-7"/>
      <point x="23" y="38"/>
      <point x="23" y="200" type="curve" smooth="yes"/>
      <point x="23" y="362"/>
      <point x="64" y="407"/>
    </contour>
    <contour>
      <point x="133" y="364" type="curve" smooth="yes"/>
      <point x="85" y="364"/>
      <point x="72" y="304"/>
      <point x="72" y="220" type="curve" smooth="yes"/>
      <point x="72" y="179" type="line" smooth="yes"/>
      <point x="72" y="96"/>
      <point x="85" y="36"/>
      <point x="133" y="36" type="curve" smooth="yes"/>
      <point x="181" y="36"/>
      <point x="193" y="96"/>
      <point x="193" y="179" type="curve" smooth="yes"/>
      <point x="193" y="220" type="line" smooth="yes"/>
      <point x="193" y="304"/>
      <point x="181" y="364"/>
    </contour>
  </outline>
</glyph>
<glyph name="two" format="1">
  <advance width="266"/>
  <unicode hex="0032"/>
  <outline>
    <contour>
      <point x="134" y="407" type="curve" smooth="yes"/>
      <point x="192" y="407"/>
      <point x="239" y="376"/>
      <point x="239" y="303" type="curve" smooth="yes"/>
      <point x="239" y="234"/>
      <point x="191" y="182"/>
      <point x="146" y="133" type="curve" smooth="yes"/>
      <point x="126" y="112"/>
      <point x="106" y="90"/>
      <point x="92" y="69" type="curve" smooth="yes"/>
      <point x="88" y="63"/>
      <point x="84" y="55"/>
      <point x="82" y="49" type="curve"/>
      <point x="240" y="49" type="line"/>
      <point x="240" y="0" type="line"/>
      <point x="22" y="0" type="line"/>
      <point x="22" y="7" type="line" smooth="yes"/>
      <point x="22" y="39"/>
      <point x="33" y="68"/>
      <point x="51" y="94" type="curve" smooth="yes"/>
      <point x="66" y="117"/>
      <point x="86" y="138"/>
      <point x="106" y="160" type="curve" smooth="yes"/>
      <point x="147" y="204"/>
      <point x="188" y="249"/>
      <point x="188" y="304" type="curve" smooth="yes"/>
      <point x="188" y="330"/>
      <point x="176" y="362"/>
      <point x="133" y="362" type="curve" smooth="yes"/>
      <point x="92" y="362"/>
      <point x="78" y="328"/>
      <point x="78" y="286" type="curve" smooth="yes"/>
      <point x="78" y="262" type="line"/>
      <point x="28" y="262" type="line"/>
      <point x="28" y="262"/>
      <point x="26" y="272"/>
      <point x="26" y="285" type="curve" smooth="yes"/>
      <point x="26" y="371"/>
      <point x="76" y="407"/>
    </contour>
  </outline>
</glyph>
<glyph name="three" format="1">
  <advance width="266"/>
  <unicode hex="0033"/>
  <outline>
    <contour>
      <point x="131" y="407" type="curve" smooth="yes"/>
      <point x="193" y="407"/>
      <point x="235" y="368"/>
      <point x="235" y="297" type="curve" smooth="yes"/>
      <point x="235" y="250"/>
      <point x="214" y="224"/>
      <point x="183" y="208" type="curve"/>
      <point x="183" y="205" type="line"/>
      <point x="217" y="192"/>
      <point x="243" y="160"/>
      <point x="243" y="107" type="curve" smooth="yes"/>
      <point x="243" y="36"/>
      <point x="197" y="-7"/>
      <point x="133" y="-7" type="curve" smooth="yes"/>
      <point x="60" y="-7"/>
      <point x="20" y="40"/>
      <point x="20" y="113" type="curve" smooth="yes"/>
      <point x="20" y="118" type="line"/>
      <point x="69" y="118" type="line"/>
      <point x="69" y="111" type="line" smooth="yes"/>
      <point x="69" y="62"/>
      <point x="90" y="36"/>
      <point x="129" y="36" type="curve" smooth="yes"/>
      <point x="167" y="36"/>
      <point x="193" y="58"/>
      <point x="193" y="111" type="curve" smooth="yes"/>
      <point x="193" y="167"/>
      <point x="161" y="182"/>
      <point x="128" y="182" type="curve" smooth="yes"/>
      <point x="94" y="182" type="line"/>
      <point x="94" y="224" type="line"/>
      <point x="129" y="224" type="line" smooth="yes"/>
      <point x="159" y="224"/>
      <point x="186" y="247"/>
      <point x="186" y="294" type="curve" smooth="yes"/>
      <point x="186" y="344"/>
      <point x="161" y="364"/>
      <point x="132" y="364" type="curve" smooth="yes"/>
      <point x="100" y="364"/>
      <point x="76" y="341"/>
      <point x="76" y="292" type="curve" smooth="yes"/>
      <point x="76" y="287" type="line"/>
      <point x="28" y="287" type="line"/>
      <point x="28" y="297" type="line" smooth="yes"/>
      <point x="28" y="364"/>
      <point x="71" y="407"/>
    </contour>
  </outline>
</glyph>
<glyph name="four" format="1">
  <advance width="266"/>
  <unicode hex="0034"/>
  <outline>
    <contour>
      <point x="163" y="407" type="line"/>
      <point x="142" y="299"/>
      <point x="78" y="173"/>
      <point x="57" y="141" type="curve"/>
      <point x="166" y="141" type="line"/>
      <point x="166" y="267" type="line"/>
      <point x="178" y="295"/>
      <point x="183" y="316"/>
      <point x="190" y="347" type="curve"/>
      <point x="214" y="347" type="line"/>
      <point x="214" y="141" type="line"/>
      <point x="254" y="141" type="line"/>
      <point x="254" y="98" type="line"/>
      <point x="214" y="98" type="line"/>
      <point x="214" y="0" type="line"/>
      <point x="166" y="0" type="line"/>
      <point x="166" y="98" type="line"/>
      <point x="12" y="98" type="line"/>
      <point x="12" y="142" type="line"/>
      <point x="53" y="218"/>
      <point x="92" y="316"/>
      <point x="115" y="407" type="curve"/>
    </contour>
  </outline>
</glyph>
<glyph name="eight" format="1">
  <advance width="266"/>
  <unicode hex="0038"/>
  <outline>
    <contour>
      <point x="133" y="407" type="curve" smooth="yes"/>
      <point x="200" y="407"/>
      <point x="234" y="357"/>
      <point x="234" y="295" type="curve" smooth="yes"/>
      <point x="234" y="258"/>
      <point x="219" y="224"/>
      <point x="190" y="205" type="curve"/>
      <point x="227" y="187"/>
      <point x="243" y="153"/>
      <point x="243" y="109" type="curve" smooth="yes"/>
      <point x="243" y="45"/>
      <point x="210" y="-7"/>
      <point x="133" y="-7" type="curve" smooth="yes"/>
      <point x="55" y="-7"/>
      <point x="23" y="45"/>
      <point x="23" y="109" type="curve" smooth="yes"/>
      <point x="23" y="153"/>
      <point x="38" y="187"/>
      <point x="74" y="205" type="curve"/>
      <point x="46" y="224"/>
      <point x="32" y="258"/>
      <point x="32" y="295" type="curve" smooth="yes"/>
      <point x="32" y="357"/>
      <point x="66" y="407"/>
    </contour>
    <contour>
      <point x="133" y="364" type="curve" smooth="yes"/>
      <point x="100" y="364"/>
      <point x="79" y="338"/>
      <point x="79" y="295" type="curve" smooth="yes"/>
      <point x="79" y="252"/>
      <point x="100" y="225"/>
      <point x="133" y="225" type="curve" smooth="yes"/>
      <point x="165" y="225"/>
      <point x="187" y="252"/>
      <point x="187" y="295" type="curve" smooth="yes"/>
      <point x="187" y="338"/>
      <point x="165" y="364"/>
    </contour>
    <contour>
      <point x="133" y="183" type="curve" smooth="yes"/>
      <point x="93" y="183"/>
      <point x="72" y="155"/>
      <point x="72" y="109" type="curve" smooth="yes"/>
      <point x="72" y="64"/>
      <point x="93" y="36"/>
      <point x="133" y="36" type="curve" smooth="yes"/>
      <point x="173" y="36"/>
      <point x="193" y="64"/>
      <point x="193" y="109" type="curve" smooth="yes"/>
      <point x="193" y="155"/>
      <point x="173" y="183"/>
    </contour>
  </outline>
</glyph>
<glyph name="colon" format="1">
  <advance width="133"/>
  <unicode hex="003A"/>
  <outline>
    <contour>
      <point x="38" y="244" type="line"/>
      <point x="38" y="306" type="line"/>
      <point x="96" y="306" type="line"/>
      <point x="96" y="244" type="line"/>
    </contour>
    <contour>
      <point x="38" y="0" type="line"/>
      <point x="38" y="63" type="line"/>
      <point x="96" y="63" type="line"/>
      <point x="96" y="0" type="line"/>
    </contour>
  </outline>
</glyph>
<glyph name="equal" format="1">
  <advance width="279"/>
  <unicode hex="003D"/>
  <outline>
    <contour>
      <point x="25" y="185" type="line"/>
      <point x="25" y="234" type="line"/>
      <point x="254" y="234" type="line"/>
      <point x="254" y="185" type="line"/>
    </contour>
    <contour>
      <point x="25" y="62" type="line"/>
      <point x="25" y="110" type="line"/>
      <point x="254" y="110" type="line"/>
      <point x="254" y="62" type="line"/>
    </contour>
  </outline>
</glyph>
<glyph name="greater" format="1">
  <advance width="279"/>
  <unicode hex="003E"/>
  <outline>
    <contour>
      <point x="254" y="117" type="line"/>
      <point x="26" y="3" type="line"/>
      <point x="26" y="55" type="line"/>
      <point x="207" y="148" type="line"/>
      <point x="26" y="241" type="line"/>
      <point x="26" y="294" type="line"/>
      <point x="254" y="179" type="line"/>
    </contour>
  </outline>
</glyph>
<glyph name="at" format="1">
  <advance width="484"/>
  <unicode hex="0040"/>
  <outline>
    <contour>
      <point x="248" y="407" type="curve" smooth="yes"/>
      <point x="369" y="407"/>
      <point x="458" y="343"/>
      <point x="458" y="187" type="curve" smooth="yes"/>
      <point x="458" y="55"/>
      <point x="394" y="13"/>
      <point x="348" y="13" type="curve" smooth="yes"/>
      <point x="314" y="13"/>
      <point x="301" y="28"/>
      <point x="296" y="49" type="curve"/>
      <point x="294" y="49" type="line"/>
      <point x="279" y="26"/>
      <point x="254" y="13"/>
      <point x="225" y="13" type="curve" smooth="yes"/>
      <point x="198" y="13"/>
      <point x="153" y="23"/>
      <point x="153" y="90" type="curve" smooth="yes"/>
      <point x="153" y="167"/>
      <point x="213" y="183"/>
      <point x="294" y="183" type="curve"/>
      <point x="294" y="219" type="line" smooth="yes"/>
      <point x="294" y="246"/>
      <point x="285" y="265"/>
      <point x="249" y="265" type="curve" smooth="yes"/>
      <point x="217" y="265"/>
      <point x="207" y="243"/>
      <point x="207" y="221" type="curve" smooth="yes"/>
      <point x="207" y="214" type="line"/>
      <point x="163" y="214" type="line"/>
      <point x="163" y="226" type="line" smooth="yes"/>
      <point x="163" y="277"/>
      <point x="200" y="304"/>
      <point x="253" y="304" type="curve" smooth="yes"/>
      <point x="309" y="304"/>
      <point x="337" y="275"/>
      <point x="337" y="225" type="curve" smooth="yes"/>
      <point x="337" y="72" type="line" smooth="yes"/>
      <point x="337" y="57"/>
      <point x="344" y="51"/>
      <point x="357" y="51" type="curve" smooth="yes"/>
      <point x="387" y="51"/>
      <point x="424" y="80"/>
      <point x="424" y="188" type="curve" smooth="yes"/>
      <point x="424" y="320"/>
      <point x="352" y="374"/>
      <point x="248" y="374" type="curve" smooth="yes"/>
      <point x="132" y="374"/>
      <point x="60" y="302"/>
      <point x="60" y="152" type="curve" smooth="yes"/>
      <point x="60" y="13"/>
      <point x="114" y="-57"/>
      <point x="230" y="-57" type="curve" smooth="yes"/>
      <point x="254" y="-57"/>
      <point x="299" y="-49"/>
      <point x="318" y="-38" type="curve"/>
      <point x="318" y="-73" type="line"/>
      <point x="295" y="-83"/>
      <point x="253" y="-89"/>
      <point x="230" y="-89" type="curve" smooth="yes"/>
      <point x="104" y="-89"/>
      <point x="26" y="-16"/>
      <point x="26" y="153" type="curve" smooth="yes"/>
      <point x="26" y="339"/>
      <point x="129" y="407"/>
    </contour>
    <contour>
      <point x="294" y="145" type="line"/>
      <point x="237" y="145"/>
      <point x="198" y="137"/>
      <point x="198" y="93" type="curve" smooth="yes"/>
      <point x="198" y="61"/>
      <point x="212" y="51"/>
      <point x="236" y="51" type="curve" smooth="yes"/>
      <point x="264" y="51"/>
      <point x="294" y="73"/>
      <point x="294" y="119" type="curve" smooth="yes"/>
    </contour>
  </outline>
</glyph>
<glyph name="F" format="1">
  <advance width="292"/>
  <unicode hex="0046"/>
  <outline>
    <contour>
      <point x="41" y="399" type="line"/>
      <point x="272" y="399" type="line"/>
      <point x="272" y="353" type="line"/>
      <point x="92" y="353" type="line"/>
      <point x="92" y="223" type="line"/>
      <point x="250" y="223" type="line"/>
      <point x="250" y="177" type="line"/>
      <point x="92" y="177" type="line"/>
      <point x="92" y="0" type="line"/>
      <point x="41" y="0" type="line"/>
    </contour>
  </outline>
</glyph>
<glyph name="K" format="1">
  <advance width="319"/>
  <unicode hex="004B"/>
  <outline>
    <contour>
      <point x="159" y="0" type="move" name="Anchor-1"/>
    </contour>
    <contour>
      <point x="159" y="399" type="move" name="Anchor-0"/>
    </contour>
    <contour>
      <point x="250" y="399" type="line"/>
      <point x="308" y="399" type="line"/>
      <point x="188" y="239" type="line"/>
      <point x="312" y="0" type="line"/>
      <point x="254" y="0" type="line"/>
      <point x="156" y="195" type="line"/>
      <point x="92" y="124" type="line"/>
      <point x="92" y="0" type="line"/>
      <point x="41" y="0" type="line"/>
      <point x="41" y="399" type="line"/>
      <point x="92" y="399" type="line"/>
      <point x="92" y="188" type="line"/>
    </contour>
  </outline>
</glyph>
<glyph name="P" format="1">
  <advance width="319"/>
  <unicode hex="0050"/>
  <outline>
    <contour>
      <point x="92" y="0" type="line"/>
      <point x="41" y="0" type="line"/>
      <point x="41" y="399" type="line"/>
      <point x="183" y="399" type="line" smooth="yes"/>
      <point x="262" y="399"/>
      <point x="303" y="353"/>
      <point x="303" y="283" type="curve" smooth="yes"/>
      <point x="303" y="213"/>
      <point x="258" y="165"/>
      <point x="183" y="165" type="curve" smooth="yes"/>
      <point x="92" y="165" type="line"/>
    </contour>
    <contour>
      <point x="92" y="212" type="line"/>
      <point x="182" y="212" type="line" smooth="yes"/>
      <point x="223" y="212"/>
      <point x="249" y="240"/>
      <point x="249" y="283" type="curve" smooth="yes"/>
      <point x="249" y="326"/>
      <point x="225" y="353"/>
      <point x="182" y="353" type="curve" smooth="yes"/>
      <point x="92" y="353" type="line"/>
    </contour>
  </outline>
</glyph>
<glyph name="Q" format="1">
  <advance width="372"/>
  <unicode hex="0051"/>
  <outline>
    <contour>
      <point x="28" y="200" type="curve" smooth="yes"/>
      <point x="28" y="339"/>
      <point x="88" y="407"/>
      <point x="186" y="407" type="curve" smooth="yes"/>
      <point x="284" y="407"/>
      <point x="343" y="339"/>
      <point x="343" y="200" type="curve" smooth="yes"/>
      <point x="343" y="94"/>
      <point x="308" y="28"/>
      <point x="248" y="4" type="curve"/>
      <point x="331" y="-72" type="line"/>
      <point x="262" y="-72" type="line"/>
      <point x="193" y="-7" type="line"/>
      <point x="186" y="-7" type="line" smooth="yes"/>
      <point x="88" y="-7"/>
      <point x="28" y="61"/>
    </contour>
    <contour>
      <point x="82" y="185" type="line" smooth="yes"/>
      <point x="82" y="88"/>
      <point x="122" y="40"/>
      <point x="186" y="40" type="curve" smooth="yes"/>
      <point x="250" y="40"/>
      <point x="289" y="88"/>
      <point x="289" y="185" type="curve" smooth="yes"/>
      <point x="289" y="214" type="line" smooth="yes"/>
      <point x="289" y="312"/>
      <point x="250" y="359"/>
      <point x="186" y="359" type="curve" smooth="yes"/>
      <point x="122" y="359"/>
      <point x="82" y="312"/>
      <point x="82" y="214" type="curve" smooth="yes"/>
    </contour>
  </outline>
</glyph>
<glyph name="T" format="1">
  <advance width="292"/>
  <unicode hex="0054"/>
  <outline>
    <contour>
      <point x="146" y="0" type="move" name="Anchor-1"/>
    </contour>
    <contour>
      <point x="146" y="399" type="move" name="Anchor-0"/>
    </contour>
    <contour>
      <point x="280" y="353" type="line"/>
      <point x="171" y="353" type="line"/>
      <point x="171" y="0" type="line"/>
      <point x="120" y="0" type="line"/>
      <point x="120" y="353" type="line"/>
      <point x="11" y="353" type="line"/>
      <point x="11" y="399" type="line"/>
      <point x="280" y="399" type="line"/>
    </contour>
  </outline>
</glyph>
<glyph name="V" format="1">
  <advance width="319"/>
  <unicode hex="0056"/>
  <outline>
    <contour>
      <point x="127" y="0" type="line"/>
      <point x="5" y="399" type="line"/>
      <point x="61" y="399" type="line"/>
      <point x="160" y="57" type="line"/>
      <point x="163" y="57" type="line"/>
      <point x="264" y="399" type="line"/>
      <point x="314" y="399" type="line"/>
      <point x="192" y="0" type="line"/>
    </contour>
  </outline>
</glyph>
<glyph name="Y" format="1">
  <advance width="319"/>
  <unicode hex="0059"/>
  <outline>
    <contour>
      <point x="0" y="0" type="move" name="Anchor-1"/>
    </contour>
    <contour>
      <point x="159" y="399" type="move" name="Anchor-0"/>
    </contour>
    <contour>
      <point x="185" y="0" type="line"/>
      <point x="134" y="0" type="line"/>
      <point x="134" y="165" type="line"/>
      <point x="5" y="399" type="line"/>
      <point x="61" y="399" type="line"/>
      <point x="163" y="214" type="line"/>
      <point x="165" y="214" type="line"/>
      <point x="264" y="399" type="line"/>
      <point x="314" y="399" type="line"/>
      <point x="185" y="165" type="line"/>
    </contour>
  </outline>
</glyph>
<glyph name="Z" format="1">
  <advance width="292"/>
  <unicode hex="005A"/>
  <outline>
    <contour>
      <point x="0" y="0" type="move" name="Anchor-1"/>
    </contour>
    <contour>
      <point x="146" y="399" type="move" name="Anchor-0"/>
    </contour>
    <contour>
      <point x="275" y="378" type="line"/>
      <point x="84" y="47" type="line"/>
      <point x="279" y="47" type="line"/>
      <point x="279" y="0" type="line"/>
      <point x="12" y="0" type="line"/>
      <point x="12" y="22" type="line"/>
      <point x="202" y="353" type="line"/>
      <point x="24" y="353" type="line"/>
      <point x="24" y="399" type="line"/>
      <point x="275" y="399" type="line"/>
    </contour>
  </outline>
</glyph>
<glyph name="bracketright" format="1">
  <advance width="133"/>
  <unicode hex="005D"/>
  <outline>
    <contour>
      <point x="12" y="-94" type="line"/>
      <point x="12" y="-56" type="line"/>
      <point x="60" y="-56" type="line"/>
      <point x="60" y="390" type="line"/>
      <point x="12" y="390" type="line"/>
      <point x="12" y="428" type="line"/>
      <point x="104" y="428" type="line"/>
      <point x="104" y="-94" type="line"/>
    </contour>
  </outline>
</glyph>
<glyph name="b" format="1">
  <advance width="266"/>
  <unicode hex="0062"/>
  <outline>
    <contour>
      <point x="83" y="277" type="line"/>
      <point x="86" y="277" type="line"/>
      <point x="96" y="300"/>
      <point x="121" y="314"/>
      <point x="151" y="314" type="curve" smooth="yes"/>
      <point x="202" y="314"/>
      <point x="243" y="265"/>
      <point x="243" y="154" type="curve" smooth="yes"/>
      <point x="243" y="42"/>
      <point x="206" y="-7"/>
      <point x="148" y="-7" type="curve" smooth="yes"/>
      <point x="119" y="-7"/>
      <point x="95" y="7"/>
      <point x="80" y="36" type="curve"/>
      <point x="78" y="36" type="line"/>
      <point x="71" y="0" type="line"/>
      <point x="35" y="0" type="line"/>
      <point x="35" y="421" type="line"/>
      <point x="83" y="421" type="line"/>
    </contour>
    <contour>
      <point x="138" y="271" type="curve" smooth="yes"/>
      <point x="101" y="271"/>
      <point x="83" y="234"/>
      <point x="83" y="162" type="curve" smooth="yes"/>
      <point x="83" y="142" type="line" smooth="yes"/>
      <point x="83" y="72"/>
      <point x="101" y="36"/>
      <point x="138" y="36" type="curve" smooth="yes"/>
      <point x="174" y="36"/>
      <point x="192" y="66"/>
      <point x="192" y="142" type="curve" smooth="yes"/>
      <point x="192" y="164" type="line" smooth="yes"/>
      <point x="192" y="241"/>
      <point x="174" y="271"/>
    </contour>
  </outline>
</glyph>
<glyph name="m" format="1">
  <advance width="398"/>
  <unicode hex="006D"/>
  <outline>
    <contour>
      <point x="291" y="314" type="curve" smooth="yes"/>
      <point x="334" y="314"/>
      <point x="363" y="289"/>
      <point x="363" y="221" type="curve" smooth="yes"/>
      <point x="363" y="0" type="line"/>
      <point x="315" y="0" type="line"/>
      <point x="315" y="217" type="line" smooth="yes"/>
      <point x="315" y="260"/>
      <point x="299" y="271"/>
      <point x="275" y="271" type="curve" smooth="yes"/>
      <point x="247" y="271"/>
      <point x="223" y="240"/>
      <point x="223" y="187" type="curve" smooth="yes"/>
      <point x="223" y="0" type="line"/>
      <point x="175" y="0" type="line"/>
      <point x="175" y="217" type="line" smooth="yes"/>
      <point x="175" y="260"/>
      <point x="158" y="271"/>
      <point x="136" y="271" type="curve" smooth="yes"/>
      <point x="107" y="271"/>
      <point x="83" y="240"/>
      <point x="83" y="187" type="curve" smooth="yes"/>
      <point x="83" y="0" type="line"/>
      <point x="35" y="0" type="line"/>
      <point x="35" y="306" type="line"/>
      <point x="71" y="306" type="line"/>
      <point x="78" y="271" type="line"/>
      <point x="81" y="271" type="line"/>
      <point x="98" y="301"/>
      <point x="122" y="314"/>
      <point x="151" y="314" type="curve" smooth="yes"/>
      <point x="181" y="314"/>
      <point x="205" y="301"/>
      <point x="216" y="269" type="curve"/>
      <point x="233" y="299"/>
      <point x="262" y="314"/>
    </contour>
  </outline>
</glyph>
<glyph name="q" format="1">
  <advance width="266"/>
  <unicode hex="0071"/>
  <outline>
    <contour>
      <point x="118" y="314" type="curve" smooth="yes"/>
      <point x="146" y="314"/>
      <point x="171" y="299"/>
      <point x="185" y="271" type="curve"/>
      <point x="188" y="271" type="line"/>
      <point x="194" y="306" type="line"/>
      <point x="231" y="306" type="line"/>
      <point x="231" y="-101" type="line"/>
      <point x="183" y="-101" type="line"/>
      <point x="183" y="27" type="line"/>
      <point x="180" y="27" type="line"/>
      <point x="169" y="6"/>
      <point x="144" y="-7"/>
      <point x="115" y="-7" type="curve" smooth="yes"/>
      <point x="64" y="-7"/>
      <point x="23" y="42"/>
      <point x="23" y="153" type="curve" smooth="yes"/>
      <point x="23" y="265"/>
      <point x="60" y="314"/>
    </contour>
    <contour>
      <point x="128" y="271" type="curve" smooth="yes"/>
      <point x="92" y="271"/>
      <point x="73" y="241"/>
      <point x="73" y="164" type="curve" smooth="yes"/>
      <point x="73" y="142" type="line" smooth="yes"/>
      <point x="73" y="66"/>
      <point x="92" y="36"/>
      <point x="128" y="36" type="curve" smooth="yes"/>
      <point x="165" y="36"/>
      <point x="183" y="72"/>
      <point x="183" y="142" type="curve" smooth="yes"/>
      <point x="183" y="164" type="line" smooth="yes"/>
      <point x="183" y="235"/>
      <point x="165" y="271"/>
    </contour>
  </outline>
</glyph>
<glyph name="r" format="1">
  <advance width="159"/>
  <unicode hex="0072"/>
  <outline>
    <contour>
      <point x="80" y="0" type="move" name="Anchor-1"/>
    </contour>
    <contour>
      <point x="80" y="306" type="move" name="Anchor-0"/>
    </contour>
    <contour>
      <point x="133" y="314" type="curve" smooth="yes"/>
      <point x="146" y="314"/>
      <point x="156" y="309"/>
      <point x="156" y="309" type="curve"/>
      <point x="156" y="259" type="line"/>
      <point x="140" y="259" type="line" smooth="yes"/>
      <point x="109" y="259"/>
      <point x="83" y="241"/>
      <point x="83" y="187" type="curve" smooth="yes"/>
      <point x="83" y="0" type="line"/>
      <point x="35" y="0" type="line"/>
      <point x="35" y="306" type="line"/>
      <point x="71" y="306" type="line"/>
      <point x="78" y="266" type="line"/>
      <point x="81" y="266" type="line"/>
      <point x="88" y="289"/>
      <point x="103" y="314"/>
    </contour>
  </outline>
</glyph>
<glyph name="v" format="1">
  <advance width="239"/>
  <unicode hex="0076"/>
  <outline>
    <contour>
      <point x="146" y="0" type="line"/>
      <point x="94" y="0" type="line"/>
      <point x="6" y="306" type="line"/>
      <point x="58" y="306" type="line"/>
      <point x="100" y="150" type="line" smooth="yes"/>
      <point x="102" y="142"/>
      <point x="104" y="135"/>
      <point x="106" y="127" type="curve" smooth="yes"/>
      <point x="111" y="109"/>
      <point x="115" y="91"/>
      <point x="121" y="73" type="curve"/>
      <point x="123" y="73" type="line"/>
      <point x="129" y="98"/>
      <point x="136" y="123"/>
      <point x="143" y="148" type="curve" smooth="yes"/>
      <point x="185" y="306" type="line"/>
      <point x="233" y="306" type="line"/>
    </contour>
  </outline>
</glyph>
<glyph name="x" format="1">
  <advance width="239"/>
  <unicode hex="0078"/>
  <outline>
    <contour>
      <point x="235" y="0" type="line"/>
      <point x="178" y="0" type="line"/>
      <point x="118" y="113" type="line"/>
      <point x="56" y="0" type="line"/>
      <point x="3" y="0" type="line"/>
      <point x="93" y="155" type="line"/>
      <point x="7" y="306" type="line"/>
      <point x="65" y="306" type="line"/>
      <point x="121" y="201" type="line"/>
      <point x="178" y="306" type="line"/>
      <point x="231" y="306" type="line"/>
      <point x="146" y="159" type="line"/>
    </contour>
  </outline>
</glyph>
<glyph name="z" format="1">
  <advance width="239"/>
  <unicode hex="007A"/>
  <outline>
    <contour>
      <point x="0" y="0" type="move" name="Anchor-1"/>
    </contour>
    <contour>
      <point x="119" y="306" type="move" name="Anchor-0"/>
    </contour>
    <contour>
      <point x="80" y="43" type="line"/>
      <point x="223" y="43" type="line"/>
      <point x="223" y="0" type="line"/>
      <point x="15" y="0" type="line"/>
      <point x="15" y="22" type="line"/>
      <point x="150" y="264" type="line"/>
      <point x="24" y="264" type="line"/>
      <point x="24" y="306" type="line"/>
      <point x="215" y="306" type="line"/>
      <point x="215" y="284" type="line"/>
    </contour>
  </outline>
</glyph>
<glyph name="braceleft" format="1">
  <advance width="159"/>
  <unicode hex="007B"/>
  <outline>
    <contour>
      <point x="148" y="395" type="line"/>
      <point x="127" y="395"/>
      <point x="102" y="388"/>
      <point x="102" y="354" type="curve" smooth="yes"/>
      <point x="102" y="315"/>
      <point x="100" y="276"/>
      <point x="98" y="236" type="curve" smooth="yes"/>
      <point x="98" y="235"/>
      <point x="98" y="234"/>
      <point x="98" y="233" type="curve" smooth="yes"/>
      <point x="97" y="194"/>
      <point x="84" y="171"/>
      <point x="47" y="171" type="curve"/>
      <point x="47" y="165" type="line"/>
      <point x="84" y="165"/>
      <point x="97" y="142"/>
      <point x="98" y="102" type="curve" smooth="yes"/>
      <point x="98" y="100"/>
      <point x="98" y="98"/>
      <point x="98" y="96" type="curve" smooth="yes"/>
      <point x="100" y="57"/>
      <point x="102" y="20"/>
      <point x="102" y="-18" type="curve" smooth="yes"/>
      <point x="102" y="-53"/>
      <point x="127" y="-59"/>
      <point x="148" y="-59" type="curve"/>
      <point x="148" y="-93" type="line"/>
      <point x="100" y="-93"/>
      <point x="57" y="-80"/>
      <point x="57" y="-7" type="curve" smooth="yes"/>
      <point x="57" y="108" type="line" smooth="yes"/>
      <point x="57" y="134"/>
      <point x="33" y="143"/>
      <point x="12" y="143" type="curve"/>
      <point x="12" y="192" type="line"/>
      <point x="33" y="192"/>
      <point x="57" y="201"/>
      <point x="57" y="227" type="curve" smooth="yes"/>
      <point x="57" y="342" type="line" smooth="yes"/>
      <point x="57" y="415"/>
      <point x="100" y="428"/>
      <point x="148" y="428" type="curve"/>
    </contour>
  </outline>
</glyph>
<glyph name="asciitilde" format="1">
  <advance width="279"/>
  <unicode hex="007E"/>
  <outline>
    <contour>
      <point x="258" y="173" type="line"/>
      <point x="258" y="173"/>
      <point x="236" y="130"/>
      <point x="190" y="130" type="curve" smooth="yes"/>
      <point x="172" y="130"/>
      <point x="157" y="139"/>
      <point x="141" y="147" type="curve" smooth="yes"/>
      <point x="125" y="156"/>
      <point x="108" y="165"/>
      <point x="89" y="165" type="curve" smooth="yes"/>
      <point x="49" y="165"/>
      <point x="20" y="123"/>
      <point x="20" y="123" type="curve"/>
      <point x="20" y="177" type="line"/>
      <point x="20" y="177"/>
      <point x="43" y="219"/>
      <point x="89" y="219" type="curve" smooth="yes"/>
      <point x="107" y="219"/>
      <point x="123" y="210"/>
      <point x="139" y="201" type="curve" smooth="yes"/>
      <point x="155" y="192"/>
      <point x="171" y="183"/>
      <point x="190" y="183" type="curve" smooth="yes"/>
      <point x="230" y="183"/>
      <point x="258" y="226"/>
      <point x="258" y="226" type="curve"/>
    </contour>
  </outline>
</glyph>
<glyph name="currency" format="1">
  <advance width="266"/>
  <unicode hex="00A4"/>
  <outline>
    <contour>
      <point x="133" y="343" type="curve" smooth="yes"/>
      <point x="163" y="343"/>
      <point x="192" y="330"/>
      <point x="214" y="309" type="curve"/>
      <point x="239" y="334" type="line"/>
      <point x="268" y="306" type="line"/>
      <point x="239" y="277" type="line"/>
      <point x="252" y="254"/>
      <point x="259" y="228"/>
      <point x="259" y="199" type="curve" smooth="yes"/>
      <point x="259" y="170"/>
      <point x="252" y="143"/>
      <point x="239" y="121" type="curve"/>
      <point x="268" y="93" type="line"/>
      <point x="239" y="65" type="line"/>
      <point x="214" y="90" type="line"/>
      <point x="192" y="69"/>
      <point x="163" y="56"/>
      <point x="133" y="56" type="curve" smooth="yes"/>
      <point x="101" y="56"/>
      <point x="73" y="69"/>
      <point x="51" y="90" type="curve"/>
      <point x="26" y="65" type="line"/>
      <point x="-2" y="93" type="line"/>
      <point x="27" y="121" type="line"/>
      <point x="14" y="143"/>
      <point x="7" y="170"/>
      <point x="7" y="199" type="curve" smooth="yes"/>
      <point x="7" y="228"/>
      <point x="14" y="254"/>
      <point x="27" y="277" type="curve"/>
      <point x="-2" y="306" type="line"/>
      <point x="26" y="334" type="line"/>
      <point x="51" y="309" type="line"/>
      <point x="72" y="330"/>
      <point x="101" y="343"/>
    </contour>
    <contour>
      <point x="133" y="303" type="curve" smooth="yes"/>
      <point x="84" y="303"/>
      <point x="46" y="257"/>
      <point x="46" y="199" type="curve" smooth="yes"/>
      <point x="46" y="142"/>
      <point x="84" y="96"/>
      <point x="133" y="96" type="curve" smooth="yes"/>
      <point x="181" y="96"/>
      <point x="219" y="142"/>
      <point x="219" y="199" type="curve" smooth="yes"/>
      <point x="219" y="257"/>
      <point x="181" y="303"/>
    </contour>
  </outline>
</glyph>
<glyph name="brokenbar" format="1">
  <advance width="124"/>
  <unicode hex="00A6"/>
  <outline>
    <contour>
      <point x="39" y="200" type="line"/>
      <point x="39" y="421" type="line"/>
      <point x="85" y="421" type="line"/>
      <point x="85" y="200" type="line"/>
    </contour>
    <contour>
      <point x="39" y="-101" type="line"/>
      <point x="39" y="121" type="line"/>
      <point x="85" y="121" type="line"/>
      <point x="85" y="-101" type="line"/>
    </contour>
  </outline>
</glyph>
<glyph name="section" format="1">
  <advance width="266"/>
  <unicode hex="00A7"/>
  <outline>
    <contour>
      <point x="141" y="407" type="curve" smooth="yes"/>
      <point x="198" y="407"/>
      <point x="229" y="368"/>
      <point x="229" y="323" type="curve" smooth="yes"/>
      <point x="229" y="312" type="line"/>
      <point x="179" y="312" type="line"/>
      <point x="179" y="317" type="line" smooth="yes"/>
      <point x="179" y="341"/>
      <point x="169" y="364"/>
      <point x="136" y="364" type="curve" smooth="yes"/>
      <point x="103" y="364"/>
      <point x="95" y="339"/>
      <point x="95" y="323" type="curve" smooth="yes"/>
      <point x="95" y="283"/>
      <point x="125" y="266"/>
      <point x="157" y="247" type="curve" smooth="yes"/>
      <point x="194" y="226"/>
      <point x="235" y="202"/>
      <point x="235" y="139" type="curve" smooth="yes"/>
      <point x="235" y="101"/>
      <point x="214" y="75"/>
      <point x="194" y="61" type="curve"/>
      <point x="214" y="43"/>
      <point x="229" y="20"/>
      <point x="229" y="-18" type="curve" smooth="yes"/>
      <point x="229" y="-73"/>
      <point x="194" y="-106"/>
      <point x="133" y="-106" type="curve" smooth="yes"/>
      <point x="76" y="-106"/>
      <point x="45" y="-68"/>
      <point x="45" y="-22" type="curve" smooth="yes"/>
      <point x="45" y="-20"/>
      <point x="45" y="-17"/>
      <point x="46" y="-15" type="curve" smooth="yes"/>
      <point x="46" y="-13"/>
      <point x="46" y="-12"/>
      <point x="46" y="-11" type="curve" smooth="yes"/>
      <point x="96" y="-11" type="line"/>
      <point x="96" y="-16" type="line" smooth="yes"/>
      <point x="96" y="-40"/>
      <point x="105" y="-64"/>
      <point x="138" y="-64" type="curve" smooth="yes"/>
      <point x="171" y="-64"/>
      <point x="179" y="-39"/>
      <point x="179" y="-22" type="curve" smooth="yes"/>
      <point x="179" y="18"/>
      <point x="149" y="35"/>
      <point x="117" y="53" type="curve" smooth="yes"/>
      <point x="80" y="75"/>
      <point x="40" y="98"/>
      <point x="40" y="161" type="curve" smooth="yes"/>
      <point x="40" y="199"/>
      <point x="60" y="225"/>
      <point x="80" y="239" type="curve"/>
      <point x="60" y="257"/>
      <point x="45" y="281"/>
      <point x="45" y="319" type="curve" smooth="yes"/>
      <point x="45" y="374"/>
      <point x="80" y="407"/>
    </contour>
    <contour>
      <point x="106" y="221" type="curve"/>
      <point x="94" y="212"/>
      <point x="86" y="195"/>
      <point x="86" y="173" type="curve" smooth="yes"/>
      <point x="86" y="127"/>
      <point x="119" y="108"/>
      <point x="153" y="88" type="curve" smooth="yes"/>
      <point x="158" y="85"/>
      <point x="163" y="82"/>
      <point x="168" y="79" type="curve"/>
      <point x="180" y="89"/>
      <point x="188" y="105"/>
      <point x="188" y="127" type="curve" smooth="yes"/>
      <point x="188" y="180"/>
      <point x="145" y="197"/>
    </contour>
  </outline>
</glyph>
<glyph name="copyright" format="1">
  <advance width="352"/>
  <unicode hex="00A9"/>
  <outline>
    <contour>
      <point x="176" y="407" type="curve" smooth="yes"/>
      <point x="278" y="407"/>
      <point x="339" y="326"/>
      <point x="339" y="200" type="curve" smooth="yes"/>
      <point x="339" y="74"/>
      <point x="278" y="-7"/>
      <point x="176" y="-7" type="curve" smooth="yes"/>
      <point x="74" y="-7"/>
      <point x="13" y="74"/>
      <point x="13" y="200" type="curve" smooth="yes"/>
      <point x="13" y="326"/>
      <point x="74" y="407"/>
    </contour>
    <contour>
      <point x="176" y="379" type="curve" smooth="yes"/>
      <point x="91" y="379"/>
      <point x="39" y="309"/>
      <point x="39" y="200" type="curve" smooth="yes"/>
      <point x="39" y="91"/>
      <point x="91" y="20"/>
      <point x="176" y="20" type="curve" smooth="yes"/>
      <point x="261" y="20"/>
      <point x="313" y="91"/>
      <point x="313" y="200" type="curve" smooth="yes"/>
      <point x="313" y="309"/>
      <point x="261" y="379"/>
    </contour>
    <contour>
      <point x="177" y="325" type="curve" smooth="yes"/>
      <point x="225" y="325"/>
      <point x="259" y="296"/>
      <point x="259" y="236" type="curve"/>
      <point x="225" y="236" type="line"/>
      <point x="225" y="275"/>
      <point x="206" y="295"/>
      <point x="177" y="295" type="curve" smooth="yes"/>
      <point x="138" y="295"/>
      <point x="119" y="268"/>
      <point x="119" y="212" type="curve" smooth="yes"/>
      <point x="119" y="194" type="line" smooth="yes"/>
      <point x="119" y="139"/>
      <point x="138" y="111"/>
      <point x="177" y="111" type="curve" smooth="yes"/>
      <point x="207" y="111"/>
      <point x="227" y="130"/>
      <point x="227" y="169" type="curve"/>
      <point x="259" y="169" type="line"/>
      <point x="259" y="109"/>
      <point x="225" y="81"/>
      <point x="177" y="81" type="curve" smooth="yes"/>
      <point x="116" y="81"/>
      <point x="84" y="121"/>
      <point x="84" y="203" type="curve" smooth="yes"/>
      <point x="84" y="285"/>
      <point x="116" y="325"/>
    </contour>
  </outline>
</glyph>
<glyph name="registered" format="1">
  <advance width="352"/>
  <unicode hex="00AE"/>
  <outline>
    <contour>
      <point x="176" y="407" type="curve" smooth="yes"/>
      <point x="278" y="407"/>
      <point x="339" y="326"/>
      <point x="339" y="200" type="curve" smooth="yes"/>
      <point x="339" y="74"/>
      <point x="278" y="-7"/>
      <point x="176" y="-7" type="curve" smooth="yes"/>
      <point x="74" y="-7"/>
      <point x="13" y="74"/>
      <point x="13" y="200" type="curve" smooth="yes"/>
      <point x="13" y="326"/>
      <point x="74" y="407"/>
    </contour>
    <contour>
      <point x="176" y="379" type="curve" smooth="yes"/>
      <point x="91" y="379"/>
      <point x="39" y="309"/>
      <point x="39" y="200" type="curve" smooth="yes"/>
      <point x="39" y="91"/>
      <point x="91" y="20"/>
      <point x="176" y="20" type="curve" smooth="yes"/>
      <point x="261" y="20"/>
      <point x="313" y="91"/>
      <point x="313" y="200" type="curve" smooth="yes"/>
      <point x="313" y="309"/>
      <point x="261" y="379"/>
    </contour>
    <contour>
      <point x="195" y="320" type="line" smooth="yes"/>
      <point x="229" y="320"/>
      <point x="255" y="297"/>
      <point x="255" y="262" type="curve" smooth="yes"/>
      <point x="255" y="233"/>
      <point x="239" y="214"/>
      <point x="218" y="207" type="curve"/>
      <point x="218" y="204" type="line"/>
      <point x="225" y="202"/>
      <point x="254" y="187"/>
      <point x="254" y="142" type="curve" smooth="yes"/>
      <point x="254" y="109"/>
      <point x="259" y="101"/>
      <point x="270" y="98" type="curve"/>
      <point x="270" y="88" type="line" smooth="yes"/>
      <point x="267" y="86"/>
      <point x="259" y="84"/>
      <point x="253" y="84" type="curve" smooth="yes"/>
      <point x="235" y="84"/>
      <point x="219" y="94"/>
      <point x="219" y="129" type="curve" smooth="yes"/>
      <point x="219" y="177"/>
      <point x="198" y="188"/>
      <point x="182" y="188" type="curve" smooth="yes"/>
      <point x="134" y="188" type="line"/>
      <point x="134" y="86" type="line"/>
      <point x="101" y="86" type="line"/>
      <point x="101" y="320" type="line"/>
    </contour>
    <contour>
      <point x="134" y="219" type="line"/>
      <point x="183" y="219" type="line" smooth="yes"/>
      <point x="206" y="219"/>
      <point x="221" y="234"/>
      <point x="221" y="255" type="curve" smooth="yes"/>
      <point x="221" y="277"/>
      <point x="206" y="289"/>
      <point x="185" y="289" type="curve" smooth="yes"/>
      <point x="134" y="289" type="line"/>
    </contour>
  </outline>
</glyph>
<glyph name="acute" format="1">
  <advance width="159"/>
  <unicode hex="00B4"/>
  <outline>
    <contour>
      <point x="80" y="344" type="line"/>
      <point x="40" y="344" type="line"/>
      <point x="90" y="421" type="line"/>
      <point x="142" y="421" type="line"/>
      <point x="143" y="419" type="line"/>
    </contour>
  </outline>
</glyph>
<glyph name="paragraph" format="1">
  <advance width="256"/>
  <unicode hex="00B6"/>
  <outline>
    <contour>
      <point x="216" y="364" type="line"/>
      <point x="216" y="-101" type="line"/>
      <point x="178" y="-101" type="line"/>
      <point x="178" y="364" type="line"/>
      <point x="147" y="364" type="line"/>
      <point x="147" y="-101" type="line"/>
      <point x="109" y="-101" type="line"/>
      <point x="109" y="146" type="line"/>
      <point x="53" y="153"/>
      <point x="11" y="206"/>
      <point x="11" y="272" type="curve" smooth="yes"/>
      <point x="11" y="343"/>
      <point x="60" y="399"/>
      <point x="123" y="399" type="curve" smooth="yes"/>
      <point x="244" y="399" type="line"/>
      <point x="244" y="364" type="line"/>
    </contour>
  </outline>
</glyph>
<glyph name="periodcentered" format="1">
  <advance width="133"/>
  <unicode hex="00B7"/>
  <outline>
    <contour>
      <point x="37" y="168" type="line"/>
      <point x="37" y="233" type="line"/>
      <point x="96" y="233" type="line"/>
      <point x="96" y="168" type="line"/>
    </contour>
  </outline>
</glyph>
<glyph name="uni00B9" format="1">
  <advance width="159"/>
  <unicode hex="00B9"/>
  <outline>
    <contour>
      <point x="148" y="221" type="line"/>
      <point x="148" y="188" type="line"/>
      <point x="23" y="188" type="line"/>
      <point x="23" y="221" type="line"/>
      <point x="69" y="221" type="line"/>
      <point x="69" y="372" type="line"/>
      <point x="22" y="372" type="line"/>
      <point x="22" y="397" type="line"/>
      <point x="41" y="399"/>
      <point x="71" y="409"/>
      <point x="88" y="422" type="curve"/>
      <point x="105" y="422" type="line"/>
      <point x="105" y="221" type="line"/>
    </contour>
  </outline>
</glyph>
<glyph name="onequarter" format="1">
  <advance width="399"/>
  <unicode hex="00BC"/>
  <outline>
    <contour>
      <point x="67" y="-7" type="line"/>
      <point x="309" y="407" type="line"/>
      <point x="345" y="407" type="line"/>
      <point x="103" y="-7" type="line"/>
    </contour>
    <contour>
      <point x="143" y="199" type="line"/>
      <point x="143" y="165" type="line"/>
      <point x="18" y="165" type="line"/>
      <point x="18" y="199" type="line"/>
      <point x="65" y="199" type="line"/>
      <point x="65" y="349" type="line"/>
      <point x="18" y="349" type="line"/>
      <point x="18" y="374" type="line"/>
      <point x="36" y="377"/>
      <point x="66" y="387"/>
      <point x="84" y="399" type="curve"/>
      <point x="101" y="399" type="line"/>
      <point x="101" y="199" type="line"/>
    </contour>
    <contour>
      <point x="324" y="241" type="line"/>
      <point x="310" y="181"/>
      <point x="280" y="115"/>
      <point x="265" y="89" type="curve"/>
      <point x="314" y="89" type="line"/>
      <point x="314" y="142" type="line"/>
      <point x="320" y="156"/>
      <point x="330" y="184"/>
      <point x="335" y="207" type="curve"/>
      <point x="351" y="207" type="line"/>
      <point x="351" y="89" type="line"/>
      <point x="374" y="89" type="line"/>
      <point x="374" y="56" type="line"/>
      <point x="351" y="56" type="line"/>
      <point x="351" y="0" type="line"/>
      <point x="314" y="0" type="line"/>
      <point x="314" y="56" type="line"/>
      <point x="227" y="56" type="line"/>
      <point x="227" y="86" type="line"/>
      <point x="251" y="130"/>
      <point x="273" y="187"/>
      <point x="287" y="241" type="curve"/>
    </contour>
  </outline>
</glyph>
<glyph name="onehalf" format="1">
  <advance width="399"/>
  <unicode hex="00BD"/>
  <outline>
    <contour>
      <point x="61" y="-7" type="line"/>
      <point x="303" y="407" type="line"/>
      <point x="339" y="407" type="line"/>
      <point x="98" y="-7" type="line"/>
    </contour>
    <contour>
      <point x="143" y="199" type="line"/>
      <point x="143" y="165" type="line"/>
      <point x="18" y="165" type="line"/>
      <point x="18" y="199" type="line"/>
      <point x="65" y="199" type="line"/>
      <point x="65" y="349" type="line"/>
      <point x="18" y="349" type="line"/>
      <point x="18" y="374" type="line"/>
      <point x="36" y="377"/>
      <point x="66" y="387"/>
      <point x="84" y="399" type="curve"/>
      <point x="101" y="399" type="line"/>
      <point x="101" y="199" type="line"/>
    </contour>
    <contour>
      <point x="309" y="241" type="curve" smooth="yes"/>
      <point x="344" y="241"/>
      <point x="373" y="223"/>
      <point x="373" y="177" type="curve" smooth="yes"/>
      <point x="373" y="138"/>
      <point x="343" y="105"/>
      <point x="318" y="78" type="curve" smooth="yes"/>
      <point x="315" y="74"/>
      <point x="311" y="71"/>
      <point x="308" y="67" type="curve" smooth="yes"/>
      <point x="299" y="58"/>
      <point x="291" y="48"/>
      <point x="285" y="37" type="curve"/>
      <point x="374" y="37" type="line"/>
      <point x="374" y="0" type="line"/>
      <point x="241" y="0" type="line"/>
      <point x="241" y="9" type="line" smooth="yes"/>
      <point x="241" y="42"/>
      <point x="260" y="67"/>
      <point x="281" y="90" type="curve" smooth="yes"/>
      <point x="284" y="94"/>
      <point x="288" y="98"/>
      <point x="291" y="101" type="curve" smooth="yes"/>
      <point x="313" y="125"/>
      <point x="334" y="148"/>
      <point x="334" y="177" type="curve" smooth="yes"/>
      <point x="334" y="190"/>
      <point x="329" y="206"/>
      <point x="308" y="206" type="curve" smooth="yes"/>
      <point x="289" y="206"/>
      <point x="281" y="188"/>
      <point x="281" y="168" type="curve" smooth="yes"/>
      <point x="281" y="150" type="line"/>
      <point x="244" y="150" type="line"/>
      <point x="244" y="150"/>
      <point x="243" y="159"/>
      <point x="243" y="167" type="curve" smooth="yes"/>
      <point x="243" y="219"/>
      <point x="273" y="241"/>
    </contour>
  </outline>
</glyph>
<glyph name="questiondown" format="1">
  <advance width="292"/>
  <unicode hex="00BF"/>
  <outline>
    <contour>
      <point x="113" y="244" type="line"/>
      <point x="113" y="306" type="line"/>
      <point x="171" y="306" type="line"/>
      <point x="171" y="244" type="line"/>
    </contour>
    <contour>
      <point x="167" y="169" type="line" smooth="yes"/>
      <point x="167" y="129"/>
      <point x="149" y="108"/>
      <point x="130" y="87" type="curve" smooth="yes"/>
      <point x="112" y="67"/>
      <point x="94" y="46"/>
      <point x="94" y="7" type="curve" smooth="yes"/>
      <point x="94" y="-8"/>
      <point x="100" y="-55"/>
      <point x="148" y="-55" type="curve" smooth="yes"/>
      <point x="196" y="-55"/>
      <point x="201" y="-4"/>
      <point x="201" y="23" type="curve" smooth="yes"/>
      <point x="201" y="33"/>
      <point x="200" y="39"/>
      <point x="200" y="39" type="curve"/>
      <point x="252" y="39" type="line"/>
      <point x="252" y="39"/>
      <point x="254" y="26"/>
      <point x="254" y="18" type="curve" smooth="yes"/>
      <point x="254" y="-50"/>
      <point x="218" y="-100"/>
      <point x="144" y="-100" type="curve" smooth="yes"/>
      <point x="85" y="-100"/>
      <point x="41" y="-59"/>
      <point x="41" y="1" type="curve" smooth="yes"/>
      <point x="41" y="61"/>
      <point x="64" y="87"/>
      <point x="85" y="110" type="curve" smooth="yes"/>
      <point x="102" y="129"/>
      <point x="117" y="146"/>
      <point x="117" y="178" type="curve" smooth="yes"/>
      <point x="117" y="202" type="line"/>
      <point x="167" y="202" type="line"/>
    </contour>
  </outline>
</glyph>
<glyph name="Acircumflex" format="1">
  <advance width="319"/>
  <unicode hex="00C2"/>
  <outline>
    <contour>
      <point x="232" y="435" type="line"/>
      <point x="185" y="435" type="line"/>
      <point x="159" y="481" type="line"/>
      <point x="133" y="435" type="line"/>
      <point x="87" y="435" type="line"/>
      <point x="137" y="514" type="line"/>
      <point x="183" y="514" type="line"/>
    </contour>
    <contour>
      <point x="319" y="0" type="line"/>
      <point x="264" y="0" type="line"/>
      <point x="237" y="89" type="line"/>
      <point x="78" y="89" type="line"/>
      <point x="51" y="0" type="line"/>
      <point x="-1" y="0" type="line"/>
      <point x="127" y="399" type="line"/>
      <point x="192" y="399" type="line"/>
    </contour>
    <contour>
      <point x="156" y="358" type="line"/>
      <point x="156" y="358"/>
      <point x="151" y="326"/>
      <point x="147" y="314" type="curve" smooth="yes"/>
      <point x="92" y="136" type="line"/>
      <point x="222" y="136" type="line"/>
      <point x="168" y="314" type="line" smooth="yes"/>
      <point x="163" y="327"/>
      <point x="158" y="358"/>
      <point x="158" y="358" type="curve"/>
    </contour>
  </outline>
</glyph>
<glyph name="Atilde" format="1">
  <advance width="319"/>
  <unicode hex="00C3"/>
  <outline>
    <contour>
      <point x="244" y="515" type="line"/>
      <point x="244" y="488"/>
      <point x="230" y="454"/>
      <point x="194" y="454" type="curve" smooth="yes"/>
      <point x="181" y="454"/>
      <point x="170" y="459"/>
      <point x="159" y="463" type="curve" smooth="yes"/>
      <point x="149" y="468"/>
      <point x="139" y="472"/>
      <point x="128" y="472" type="curve" smooth="yes"/>
      <point x="117" y="472"/>
      <point x="109" y="467"/>
      <point x="108" y="454" type="curve"/>
      <point x="74" y="454" type="line"/>
      <point x="74" y="480"/>
      <point x="88" y="515"/>
      <point x="123" y="515" type="curve" smooth="yes"/>
      <point x="136" y="515"/>
      <point x="147" y="510"/>
      <point x="159" y="506" type="curve" smooth="yes"/>
      <point x="169" y="501"/>
      <point x="179" y="497"/>
      <point x="190" y="497" type="curve" smooth="yes"/>
      <point x="201" y="497"/>
      <point x="208" y="501"/>
      <point x="210" y="515" type="curve"/>
    </contour>
    <contour>
      <point x="319" y="0" type="line"/>
      <point x="264" y="0" type="line"/>
      <point x="237" y="89" type="line"/>
      <point x="78" y="89" type="line"/>
      <point x="51" y="0" type="line"/>
      <point x="-1" y="0" type="line"/>
      <point x="127" y="399" type="line"/>
      <point x="192" y="399" type="line"/>
    </contour>
    <contour>
      <point x="156" y="358" type="line"/>
      <point x="156" y="358"/>
      <point x="151" y="326"/>
      <point x="147" y="314" type="curve" smooth="yes"/>
      <point x="92" y="136" type="line"/>
      <point x="222" y="136" type="line"/>
      <point x="168" y="314" type="line" smooth="yes"/>
      <point x="163" y="327"/>
      <point x="158" y="358"/>
      <point x="158" y="358" type="curve"/>
    </contour>
  </outline>
</glyph>
<glyph name="Edieresis" format="1">
  <advance width="319"/>
  <unicode hex="00CB"/>
  <outline>
    <contour>
      <point x="141" y="459" type="line"/>
      <point x="90" y="459" type="line"/>
      <point x="90" y="515" type="line"/>
      <point x="141" y="515" type="line"/>
    </contour>
    <contour>
      <point x="229" y="459" type="line"/>
      <point x="178" y="459" type="line"/>
      <point x="178" y="515" type="line"/>
      <point x="229" y="515" type="line"/>
    </contour>
    <contour>
      <point x="287" y="353" type="line"/>
      <point x="92" y="353" type="line"/>
      <point x="92" y="228" type="line"/>
      <point x="262" y="228" type="line"/>
      <point x="262" y="181" type="line"/>
      <point x="92" y="181" type="line"/>
      <point x="92" y="47" type="line"/>
      <point x="291" y="47" type="line"/>
      <point x="291" y="0" type="line"/>
      <point x="41" y="0" type="line"/>
      <point x="41" y="399" type="line"/>
      <point x="287" y="399" type="line"/>
    </contour>
  </outline>
</glyph>
<glyph name="Otilde" format="1">
  <advance width="372"/>
  <unicode hex="00D5"/>
  <outline>
    <contour>
      <point x="271" y="515" type="line"/>
      <point x="271" y="488"/>
      <point x="256" y="454"/>
      <point x="221" y="454" type="curve" smooth="yes"/>
      <point x="208" y="454"/>
      <point x="197" y="459"/>
      <point x="186" y="463" type="curve" smooth="yes"/>
      <point x="176" y="468"/>
      <point x="165" y="472"/>
      <point x="154" y="472" type="curve" smooth="yes"/>
      <point x="144" y="472"/>
      <point x="136" y="467"/>
      <point x="134" y="454" type="curve"/>
      <point x="101" y="454" type="line"/>
      <point x="101" y="480"/>
      <point x="115" y="515"/>
      <point x="150" y="515" type="curve" smooth="yes"/>
      <point x="163" y="515"/>
      <point x="174" y="510"/>
      <point x="185" y="506" type="curve" smooth="yes"/>
      <point x="195" y="501"/>
      <point x="206" y="497"/>
      <point x="217" y="497" type="curve" smooth="yes"/>
      <point x="228" y="497"/>
      <point x="235" y="501"/>
      <point x="237" y="515" type="curve"/>
    </contour>
    <contour>
      <point x="186" y="407" type="curve" smooth="yes"/>
      <point x="284" y="407"/>
      <point x="343" y="339"/>
      <point x="343" y="200" type="curve" smooth="yes"/>
      <point x="343" y="61"/>
      <point x="284" y="-7"/>
      <point x="186" y="-7" type="curve" smooth="yes"/>
      <point x="88" y="-7"/>
      <point x="28" y="61"/>
      <point x="28" y="200" type="curve" smooth="yes"/>
      <point x="28" y="339"/>
      <point x="88" y="407"/>
    </contour>
    <contour>
      <point x="186" y="359" type="curve" smooth="yes"/>
      <point x="122" y="359"/>
      <point x="82" y="312"/>
      <point x="82" y="214" type="curve" smooth="yes"/>
      <point x="82" y="185" type="line" smooth="yes"/>
      <point x="82" y="88"/>
      <point x="122" y="40"/>
      <point x="186" y="40" type="curve" smooth="yes"/>
      <point x="250" y="40"/>
      <point x="289" y="88"/>
      <point x="289" y="185" type="curve" smooth="yes"/>
      <point x="289" y="214" type="line" smooth="yes"/>
      <point x="289" y="312"/>
      <point x="250" y="359"/>
    </contour>
  </outline>
</glyph>
<glyph name="multiply" format="1">
  <advance width="279"/>
  <unicode hex="00D7"/>
  <outline>
    <contour>
      <point x="265" y="237" type="line"/>
      <point x="176" y="148" type="line"/>
      <point x="265" y="61" type="line"/>
      <point x="233" y="26" type="line"/>
      <point x="144" y="113" type="line"/>
      <point x="54" y="26" type="line"/>
      <point x="22" y="61" type="line"/>
      <point x="111" y="148" type="line"/>
      <point x="22" y="237" type="line"/>
      <point x="54" y="272" type="line"/>
      <point x="144" y="183" type="line"/>
      <point x="233" y="272" type="line"/>
    </contour>
  </outline>
</glyph>
<glyph name="Oslash" format="1">
  <advance width="372"/>
  <unicode hex="00D8"/>
  <outline>
    <contour>
      <point x="0" y="0" type="move" name="Anchor-1"/>
    </contour>
    <contour>
      <point x="186" y="399" type="move" name="Anchor-0"/>
    </contour>
    <contour>
      <point x="301" y="355" type="line"/>
      <point x="328" y="320"/>
      <point x="343" y="269"/>
      <point x="343" y="200" type="curve" smooth="yes"/>
      <point x="343" y="61"/>
      <point x="284" y="-7"/>
      <point x="186" y="-7" type="curve" smooth="yes"/>
      <point x="149" y="-7"/>
      <point x="118" y="3"/>
      <point x="93" y="22" type="curve"/>
      <point x="67" y="-22" type="line"/>
      <point x="29" y="-22" type="line"/>
      <point x="71" y="44" type="line"/>
      <point x="43" y="78"/>
      <point x="28" y="130"/>
      <point x="28" y="200" type="curve" smooth="yes"/>
      <point x="28" y="339"/>
      <point x="88" y="407"/>
      <point x="186" y="407" type="curve" smooth="yes"/>
      <point x="223" y="407"/>
      <point x="254" y="397"/>
      <point x="279" y="378" type="curve"/>
      <point x="306" y="421" type="line"/>
      <point x="343" y="421" type="line"/>
    </contour>
    <contour>
      <point x="186" y="359" type="curve" smooth="yes"/>
      <point x="122" y="359"/>
      <point x="82" y="312"/>
      <point x="82" y="214" type="curve" smooth="yes"/>
      <point x="82" y="185" type="line" smooth="yes"/>
      <point x="82" y="146"/>
      <point x="88" y="115"/>
      <point x="100" y="92" type="curve"/>
      <point x="252" y="334" type="line"/>
      <point x="234" y="351"/>
      <point x="212" y="359"/>
    </contour>
    <contour>
      <point x="120" y="65" type="line"/>
      <point x="137" y="48"/>
      <point x="159" y="40"/>
      <point x="186" y="40" type="curve" smooth="yes"/>
      <point x="250" y="40"/>
      <point x="289" y="88"/>
      <point x="289" y="185" type="curve" smooth="yes"/>
      <point x="289" y="214" type="line" smooth="yes"/>
      <point x="289" y="253"/>
      <point x="283" y="284"/>
      <point x="272" y="307" type="curve"/>
    </contour>
  </outline>
</glyph>
<glyph name="Udieresis" format="1">
  <advance width="345"/>
  <unicode hex="00DC"/>
  <outline>
    <contour>
      <point x="154" y="459" type="line"/>
      <point x="103" y="459" type="line"/>
      <point x="103" y="515" type="line"/>
      <point x="154" y="515" type="line"/>
    </contour>
    <contour>
      <point x="242" y="459" type="line"/>
      <point x="190" y="459" type="line"/>
      <point x="190" y="515" type="line"/>
      <point x="242" y="515" type="line"/>
    </contour>
    <contour>
      <point x="304" y="130" type="line" smooth="yes"/>
      <point x="304" y="40"/>
      <point x="254" y="-7"/>
      <point x="173" y="-7" type="curve" smooth="yes"/>
      <point x="90" y="-7"/>
      <point x="41" y="40"/>
      <point x="41" y="130" type="curve" smooth="yes"/>
      <point x="41" y="399" type="line"/>
      <point x="92" y="399" type="line"/>
      <point x="92" y="127" type="line" smooth="yes"/>
      <point x="92" y="71"/>
      <point x="123" y="40"/>
      <point x="173" y="40" type="curve" smooth="yes"/>
      <point x="223" y="40"/>
      <point x="253" y="71"/>
      <point x="253" y="127" type="curve" smooth="yes"/>
      <point x="253" y="399" type="line"/>
      <point x="304" y="399" type="line"/>
    </contour>
  </outline>
</glyph>
<glyph name="Thorn" format="1">
  <advance width="319"/>
  <unicode hex="00DE"/>
  <outline>
    <contour>
      <point x="92" y="320" type="line"/>
      <point x="183" y="320" type="line" smooth="yes"/>
      <point x="262" y="320"/>
      <point x="303" y="273"/>
      <point x="303" y="204" type="curve" smooth="yes"/>
      <point x="303" y="133"/>
      <point x="258" y="86"/>
      <point x="183" y="86" type="curve" smooth="yes"/>
      <point x="92" y="86" type="line"/>
      <point x="92" y="0" type="line"/>
      <point x="41" y="0" type="line"/>
      <point x="41" y="399" type="line"/>
      <point x="92" y="399" type="line"/>
    </contour>
    <contour>
      <point x="92" y="273" type="line"/>
      <point x="92" y="132" type="line"/>
      <point x="182" y="132" type="line" smooth="yes"/>
      <point x="223" y="132"/>
      <point x="249" y="161"/>
      <point x="249" y="204" type="curve" smooth="yes"/>
      <point x="249" y="247"/>
      <point x="225" y="273"/>
      <point x="182" y="273" type="curve" smooth="yes"/>
    </contour>
  </outline>
</glyph>
<glyph name="germandbls" format="1">
  <advance width="292"/>
  <unicode hex="00DF"/>
  <outline>
    <contour>
      <point x="148" y="428" type="curve" smooth="yes"/>
      <point x="211" y="428"/>
      <point x="258" y="387"/>
      <point x="258" y="319" type="curve" smooth="yes"/>
      <point x="258" y="281"/>
      <point x="235" y="243"/>
      <point x="202" y="230" type="curve"/>
      <point x="202" y="228" type="line"/>
      <point x="242" y="214"/>
      <point x="270" y="169"/>
      <point x="270" y="125" type="curve" smooth="yes"/>
      <point x="270" y="49"/>
      <point x="218" y="0"/>
      <point x="153" y="0" type="curve" smooth="yes"/>
      <point x="109" y="0" type="line"/>
      <point x="109" y="43" type="line"/>
      <point x="148" y="43" type="line" smooth="yes"/>
      <point x="188" y="43"/>
      <point x="221" y="80"/>
      <point x="221" y="125" type="curve" smooth="yes"/>
      <point x="221" y="168"/>
      <point x="188" y="204"/>
      <point x="148" y="204" type="curve" smooth="yes"/>
      <point x="109" y="204" type="line"/>
      <point x="109" y="246" type="line"/>
      <point x="144" y="246" type="line" smooth="yes"/>
      <point x="179" y="246"/>
      <point x="208" y="279"/>
      <point x="208" y="318" type="curve" smooth="yes"/>
      <point x="208" y="358"/>
      <point x="186" y="386"/>
      <point x="145" y="386" type="curve" smooth="yes"/>
      <point x="103" y="386"/>
      <point x="77" y="357"/>
      <point x="77" y="302" type="curve" smooth="yes"/>
      <point x="77" y="0" type="line"/>
      <point x="29" y="0" type="line"/>
      <point x="29" y="301" type="line" smooth="yes"/>
      <point x="29" y="391"/>
      <point x="82" y="428"/>
    </contour>
  </outline>
</glyph>
<glyph name="atilde" format="1">
  <advance width="266"/>
  <unicode hex="00E3"/>
  <outline>
    <contour>
      <point x="218" y="421" type="line"/>
      <point x="218" y="394"/>
      <point x="204" y="360"/>
      <point x="168" y="360" type="curve" smooth="yes"/>
      <point x="155" y="360"/>
      <point x="144" y="365"/>
      <point x="133" y="370" type="curve" smooth="yes"/>
      <point x="123" y="374"/>
      <point x="112" y="379"/>
      <point x="101" y="379" type="curve" smooth="yes"/>
      <point x="91" y="379"/>
      <point x="83" y="374"/>
      <point x="82" y="360" type="curve"/>
      <point x="47" y="360" type="line"/>
      <point x="47" y="387"/>
      <point x="63" y="421"/>
      <point x="98" y="421" type="curve" smooth="yes"/>
      <point x="111" y="421"/>
      <point x="122" y="416"/>
      <point x="133" y="412" type="curve" smooth="yes"/>
      <point x="143" y="407"/>
      <point x="153" y="403"/>
      <point x="164" y="403" type="curve" smooth="yes"/>
      <point x="175" y="403"/>
      <point x="183" y="408"/>
      <point x="184" y="421" type="curve"/>
    </contour>
    <contour>
      <point x="130" y="314" type="curve" smooth="yes"/>
      <point x="192" y="314"/>
      <point x="223" y="282"/>
      <point x="223" y="228" type="curve" smooth="yes"/>
      <point x="223" y="56" type="line" smooth="yes"/>
      <point x="223" y="42"/>
      <point x="231" y="36"/>
      <point x="239" y="36" type="curve" smooth="yes"/>
      <point x="258" y="36" type="line"/>
      <point x="258" y="3" type="line"/>
      <point x="252" y="-1"/>
      <point x="241" y="-5"/>
      <point x="226" y="-5" type="curve" smooth="yes"/>
      <point x="201" y="-5"/>
      <point x="183" y="11"/>
      <point x="178" y="33" type="curve"/>
      <point x="175" y="33" type="line"/>
      <point x="159" y="8"/>
      <point x="132" y="-7"/>
      <point x="100" y="-7" type="curve" smooth="yes"/>
      <point x="70" y="-7"/>
      <point x="20" y="5"/>
      <point x="20" y="79" type="curve" smooth="yes"/>
      <point x="20" y="163"/>
      <point x="86" y="182"/>
      <point x="175" y="182" type="curve"/>
      <point x="175" y="221" type="line" smooth="yes"/>
      <point x="175" y="250"/>
      <point x="165" y="271"/>
      <point x="127" y="271" type="curve" smooth="yes"/>
      <point x="90" y="271"/>
      <point x="79" y="246"/>
      <point x="79" y="223" type="curve" smooth="yes"/>
      <point x="79" y="215" type="line"/>
      <point x="32" y="215" type="line"/>
      <point x="32" y="229" type="line" smooth="yes"/>
      <point x="32" y="284"/>
      <point x="72" y="314"/>
    </contour>
    <contour>
      <point x="175" y="139" type="line"/>
      <point x="113" y="139"/>
      <point x="70" y="130"/>
      <point x="70" y="82" type="curve" smooth="yes"/>
      <point x="70" y="47"/>
      <point x="84" y="36"/>
      <point x="111" y="36" type="curve" smooth="yes"/>
      <point x="142" y="36"/>
      <point x="175" y="61"/>
      <point x="175" y="111" type="curve" smooth="yes"/>
    </contour>
  </outline>
</glyph>
<glyph name="adieresis" format="1">
  <advance width="266"/>
  <unicode hex="00E4"/>
  <outline>
    <contour>
      <point x="114" y="366" type="line"/>
      <point x="63" y="366" type="line"/>
      <point x="63" y="421" type="line"/>
      <point x="114" y="421" type="line"/>
    </contour>
    <contour>
      <point x="202" y="366" type="line"/>
      <point x="151" y="366" type="line"/>
      <point x="151" y="421" type="line"/>
      <point x="202" y="421" type="line"/>
    </contour>
    <contour>
      <point x="130" y="314" type="curve" smooth="yes"/>
      <point x="192" y="314"/>
      <point x="223" y="282"/>
      <point x="223" y="228" type="curve" smooth="yes"/>
      <point x="223" y="56" type="line" smooth="yes"/>
      <point x="223" y="42"/>
      <point x="231" y="36"/>
      <point x="239" y="36" type="curve" smooth="yes"/>
      <point x="258" y="36" type="line"/>
      <point x="258" y="3" type="line"/>
      <point x="252" y="-1"/>
      <point x="241" y="-5"/>
      <point x="226" y="-5" type="curve" smooth="yes"/>
      <point x="201" y="-5"/>
      <point x="183" y="11"/>
      <point x="178" y="33" type="curve"/>
      <point x="175" y="33" type="line"/>
      <point x="159" y="8"/>
      <point x="132" y="-7"/>
      <point x="100" y="-7" type="curve" smooth="yes"/>
      <point x="70" y="-7"/>
      <point x="20" y="5"/>
      <point x="20" y="79" type="curve" smooth="yes"/>
      <point x="20" y="163"/>
      <point x="86" y="182"/>
      <point x="175" y="182" type="curve"/>
      <point x="175" y="221" type="line" smooth="yes"/>
      <point x="175" y="250"/>
      <point x="165" y="271"/>
      <point x="127" y="271" type="curve" smooth="yes"/>
      <point x="90" y="271"/>
      <point x="79" y="246"/>
      <point x="79" y="223" type="curve" smooth="yes"/>
      <point x="79" y="215" type="line"/>
      <point x="32" y="215" type="line"/>
      <point x="32" y="229" type="line" smooth="yes"/>
      <point x="32" y="284"/>
      <point x="72" y="314"/>
    </contour>
    <contour>
      <point x="175" y="139" type="line"/>
      <point x="113" y="139"/>
      <point x="70" y="130"/>
      <point x="70" y="82" type="curve" smooth="yes"/>
      <point x="70" y="47"/>
      <point x="84" y="36"/>
      <point x="111" y="36" type="curve" smooth="yes"/>
      <point x="142" y="36"/>
      <point x="175" y="61"/>
      <point x="175" y="111" type="curve" smooth="yes"/>
    </contour>
  </outline>
</glyph>
<glyph name="ccedilla" format="1">
  <advance width="239"/>
  <unicode hex="00E7"/>
  <outline>
    <contour>
      <point x="126" y="314" type="curve" smooth="yes"/>
      <point x="192" y="314"/>
      <point x="219" y="271"/>
      <point x="219" y="193" type="curve"/>
      <point x="170" y="193" type="line"/>
      <point x="170" y="246"/>
      <point x="160" y="271"/>
      <point x="126" y="271" type="curve" smooth="yes"/>
      <point x="88" y="271"/>
      <point x="71" y="235"/>
      <point x="71" y="164" type="curve" smooth="yes"/>
      <point x="71" y="142" type="line" smooth="yes"/>
      <point x="71" y="72"/>
      <point x="88" y="36"/>
      <point x="126" y="36" type="curve" smooth="yes"/>
      <point x="160" y="36"/>
      <point x="173" y="63"/>
      <point x="173" y="113" type="curve"/>
      <point x="219" y="113" type="line"/>
      <point x="219" y="51"/>
      <point x="194" y="-5"/>
      <point x="129" y="-7" type="curve"/>
      <point x="127" y="-21" type="line"/>
      <point x="152" y="-22"/>
      <point x="174" y="-32"/>
      <point x="174" y="-59" type="curve" smooth="yes"/>
      <point x="174" y="-98"/>
      <point x="138" y="-106"/>
      <point x="113" y="-106" type="curve" smooth="yes"/>
      <point x="98" y="-106"/>
      <point x="78" y="-104"/>
      <point x="65" y="-101" type="curve"/>
      <point x="65" y="-73" type="line"/>
      <point x="109" y="-73" type="line" smooth="yes"/>
      <point x="122" y="-73"/>
      <point x="130" y="-70"/>
      <point x="130" y="-59" type="curve" smooth="yes"/>
      <point x="130" y="-49"/>
      <point x="125" y="-45"/>
      <point x="110" y="-45" type="curve" smooth="yes"/>
      <point x="91" y="-45" type="line"/>
      <point x="98" y="-3" type="line"/>
      <point x="45" y="9"/>
      <point x="21" y="59"/>
      <point x="21" y="153" type="curve" smooth="yes"/>
      <point x="21" y="264"/>
      <point x="54" y="314"/>
    </contour>
  </outline>
</glyph>
<glyph name="ecircumflex" format="1">
  <advance width="266"/>
  <unicode hex="00EA"/>
  <outline>
    <contour>
      <point x="159" y="342" type="line"/>
      <point x="133" y="388" type="line"/>
      <point x="107" y="342" type="line"/>
      <point x="61" y="342" type="line"/>
      <point x="110" y="420" type="line"/>
      <point x="156" y="420" type="line"/>
      <point x="206" y="342" type="line"/>
    </contour>
    <contour>
      <point x="140" y="314" type="curve" smooth="yes"/>
      <point x="207" y="314"/>
      <point x="241" y="272"/>
      <point x="241" y="169" type="curve" smooth="yes"/>
      <point x="241" y="139" type="line"/>
      <point x="74" y="139" type="line"/>
      <point x="75" y="68"/>
      <point x="96" y="36"/>
      <point x="142" y="36" type="curve" smooth="yes"/>
      <point x="172" y="36"/>
      <point x="193" y="62"/>
      <point x="193" y="104" type="curve"/>
      <point x="241" y="104" type="line"/>
      <point x="241" y="36"/>
      <point x="200" y="-7"/>
      <point x="140" y="-7" type="curve" smooth="yes"/>
      <point x="64" y="-7"/>
      <point x="24" y="40"/>
      <point x="24" y="153" type="curve" smooth="yes"/>
      <point x="24" y="264"/>
      <point x="63" y="314"/>
    </contour>
    <contour>
      <point x="140" y="271" type="curve" smooth="yes"/>
      <point x="98" y="271"/>
      <point x="79" y="241"/>
      <point x="75" y="182" type="curve"/>
      <point x="190" y="182" type="line"/>
      <point x="190" y="240"/>
      <point x="173" y="271"/>
    </contour>
  </outline>
</glyph>
<glyph name="igrave" format="1">
  <advance width="133"/>
  <unicode hex="00EC"/>
  <outline>
    <contour>
      <point x="101" y="344" type="line"/>
      <point x="61" y="344" type="line"/>
      <point x="-2" y="419" type="line"/>
      <point x="-1" y="421" type="line"/>
      <point x="51" y="421" type="line"/>
    </contour>
    <contour>
      <point x="90" y="0" type="line"/>
      <point x="43" y="0" type="line"/>
      <point x="43" y="306" type="line"/>
      <point x="90" y="306" type="line"/>
    </contour>
  </outline>
</glyph>
<glyph name="iacute" format="1">
  <advance width="133"/>
  <unicode hex="00ED"/>
  <outline>
    <contour>
      <point x="134" y="419" type="line"/>
      <point x="72" y="344" type="line"/>
      <point x="32" y="344" type="line"/>
      <point x="82" y="421" type="line"/>
      <point x="134" y="421" type="line"/>
    </contour>
    <contour>
      <point x="90" y="0" type="line"/>
      <point x="43" y="0" type="line"/>
      <point x="43" y="306" type="line"/>
      <point x="90" y="306" type="line"/>
    </contour>
  </outline>
</glyph>
<glyph name="icircumflex" format="1">
  <advance width="133"/>
  <unicode hex="00EE"/>
  <outline>
    <contour>
      <point x="93" y="342" type="line"/>
      <point x="67" y="388" type="line"/>
      <point x="41" y="342" type="line"/>
      <point x="-7" y="342" type="line"/>
      <point x="44" y="420" type="line"/>
      <point x="90" y="420" type="line"/>
      <point x="139" y="342" type="line"/>
    </contour>
    <contour>
      <point x="43" y="0" type="line"/>
      <point x="43" y="306" type="line"/>
      <point x="90" y="306" type="line"/>
      <point x="90" y="0" type="line"/>
    </contour>
  </outline>
</glyph>
<glyph name="ocircumflex" format="1">
  <advance width="266"/>
  <unicode hex="00F4"/>
  <outline>
    <contour>
      <point x="159" y="342" type="line"/>
      <point x="133" y="388" type="line"/>
      <point x="107" y="342" type="line"/>
      <point x="61" y="342" type="line"/>
      <point x="110" y="420" type="line"/>
      <point x="156" y="420" type="line"/>
      <point x="206" y="342" type="line"/>
    </contour>
    <contour>
      <point x="133" y="314" type="curve" smooth="yes"/>
      <point x="204" y="314"/>
      <point x="243" y="264"/>
      <point x="243" y="153" type="curve" smooth="yes"/>
      <point x="243" y="43"/>
      <point x="204" y="-7"/>
      <point x="133" y="-7" type="curve" smooth="yes"/>
      <point x="61" y="-7"/>
      <point x="23" y="43"/>
      <point x="23" y="153" type="curve" smooth="yes"/>
      <point x="23" y="264"/>
      <point x="61" y="314"/>
    </contour>
    <contour>
      <point x="133" y="271" type="curve" smooth="yes"/>
      <point x="93" y="271"/>
      <point x="73" y="235"/>
      <point x="73" y="164" type="curve" smooth="yes"/>
      <point x="73" y="142" type="line" smooth="yes"/>
      <point x="73" y="72"/>
      <point x="93" y="36"/>
      <point x="133" y="36" type="curve" smooth="yes"/>
      <point x="173" y="36"/>
      <point x="192" y="72"/>
      <point x="192" y="142" type="curve" smooth="yes"/>
      <point x="192" y="164" type="line" smooth="yes"/>
      <point x="192" y="235"/>
      <point x="173" y="271"/>
    </contour>
  </outline>
</glyph>
<glyph name="uacute" format="1">
  <advance width="266"/>
  <unicode hex="00FA"/>
  <outline>
    <contour>
      <point x="201" y="419" type="line"/>
      <point x="138" y="344" type="line"/>
      <point x="98" y="344" type="line"/>
      <point x="148" y="421" type="line"/>
      <point x="200" y="421" type="line"/>
    </contour>
    <contour>
      <point x="231" y="0" type="line"/>
      <point x="194" y="0" type="line"/>
      <point x="188" y="36" type="line"/>
      <point x="185" y="36" type="line"/>
      <point x="168" y="5"/>
      <point x="141" y="-7"/>
      <point x="111" y="-7" type="curve" smooth="yes"/>
      <point x="65" y="-7"/>
      <point x="35" y="18"/>
      <point x="35" y="86" type="curve" smooth="yes"/>
      <point x="35" y="306" type="line"/>
      <point x="83" y="306" type="line"/>
      <point x="83" y="89" type="line" smooth="yes"/>
      <point x="83" y="47"/>
      <point x="100" y="36"/>
      <point x="126" y="36" type="curve" smooth="yes"/>
      <point x="156" y="36"/>
      <point x="183" y="67"/>
      <point x="183" y="119" type="curve" smooth="yes"/>
      <point x="183" y="306" type="line"/>
      <point x="231" y="306" type="line"/>
    </contour>
  </outline>
</glyph>
<glyph name="ucircumflex" format="1">
  <advance width="266"/>
  <unicode hex="00FB"/>
  <outline>
    <contour>
      <point x="159" y="342" type="line"/>
      <point x="133" y="388" type="line"/>
      <point x="107" y="342" type="line"/>
      <point x="61" y="342" type="line"/>
      <point x="110" y="420" type="line"/>
      <point x="156" y="420" type="line"/>
      <point x="206" y="342" type="line"/>
    </contour>
    <contour>
      <point x="194" y="0" type="line"/>
      <point x="188" y="36" type="line"/>
      <point x="185" y="36" type="line"/>
      <point x="168" y="5"/>
      <point x="141" y="-7"/>
      <point x="111" y="-7" type="curve" smooth="yes"/>
      <point x="65" y="-7"/>
      <point x="35" y="18"/>
      <point x="35" y="86" type="curve" smooth="yes"/>
      <point x="35" y="306" type="line"/>
      <point x="83" y="306" type="line"/>
      <point x="83" y="89" type="line" smooth="yes"/>
      <point x="83" y="47"/>
      <point x="100" y="36"/>
      <point x="126" y="36" type="curve" smooth="yes"/>
      <point x="156" y="36"/>
      <point x="183" y="67"/>
      <point x="183" y="119" type="curve" smooth="yes"/>
      <point x="183" y="306" type="line"/>
      <point x="231" y="306" type="line"/>
      <point x="231" y="0" type="line"/>
    </contour>
  </outline>
</glyph>
<glyph name="ydieresis" format="1">
  <advance width="239"/>
  <unicode hex="00FF"/>
  <outline>
    <contour>
      <point x="101" y="366" type="line"/>
      <point x="50" y="366" type="line"/>
      <point x="50" y="421" type="line"/>
      <point x="101" y="421" type="line"/>
    </contour>
    <contour>
      <point x="188" y="366" type="line"/>
      <point x="138" y="366" type="line"/>
      <point x="138" y="421" type="line"/>
      <point x="188" y="421" type="line"/>
    </contour>
    <contour>
      <point x="156" y="16" type="line" smooth="yes"/>
      <point x="138" y="-51"/>
      <point x="110" y="-106"/>
      <point x="57" y="-106" type="curve" smooth="yes"/>
      <point x="43" y="-106"/>
      <point x="32" y="-105"/>
      <point x="22" y="-101" type="curve"/>
      <point x="22" y="-68" type="line"/>
      <point x="39" y="-68" type="line" smooth="yes"/>
      <point x="65" y="-68"/>
      <point x="88" y="-53"/>
      <point x="100" y="0" type="curve"/>
      <point x="6" y="306" type="line"/>
      <point x="58" y="306" type="line"/>
      <point x="103" y="149" type="line" smooth="yes"/>
      <point x="107" y="134"/>
      <point x="112" y="119"/>
      <point x="116" y="104" type="curve" smooth="yes"/>
      <point x="119" y="93"/>
      <point x="122" y="81"/>
      <point x="126" y="69" type="curve"/>
      <point x="128" y="69" type="line"/>
      <point x="134" y="96"/>
      <point x="141" y="122"/>
      <point x="148" y="148" type="curve" smooth="yes"/>
      <point x="185" y="306" type="line"/>
      <point x="233" y="306" type="line"/>
    </contour>
  </outline>
</glyph>
<glyph name="Aogonek" format="1">
  <advance width="319"/>
  <unicode hex="0104"/>
  <outline>
    <contour>
      <point x="332" y="-68" type="curve" smooth="yes"/>
      <point x="350" y="-68" type="line"/>
      <point x="350" y="-98" type="line"/>
      <point x="338" y="-103"/>
      <point x="326" y="-106"/>
      <point x="314" y="-106" type="curve" smooth="yes"/>
      <point x="289" y="-106"/>
      <point x="260" y="-94"/>
      <point x="260" y="-53" type="curve" smooth="yes"/>
      <point x="260" y="-29"/>
      <point x="270" y="-16"/>
      <point x="281" y="-3" type="curve" smooth="yes"/>
      <point x="281" y="-2"/>
      <point x="282" y="-1"/>
      <point x="283" y="0" type="curve" smooth="yes"/>
      <point x="264" y="0" type="line"/>
      <point x="237" y="89" type="line"/>
      <point x="78" y="89" type="line"/>
      <point x="51" y="0" type="line"/>
      <point x="-1" y="0" type="line"/>
      <point x="127" y="399" type="line"/>
      <point x="192" y="399" type="line"/>
      <point x="319" y="0" type="line"/>
      <point x="319" y="0"/>
      <point x="318" y="-1"/>
      <point x="318" y="-1" type="curve" smooth="yes"/>
      <point x="312" y="-10"/>
      <point x="305" y="-21"/>
      <point x="305" y="-36" type="curve" smooth="yes"/>
      <point x="305" y="-39"/>
      <point x="305" y="-42"/>
      <point x="306" y="-45" type="curve" smooth="yes"/>
      <point x="308" y="-58"/>
      <point x="316" y="-68"/>
    </contour>
    <contour>
      <point x="92" y="136" type="line"/>
      <point x="222" y="136" type="line"/>
      <point x="168" y="314" type="line" smooth="yes"/>
      <point x="163" y="327"/>
      <point x="158" y="358"/>
      <point x="158" y="358" type="curve"/>
      <point x="156" y="358" type="line"/>
      <point x="156" y="358"/>
      <point x="151" y="326"/>
      <point x="147" y="314" type="curve" smooth="yes"/>
    </contour>
  </outline>
</glyph>
<glyph name="aogonek" format="1">
  <advance width="266"/>
  <unicode hex="0105"/>
  <outline>
    <contour>
      <point x="287" y="-98" type="line"/>
      <point x="275" y="-103"/>
      <point x="264" y="-106"/>
      <point x="252" y="-106" type="curve" smooth="yes"/>
      <point x="227" y="-106"/>
      <point x="197" y="-94"/>
      <point x="197" y="-53" type="curve" smooth="yes"/>
      <point x="197" y="-31"/>
      <point x="204" y="-16"/>
      <point x="214" y="-3" type="curve"/>
      <point x="196" y="1"/>
      <point x="183" y="14"/>
      <point x="178" y="33" type="curve"/>
      <point x="175" y="33" type="line"/>
      <point x="159" y="8"/>
      <point x="132" y="-7"/>
      <point x="100" y="-7" type="curve" smooth="yes"/>
      <point x="70" y="-7"/>
      <point x="20" y="5"/>
      <point x="20" y="79" type="curve" smooth="yes"/>
      <point x="20" y="163"/>
      <point x="86" y="182"/>
      <point x="175" y="182" type="curve"/>
      <point x="175" y="221" type="line" smooth="yes"/>
      <point x="175" y="250"/>
      <point x="165" y="271"/>
      <point x="127" y="271" type="curve" smooth="yes"/>
      <point x="90" y="271"/>
      <point x="79" y="246"/>
      <point x="79" y="223" type="curve" smooth="yes"/>
      <point x="79" y="215" type="line"/>
      <point x="32" y="215" type="line"/>
      <point x="32" y="229" type="line" smooth="yes"/>
      <point x="32" y="284"/>
      <point x="72" y="314"/>
      <point x="130" y="314" type="curve" smooth="yes"/>
      <point x="192" y="314"/>
      <point x="223" y="282"/>
      <point x="223" y="228" type="curve" smooth="yes"/>
      <point x="223" y="56" type="line" smooth="yes"/>
      <point x="223" y="42"/>
      <point x="231" y="36"/>
      <point x="239" y="36" type="curve" smooth="yes"/>
      <point x="258" y="36" type="line"/>
      <point x="258" y="3" type="line"/>
      <point x="250" y="-7"/>
      <point x="243" y="-21"/>
      <point x="243" y="-36" type="curve" smooth="yes"/>
      <point x="243" y="-53"/>
      <point x="249" y="-68"/>
      <point x="269" y="-68" type="curve" smooth="yes"/>
      <point x="287" y="-68" type="line"/>
    </contour>
    <contour>
      <point x="175" y="139" type="line"/>
      <point x="113" y="139"/>
      <point x="70" y="130"/>
      <point x="70" y="82" type="curve" smooth="yes"/>
      <point x="70" y="47"/>
      <point x="84" y="36"/>
      <point x="111" y="36" type="curve" smooth="yes"/>
      <point x="142" y="36"/>
      <point x="175" y="61"/>
      <point x="175" y="111" type="curve" smooth="yes"/>
    </contour>
  </outline>
</glyph>
<glyph name="cacute" format="1">
  <advance width="239"/>
  <unicode hex="0107"/>
  <outline>
    <contour>
      <point x="193" y="419" type="line"/>
      <point x="131" y="344" type="line"/>
      <point x="90" y="344" type="line"/>
      <point x="140" y="421" type="line"/>
      <point x="193" y="421" type="line"/>
    </contour>
    <contour>
      <point x="126" y="314" type="curve" smooth="yes"/>
      <point x="192" y="314"/>
      <point x="219" y="271"/>
      <point x="219" y="193" type="curve"/>
      <point x="170" y="193" type="line"/>
      <point x="170" y="246"/>
      <point x="160" y="271"/>
      <point x="126" y="271" type="curve" smooth="yes"/>
      <point x="88" y="271"/>
      <point x="71" y="235"/>
      <point x="71" y="164" type="curve" smooth="yes"/>
      <point x="71" y="142" type="line" smooth="yes"/>
      <point x="71" y="72"/>
      <point x="88" y="36"/>
      <point x="126" y="36" type="curve" smooth="yes"/>
      <point x="160" y="36"/>
      <point x="173" y="63"/>
      <point x="173" y="113" type="curve"/>
      <point x="219" y="113" type="line"/>
      <point x="219" y="49"/>
      <point x="193" y="-7"/>
      <point x="126" y="-7" type="curve" smooth="yes"/>
      <point x="53" y="-7"/>
      <point x="21" y="43"/>
      <point x="21" y="153" type="curve" smooth="yes"/>
      <point x="21" y="264"/>
      <point x="54" y="314"/>
    </contour>
  </outline>
</glyph>
<glyph name="Ccircumflex" format="1">
  <advance width="345"/>
  <unicode hex="0108"/>
  <outline>
    <contour>
      <point x="198" y="435" type="line"/>
      <point x="173" y="481" type="line"/>
      <point x="146" y="435" type="line"/>
      <point x="100" y="435" type="line"/>
      <point x="150" y="514" type="line"/>
      <point x="195" y="514" type="line"/>
      <point x="245" y="435" type="line"/>
    </contour>
    <contour>
      <point x="182" y="407" type="curve" smooth="yes"/>
      <point x="264" y="407"/>
      <point x="321" y="357"/>
      <point x="321" y="255" type="curve"/>
      <point x="269" y="255" type="line"/>
      <point x="269" y="325"/>
      <point x="234" y="359"/>
      <point x="182" y="359" type="curve" smooth="yes"/>
      <point x="112" y="359"/>
      <point x="78" y="312"/>
      <point x="78" y="214" type="curve" smooth="yes"/>
      <point x="78" y="185" type="line" smooth="yes"/>
      <point x="78" y="88"/>
      <point x="112" y="40"/>
      <point x="182" y="40" type="curve" smooth="yes"/>
      <point x="235" y="40"/>
      <point x="270" y="74"/>
      <point x="270" y="143" type="curve"/>
      <point x="321" y="143" type="line"/>
      <point x="321" y="40"/>
      <point x="264" y="-7"/>
      <point x="182" y="-7" type="curve" smooth="yes"/>
      <point x="78" y="-7"/>
      <point x="24" y="61"/>
      <point x="24" y="200" type="curve" smooth="yes"/>
      <point x="24" y="339"/>
      <point x="78" y="407"/>
    </contour>
  </outline>
</glyph>
<glyph name="Dcroat" format="1">
  <advance width="345"/>
  <unicode hex="0110"/>
  <outline>
    <contour>
      <point x="41" y="225" type="line"/>
      <point x="41" y="399" type="line"/>
      <point x="165" y="399" type="line" smooth="yes"/>
      <point x="259" y="399"/>
      <point x="316" y="334"/>
      <point x="316" y="206" type="curve" smooth="yes"/>
      <point x="316" y="69"/>
      <point x="259" y="0"/>
      <point x="165" y="0" type="curve" smooth="yes"/>
      <point x="41" y="0" type="line"/>
      <point x="41" y="188" type="line"/>
      <point x="3" y="188" type="line"/>
      <point x="3" y="225" type="line"/>
    </contour>
    <contour>
      <point x="92" y="225" type="line"/>
      <point x="183" y="225" type="line"/>
      <point x="183" y="188" type="line"/>
      <point x="92" y="188" type="line"/>
      <point x="92" y="47" type="line"/>
      <point x="160" y="47" type="line" smooth="yes"/>
      <point x="223" y="47"/>
      <point x="263" y="94"/>
      <point x="263" y="191" type="curve" smooth="yes"/>
      <point x="263" y="220" type="line" smooth="yes"/>
      <point x="263" y="309"/>
      <point x="223" y="353"/>
      <point x="160" y="353" type="curve" smooth="yes"/>
      <point x="92" y="353" type="line"/>
    </contour>
  </outline>
</glyph>
<glyph name="Emacron" format="1">
  <advance width="319"/>
  <unicode hex="0112"/>
  <outline>
    <contour>
      <point x="86" y="442" type="line"/>
      <point x="86" y="484" type="line"/>
      <point x="233" y="484" type="line"/>
      <point x="233" y="442" type="line"/>
    </contour>
    <contour>
      <point x="41" y="399" type="line"/>
      <point x="287" y="399" type="line"/>
      <point x="287" y="353" type="line"/>
      <point x="92" y="353" type="line"/>
      <point x="92" y="228" type="line"/>
      <point x="262" y="228" type="line"/>
      <point x="262" y="181" type="line"/>
      <point x="92" y="181" type="line"/>
      <point x="92" y="47" type="line"/>
      <point x="291" y="47" type="line"/>
      <point x="291" y="0" type="line"/>
      <point x="41" y="0" type="line"/>
    </contour>
  </outline>
</glyph>
<glyph name="Gcommaaccent" format="1">
  <advance width="372"/>
  <unicode hex="0122"/>
  <outline>
    <contour>
      <point x="178" y="163" type="line"/>
      <point x="178" y="208" type="line"/>
      <point x="334" y="208" type="line"/>
      <point x="334" y="0" type="line"/>
      <point x="300" y="0" type="line"/>
      <point x="289" y="44" type="line"/>
      <point x="264" y="8"/>
      <point x="229" y="-7"/>
      <point x="186" y="-7" type="curve" smooth="yes"/>
      <point x="85" y="-7"/>
      <point x="28" y="61"/>
      <point x="28" y="200" type="curve" smooth="yes"/>
      <point x="28" y="339"/>
      <point x="89" y="407"/>
      <point x="188" y="407" type="curve" smooth="yes"/>
      <point x="272" y="407"/>
      <point x="334" y="360"/>
      <point x="334" y="264" type="curve"/>
      <point x="281" y="264" type="line"/>
      <point x="281" y="329"/>
      <point x="244" y="359"/>
      <point x="188" y="359" type="curve" smooth="yes"/>
      <point x="123" y="359"/>
      <point x="82" y="312"/>
      <point x="82" y="214" type="curve" smooth="yes"/>
      <point x="82" y="185" type="line" smooth="yes"/>
      <point x="82" y="88"/>
      <point x="119" y="40"/>
      <point x="186" y="40" type="curve" smooth="yes"/>
      <point x="252" y="40"/>
      <point x="281" y="78"/>
      <point x="281" y="154" type="curve" smooth="yes"/>
      <point x="281" y="163" type="line"/>
    </contour>
    <contour>
      <point x="161" y="-88" type="line"/>
      <point x="161" y="-35" type="line"/>
      <point x="211" y="-35" type="line"/>
      <point x="211" y="-84" type="line"/>
      <point x="194" y="-129" type="line"/>
      <point x="168" y="-129" type="line"/>
      <point x="181" y="-88" type="line"/>
    </contour>
  </outline>
</glyph>
<glyph name="Hcircumflex" format="1">
  <advance width="345"/>
  <unicode hex="0124"/>
  <outline>
    <contour>
      <point x="245" y="435" type="line"/>
      <point x="198" y="435" type="line"/>
      <point x="173" y="481" type="line"/>
      <point x="146" y="435" type="line"/>
      <point x="100" y="435" type="line"/>
      <point x="150" y="514" type="line"/>
      <point x="195" y="514" type="line"/>
    </contour>
    <contour>
      <point x="304" y="0" type="line"/>
      <point x="253" y="0" type="line"/>
      <point x="253" y="181" type="line"/>
      <point x="92" y="181" type="line"/>
      <point x="92" y="0" type="line"/>
      <point x="41" y="0" type="line"/>
      <point x="41" y="399" type="line"/>
      <point x="92" y="399" type="line"/>
      <point x="92" y="228" type="line"/>
      <point x="253" y="228" type="line"/>
      <point x="253" y="399" type="line"/>
      <point x="304" y="399" type="line"/>
    </contour>
  </outline>
</glyph>
<glyph name="Hbar" format="1">
  <advance width="345"/>
  <unicode hex="0126"/>
  <outline>
    <contour>
      <point x="304" y="285" type="line"/>
      <point x="304" y="0" type="line"/>
      <point x="253" y="0" type="line"/>
      <point x="253" y="179" type="line"/>
      <point x="92" y="179" type="line"/>
      <point x="92" y="0" type="line"/>
      <point x="41" y="0" type="line"/>
      <point x="41" y="285" type="line"/>
      <point x="12" y="285" type="line"/>
      <point x="12" y="328" type="line"/>
      <point x="41" y="328" type="line"/>
      <point x="41" y="399" type="line"/>
      <point x="92" y="399" type="line"/>
      <point x="92" y="328" type="line"/>
      <point x="253" y="328" type="line"/>
      <point x="253" y="399" type="line"/>
      <point x="304" y="399" type="line"/>
      <point x="304" y="328" type="line"/>
      <point x="333" y="328" type="line"/>
      <point x="333" y="285" type="line"/>
    </contour>
    <contour>
      <point x="253" y="285" type="line"/>
      <point x="92" y="285" type="line"/>
      <point x="92" y="225" type="line"/>
      <point x="253" y="225" type="line"/>
    </contour>
  </outline>
</glyph>
<glyph name="hbar" format="1">
  <advance width="266"/>
  <unicode hex="0127"/>
  <outline>
    <contour>
      <point x="83" y="379" type="line"/>
      <point x="146" y="379" type="line"/>
      <point x="146" y="339" type="line"/>
      <point x="83" y="339" type="line"/>
      <point x="83" y="274" type="line"/>
      <point x="86" y="274" type="line"/>
      <point x="102" y="302"/>
      <point x="125" y="314"/>
      <point x="155" y="314" type="curve" smooth="yes"/>
      <point x="201" y="314"/>
      <point x="231" y="289"/>
      <point x="231" y="221" type="curve" smooth="yes"/>
      <point x="231" y="0" type="line"/>
      <point x="183" y="0" type="line"/>
      <point x="183" y="217" type="line" smooth="yes"/>
      <point x="183" y="260"/>
      <point x="165" y="271"/>
      <point x="140" y="271" type="curve" smooth="yes"/>
      <point x="109" y="271"/>
      <point x="83" y="240"/>
      <point x="83" y="187" type="curve" smooth="yes"/>
      <point x="83" y="0" type="line"/>
      <point x="35" y="0" type="line"/>
      <point x="35" y="339" type="line"/>
      <point x="0" y="339" type="line"/>
      <point x="0" y="379" type="line"/>
      <point x="35" y="379" type="line"/>
      <point x="35" y="421" type="line"/>
      <point x="83" y="421" type="line"/>
    </contour>
  </outline>
</glyph>
<glyph name="Imacron" format="1">
  <advance width="133"/>
  <unicode hex="012A"/>
  <outline>
    <contour>
      <point x="-7" y="442" type="line"/>
      <point x="-7" y="484" type="line"/>
      <point x="140" y="484" type="line"/>
      <point x="140" y="442" type="line"/>
    </contour>
    <contour>
      <point x="41" y="0" type="line"/>
      <point x="41" y="399" type="line"/>
      <point x="92" y="399" type="line"/>
      <point x="92" y="0" type="line"/>
    </contour>
  </outline>
</glyph>
<glyph name="Ibreve" format="1">
  <advance width="133"/>
  <unicode hex="012C"/>
  <outline>
    <contour>
      <point x="138" y="515" type="line"/>
      <point x="138" y="488"/>
      <point x="111" y="458"/>
      <point x="67" y="458" type="curve" smooth="yes"/>
      <point x="22" y="458"/>
      <point x="-6" y="488"/>
      <point x="-6" y="515" type="curve"/>
      <point x="32" y="515" type="line"/>
      <point x="34" y="506"/>
      <point x="47" y="495"/>
      <point x="67" y="495" type="curve" smooth="yes"/>
      <point x="86" y="495"/>
      <point x="100" y="506"/>
      <point x="101" y="515" type="curve"/>
    </contour>
    <contour>
      <point x="41" y="0" type="line"/>
      <point x="41" y="399" type="line"/>
      <point x="92" y="399" type="line"/>
      <point x="92" y="0" type="line"/>
    </contour>
  </outline>
</glyph>
<glyph name="iogonek" format="1">
  <advance width="106"/>
  <unicode hex="012F"/>
  <outline>
    <contour>
      <point x="79" y="366" type="line"/>
      <point x="28" y="366" type="line"/>
      <point x="28" y="421" type="line"/>
      <point x="79" y="421" type="line"/>
    </contour>
    <contour>
      <point x="77" y="0" type="line"/>
      <point x="71" y="-9"/>
      <point x="63" y="-22"/>
      <point x="63" y="-36" type="curve" smooth="yes"/>
      <point x="63" y="-53"/>
      <point x="70" y="-68"/>
      <point x="89" y="-68" type="curve" smooth="yes"/>
      <point x="108" y="-68" type="line"/>
      <point x="108" y="-98" type="line"/>
      <point x="96" y="-103"/>
      <point x="84" y="-106"/>
      <point x="72" y="-106" type="curve" smooth="yes"/>
      <point x="47" y="-106"/>
      <point x="18" y="-94"/>
      <point x="18" y="-53" type="curve" smooth="yes"/>
      <point x="18" y="-29"/>
      <point x="27" y="-13"/>
      <point x="39" y="0" type="curve"/>
      <point x="29" y="0" type="line"/>
      <point x="29" y="306" type="line"/>
      <point x="77" y="306" type="line"/>
    </contour>
  </outline>
</glyph>
<glyph name="Idotaccent" format="1">
  <advance width="133"/>
  <unicode hex="0130"/>
  <outline>
    <contour>
      <point x="42" y="459" type="line"/>
      <point x="42" y="515" type="line"/>
      <point x="92" y="515" type="line"/>
      <point x="92" y="459" type="line"/>
    </contour>
    <contour>
      <point x="41" y="0" type="line"/>
      <point x="41" y="399" type="line"/>
      <point x="92" y="399" type="line"/>
      <point x="92" y="0" type="line"/>
    </contour>
  </outline>
</glyph>
<glyph name="IJ" format="1">
  <advance width="372"/>
  <unicode hex="0132"/>
  <outline>
    <contour>
      <point x="92" y="0" type="line"/>
      <point x="41" y="0" type="line"/>
      <point x="41" y="399" type="line"/>
      <point x="92" y="399" type="line"/>
    </contour>
    <contour>
      <point x="334" y="95" type="line" smooth="yes"/>
      <point x="334" y="28"/>
      <point x="299" y="-7"/>
      <point x="237" y="-7" type="curve" smooth="yes"/>
      <point x="176" y="-7"/>
      <point x="140" y="28"/>
      <point x="140" y="95" type="curve" smooth="yes"/>
      <point x="140" y="121" type="line"/>
      <point x="192" y="121" type="line"/>
      <point x="192" y="92" type="line" smooth="yes"/>
      <point x="192" y="58"/>
      <point x="208" y="40"/>
      <point x="237" y="40" type="curve" smooth="yes"/>
      <point x="266" y="40"/>
      <point x="283" y="58"/>
      <point x="283" y="92" type="curve" smooth="yes"/>
      <point x="283" y="399" type="line"/>
      <point x="334" y="399" type="line"/>
    </contour>
  </outline>
</glyph>
<glyph name="jcircumflex" format="1">
  <advance width="106"/>
  <unicode hex="0135"/>
  <outline>
    <contour>
      <point x="79" y="342" type="line"/>
      <point x="53" y="388" type="line"/>
      <point x="27" y="342" type="line"/>
      <point x="-20" y="342" type="line"/>
      <point x="30" y="420" type="line"/>
      <point x="76" y="420" type="line"/>
      <point x="126" y="342" type="line"/>
    </contour>
    <contour>
      <point x="77" y="-36" type="line" smooth="yes"/>
      <point x="77" y="-71"/>
      <point x="63" y="-106"/>
      <point x="16" y="-106" type="curve" smooth="yes"/>
      <point x="3" y="-106"/>
      <point x="-14" y="-103"/>
      <point x="-24" y="-99" type="curve"/>
      <point x="-24" y="-66" type="line"/>
      <point x="2" y="-66" type="line" smooth="yes"/>
      <point x="20" y="-66"/>
      <point x="29" y="-56"/>
      <point x="29" y="-38" type="curve" smooth="yes"/>
      <point x="29" y="306" type="line"/>
      <point x="77" y="306" type="line"/>
    </contour>
  </outline>
</glyph>
<glyph name="kgreenlandic" format="1">
  <advance width="238"/>
  <unicode hex="0138"/>
  <outline>
    <contour>
      <point x="239" y="0" type="line"/>
      <point x="185" y="0" type="line"/>
      <point x="115" y="140" type="line"/>
      <point x="83" y="104" type="line"/>
      <point x="83" y="0" type="line"/>
      <point x="35" y="0" type="line"/>
      <point x="35" y="306" type="line"/>
      <point x="83" y="306" type="line"/>
      <point x="83" y="164" type="line"/>
      <point x="182" y="306" type="line"/>
      <point x="235" y="306" type="line"/>
      <point x="144" y="181" type="line"/>
    </contour>
  </outline>
</glyph>
<glyph name="Lacute" format="1">
  <advance width="266"/>
  <unicode hex="0139"/>
  <outline>
    <contour>
      <point x="133" y="513" type="line"/>
      <point x="71" y="438" type="line"/>
      <point x="30" y="438" type="line"/>
      <point x="80" y="515" type="line"/>
      <point x="132" y="515" type="line"/>
    </contour>
    <contour>
      <point x="92" y="47" type="line"/>
      <point x="255" y="47" type="line"/>
      <point x="255" y="0" type="line"/>
      <point x="41" y="0" type="line"/>
      <point x="41" y="399" type="line"/>
      <point x="92" y="399" type="line"/>
    </contour>
  </outline>
</glyph>
<glyph name="Lcaron" format="1">
  <advance width="266"/>
  <unicode hex="013D"/>
  <outline>
    <contour>
      <point x="92" y="47" type="line"/>
      <point x="255" y="47" type="line"/>
      <point x="255" y="0" type="line"/>
      <point x="41" y="0" type="line"/>
      <point x="41" y="399" type="line"/>
      <point x="92" y="399" type="line"/>
    </contour>
    <contour>
      <point x="244" y="342" type="line"/>
      <point x="216" y="264" type="line"/>
      <point x="186" y="264" type="line"/>
      <point x="209" y="337" type="line"/>
      <point x="186" y="337" type="line"/>
      <point x="186" y="399" type="line"/>
      <point x="244" y="399" type="line"/>
    </contour>
  </outline>
</glyph>
<glyph name="ldot" format="1">
  <advance width="188"/>
  <unicode hex="0140"/>
  <outline>
    <contour>
      <point x="29" y="0" type="line"/>
      <point x="29" y="421" type="line"/>
      <point x="77" y="421" type="line"/>
      <point x="77" y="0" type="line"/>
    </contour>
    <contour>
      <point x="100" y="168" type="line"/>
      <point x="100" y="233" type="line"/>
      <point x="159" y="233" type="line"/>
      <point x="159" y="168" type="line"/>
    </contour>
  </outline>
</glyph>
<glyph name="lslash" format="1">
  <advance width="106"/>
  <unicode hex="0142"/>
  <outline>
    <contour>
      <point x="128" y="273" type="line"/>
      <point x="128" y="231" type="line"/>
      <point x="77" y="186" type="line"/>
      <point x="77" y="0" type="line"/>
      <point x="29" y="0" type="line"/>
      <point x="29" y="143" type="line"/>
      <point x="-13" y="107" type="line"/>
      <point x="-13" y="148" type="line"/>
      <point x="29" y="185" type="line"/>
      <point x="29" y="421" type="line"/>
      <point x="77" y="421" type="line"/>
      <point x="77" y="228" type="line"/>
    </contour>
  </outline>
</glyph>
<glyph name="Ncommaaccent" format="1">
  <advance width="345"/>
  <unicode hex="0145"/>
  <outline>
    <contour>
      <point x="304" y="0" type="line"/>
      <point x="262" y="0" type="line"/>
      <point x="112" y="254" type="line" smooth="yes"/>
      <point x="102" y="272"/>
      <point x="86" y="308"/>
      <point x="86" y="308" type="curve"/>
      <point x="84" y="308" type="line"/>
      <point x="84" y="308"/>
      <point x="87" y="271"/>
      <point x="87" y="254" type="curve" smooth="yes"/>
      <point x="87" y="0" type="line"/>
      <point x="41" y="0" type="line"/>
      <point x="41" y="399" type="line"/>
      <point x="85" y="399" type="line"/>
      <point x="233" y="148" type="line" smooth="yes"/>
      <point x="243" y="133"/>
      <point x="258" y="95"/>
      <point x="258" y="95" type="curve"/>
      <point x="260" y="96" type="line"/>
      <point x="260" y="96"/>
      <point x="258" y="136"/>
      <point x="258" y="148" type="curve" smooth="yes"/>
      <point x="258" y="399" type="line"/>
      <point x="304" y="399" type="line"/>
    </contour>
    <contour>
      <point x="198" y="-84" type="line"/>
      <point x="181" y="-129" type="line"/>
      <point x="154" y="-129" type="line"/>
      <point x="168" y="-88" type="line"/>
      <point x="148" y="-88" type="line"/>
      <point x="148" y="-35" type="line"/>
      <point x="198" y="-35" type="line"/>
    </contour>
  </outline>
</glyph>
<glyph name="Obreve" format="1">
  <advance width="372"/>
  <unicode hex="014E"/>
  <outline>
    <contour>
      <point x="258" y="515" type="line"/>
      <point x="258" y="488"/>
      <point x="231" y="458"/>
      <point x="186" y="458" type="curve" smooth="yes"/>
      <point x="142" y="458"/>
      <point x="114" y="488"/>
      <point x="114" y="515" type="curve"/>
      <point x="152" y="515" type="line"/>
      <point x="153" y="506"/>
      <point x="167" y="495"/>
      <point x="186" y="495" type="curve" smooth="yes"/>
      <point x="206" y="495"/>
      <point x="219" y="506"/>
      <point x="221" y="515" type="curve"/>
    </contour>
    <contour>
      <point x="186" y="407" type="curve" smooth="yes"/>
      <point x="284" y="407"/>
      <point x="343" y="339"/>
      <point x="343" y="200" type="curve" smooth="yes"/>
      <point x="343" y="61"/>
      <point x="284" y="-7"/>
      <point x="186" y="-7" type="curve" smooth="yes"/>
      <point x="88" y="-7"/>
      <point x="28" y="61"/>
      <point x="28" y="200" type="curve" smooth="yes"/>
      <point x="28" y="339"/>
      <point x="88" y="407"/>
    </contour>
    <contour>
      <point x="186" y="359" type="curve" smooth="yes"/>
      <point x="122" y="359"/>
      <point x="82" y="312"/>
      <point x="82" y="214" type="curve" smooth="yes"/>
      <point x="82" y="185" type="line" smooth="yes"/>
      <point x="82" y="88"/>
      <point x="122" y="40"/>
      <point x="186" y="40" type="curve" smooth="yes"/>
      <point x="250" y="40"/>
      <point x="289" y="88"/>
      <point x="289" y="185" type="curve" smooth="yes"/>
      <point x="289" y="214" type="line" smooth="yes"/>
      <point x="289" y="312"/>
      <point x="250" y="359"/>
    </contour>
  </outline>
</glyph>
<glyph name="OE" format="1">
  <advance width="478"/>
  <unicode hex="0152"/>
  <outline>
    <contour>
      <point x="0" y="0" type="move" name="Anchor-1"/>
    </contour>
    <contour>
      <point x="239" y="399" type="move" name="Anchor-0"/>
    </contour>
    <contour>
      <point x="159" y="407" type="curve" smooth="yes"/>
      <point x="196" y="407"/>
      <point x="226" y="391"/>
      <point x="248" y="360" type="curve"/>
      <point x="248" y="399" type="line"/>
      <point x="453" y="399" type="line"/>
      <point x="453" y="353" type="line"/>
      <point x="299" y="353" type="line"/>
      <point x="299" y="228" type="line"/>
      <point x="427" y="228" type="line"/>
      <point x="427" y="181" type="line"/>
      <point x="299" y="181" type="line"/>
      <point x="299" y="47" type="line"/>
      <point x="457" y="47" type="line"/>
      <point x="457" y="0" type="line"/>
      <point x="248" y="0" type="line"/>
      <point x="248" y="40" type="line"/>
      <point x="226" y="8"/>
      <point x="196" y="-7"/>
      <point x="159" y="-7" type="curve" smooth="yes"/>
      <point x="77" y="-7"/>
      <point x="28" y="61"/>
      <point x="28" y="200" type="curve" smooth="yes"/>
      <point x="28" y="339"/>
      <point x="77" y="407"/>
    </contour>
    <contour>
      <point x="165" y="359" type="curve" smooth="yes"/>
      <point x="113" y="359"/>
      <point x="82" y="312"/>
      <point x="82" y="214" type="curve" smooth="yes"/>
      <point x="82" y="185" type="line" smooth="yes"/>
      <point x="82" y="88"/>
      <point x="113" y="40"/>
      <point x="165" y="40" type="curve" smooth="yes"/>
      <point x="216" y="40"/>
      <point x="248" y="88"/>
      <point x="248" y="185" type="curve" smooth="yes"/>
      <point x="248" y="214" type="line" smooth="yes"/>
      <point x="248" y="312"/>
      <point x="216" y="359"/>
    </contour>
  </outline>
</glyph>
<glyph name="oe" format="1">
  <advance width="451"/>
  <unicode hex="0153"/>
  <outline>
    <contour>
      <point x="0" y="0" type="move" name="Anchor-1"/>
    </contour>
    <contour>
      <point x="225" y="306" type="move" name="Anchor-0"/>
    </contour>
    <contour>
      <point x="316" y="314" type="curve" smooth="yes"/>
      <point x="384" y="314"/>
      <point x="417" y="272"/>
      <point x="417" y="169" type="curve" smooth="yes"/>
      <point x="417" y="139" type="line"/>
      <point x="251" y="139" type="line"/>
      <point x="252" y="68"/>
      <point x="273" y="36"/>
      <point x="318" y="36" type="curve" smooth="yes"/>
      <point x="349" y="36"/>
      <point x="370" y="62"/>
      <point x="370" y="104" type="curve"/>
      <point x="417" y="104" type="line"/>
      <point x="417" y="36"/>
      <point x="376" y="-7"/>
      <point x="317" y="-7" type="curve" smooth="yes"/>
      <point x="275" y="-7"/>
      <point x="244" y="7"/>
      <point x="225" y="38" type="curve"/>
      <point x="208" y="7"/>
      <point x="179" y="-7"/>
      <point x="140" y="-7" type="curve" smooth="yes"/>
      <point x="69" y="-7"/>
      <point x="31" y="43"/>
      <point x="31" y="153" type="curve" smooth="yes"/>
      <point x="31" y="264"/>
      <point x="69" y="314"/>
      <point x="140" y="314" type="curve" smooth="yes"/>
      <point x="179" y="314"/>
      <point x="208" y="299"/>
      <point x="225" y="269" type="curve"/>
      <point x="244" y="299"/>
      <point x="275" y="314"/>
    </contour>
    <contour>
      <point x="140" y="271" type="curve" smooth="yes"/>
      <point x="101" y="271"/>
      <point x="81" y="235"/>
      <point x="81" y="164" type="curve" smooth="yes"/>
      <point x="81" y="142" type="line" smooth="yes"/>
      <point x="81" y="72"/>
      <point x="101" y="36"/>
      <point x="140" y="36" type="curve" smooth="yes"/>
      <point x="180" y="36"/>
      <point x="200" y="72"/>
      <point x="200" y="142" type="curve" smooth="yes"/>
      <point x="200" y="164" type="line" smooth="yes"/>
      <point x="200" y="235"/>
      <point x="180" y="271"/>
    </contour>
    <contour>
      <point x="316" y="271" type="curve" smooth="yes"/>
      <point x="273" y="271"/>
      <point x="256" y="241"/>
      <point x="252" y="182" type="curve"/>
      <point x="367" y="182" type="line"/>
      <point x="367" y="240"/>
      <point x="349" y="271"/>
    </contour>
  </outline>
</glyph>
<glyph name="Racute" format="1">
  <advance width="345"/>
  <unicode hex="0154"/>
  <outline>
    <contour>
      <point x="228" y="513" type="line"/>
      <point x="165" y="438" type="line"/>
      <point x="125" y="438" type="line"/>
      <point x="175" y="515" type="line"/>
      <point x="227" y="515" type="line"/>
    </contour>
    <contour>
      <point x="202" y="399" type="line" smooth="yes"/>
      <point x="280" y="399"/>
      <point x="321" y="355"/>
      <point x="321" y="289" type="curve" smooth="yes"/>
      <point x="321" y="239"/>
      <point x="295" y="201"/>
      <point x="250" y="186" type="curve"/>
      <point x="330" y="0" type="line"/>
      <point x="273" y="0" type="line"/>
      <point x="199" y="177" type="line"/>
      <point x="92" y="177" type="line"/>
      <point x="92" y="0" type="line"/>
      <point x="41" y="0" type="line"/>
      <point x="41" y="399" type="line"/>
    </contour>
    <contour>
      <point x="92" y="353" type="line"/>
      <point x="92" y="223" type="line"/>
      <point x="200" y="223" type="line" smooth="yes"/>
      <point x="241" y="223"/>
      <point x="268" y="249"/>
      <point x="268" y="289" type="curve" smooth="yes"/>
      <point x="268" y="329"/>
      <point x="244" y="353"/>
      <point x="200" y="353" type="curve" smooth="yes"/>
    </contour>
  </outline>
</glyph>
<glyph name="rcommaaccent" format="1">
  <advance width="159"/>
  <unicode hex="0157"/>
  <outline>
    <contour>
      <point x="133" y="314" type="curve" smooth="yes"/>
      <point x="146" y="314"/>
      <point x="156" y="309"/>
      <point x="156" y="309" type="curve"/>
      <point x="156" y="259" type="line"/>
      <point x="140" y="259" type="line" smooth="yes"/>
      <point x="109" y="259"/>
      <point x="83" y="241"/>
      <point x="83" y="187" type="curve" smooth="yes"/>
      <point x="83" y="0" type="line"/>
      <point x="35" y="0" type="line"/>
      <point x="35" y="306" type="line"/>
      <point x="71" y="306" type="line"/>
      <point x="78" y="266" type="line"/>
      <point x="81" y="266" type="line"/>
      <point x="88" y="289"/>
      <point x="103" y="314"/>
    </contour>
    <contour>
      <point x="72" y="-129" type="line"/>
      <point x="45" y="-129" type="line"/>
      <point x="59" y="-88" type="line"/>
      <point x="38" y="-88" type="line"/>
      <point x="38" y="-35" type="line"/>
      <point x="88" y="-35" type="line"/>
      <point x="88" y="-84" type="line"/>
    </contour>
  </outline>
</glyph>
<glyph name="rcaron" format="1">
  <advance width="159"/>
  <unicode hex="0159"/>
  <outline>
    <contour>
      <point x="48" y="343" type="line"/>
      <point x="-2" y="421" type="line"/>
      <point x="45" y="421" type="line"/>
      <point x="71" y="375" type="line"/>
      <point x="98" y="421" type="line"/>
      <point x="144" y="421" type="line"/>
      <point x="94" y="343" type="line"/>
    </contour>
    <contour>
      <point x="133" y="314" type="curve" smooth="yes"/>
      <point x="146" y="314"/>
      <point x="156" y="309"/>
      <point x="156" y="309" type="curve"/>
      <point x="156" y="259" type="line"/>
      <point x="140" y="259" type="line" smooth="yes"/>
      <point x="109" y="259"/>
      <point x="83" y="241"/>
      <point x="83" y="187" type="curve" smooth="yes"/>
      <point x="83" y="0" type="line"/>
      <point x="35" y="0" type="line"/>
      <point x="35" y="306" type="line"/>
      <point x="71" y="306" type="line"/>
      <point x="78" y="266" type="line"/>
      <point x="81" y="266" type="line"/>
      <point x="88" y="289"/>
      <point x="103" y="314"/>
    </contour>
  </outline>
</glyph>
<glyph name="scircumflex" format="1">
  <advance width="239"/>
  <unicode hex="015D"/>
  <outline>
    <contour>
      <point x="192" y="342" type="line"/>
      <point x="146" y="342" type="line"/>
      <point x="120" y="388" type="line"/>
      <point x="94" y="342" type="line"/>
      <point x="47" y="342" type="line"/>
      <point x="98" y="420" type="line"/>
      <point x="143" y="420" type="line"/>
    </contour>
    <contour>
      <point x="122" y="314" type="curve" smooth="yes"/>
      <point x="179" y="314"/>
      <point x="210" y="275"/>
      <point x="210" y="229" type="curve" smooth="yes"/>
      <point x="210" y="226"/>
      <point x="210" y="223"/>
      <point x="209" y="220" type="curve" smooth="yes"/>
      <point x="209" y="219"/>
      <point x="209" y="218"/>
      <point x="209" y="218" type="curve"/>
      <point x="159" y="218" type="line"/>
      <point x="159" y="223" type="line" smooth="yes"/>
      <point x="159" y="248"/>
      <point x="150" y="272"/>
      <point x="117" y="272" type="curve" smooth="yes"/>
      <point x="83" y="272"/>
      <point x="76" y="246"/>
      <point x="76" y="229" type="curve" smooth="yes"/>
      <point x="76" y="200"/>
      <point x="102" y="192"/>
      <point x="131" y="181" type="curve" smooth="yes"/>
      <point x="170" y="168"/>
      <point x="215" y="153"/>
      <point x="215" y="88" type="curve" smooth="yes"/>
      <point x="215" y="22"/>
      <point x="174" y="-7"/>
      <point x="118" y="-7" type="curve" smooth="yes"/>
      <point x="47" y="-7"/>
      <point x="19" y="38"/>
      <point x="19" y="83" type="curve" smooth="yes"/>
      <point x="19" y="88"/>
      <point x="19" y="91"/>
      <point x="20" y="94" type="curve" smooth="yes"/>
      <point x="20" y="95"/>
      <point x="20" y="95"/>
      <point x="20" y="96" type="curve" smooth="yes"/>
      <point x="70" y="96" type="line"/>
      <point x="70" y="90" type="line" smooth="yes"/>
      <point x="70" y="51"/>
      <point x="92" y="35"/>
      <point x="120" y="35" type="curve" smooth="yes"/>
      <point x="145" y="35"/>
      <point x="166" y="51"/>
      <point x="166" y="80" type="curve" smooth="yes"/>
      <point x="166" y="116"/>
      <point x="137" y="126"/>
      <point x="105" y="138" type="curve" smooth="yes"/>
      <point x="67" y="151"/>
      <point x="26" y="166"/>
      <point x="26" y="226" type="curve" smooth="yes"/>
      <point x="26" y="280"/>
      <point x="63" y="314"/>
    </contour>
  </outline>
</glyph>
<glyph name="uni0162" format="1">
  <advance width="292"/>
  <unicode hex="0162"/>
  <outline>
    <contour>
      <point x="146" y="0" type="move" name="Anchor-1"/>
    </contour>
    <contour>
      <point x="146" y="399" type="move" name="Anchor-0"/>
    </contour>
    <contour>
      <point x="171" y="0" type="line"/>
      <point x="157" y="0" type="line"/>
      <point x="153" y="-21" type="line"/>
      <point x="178" y="-22"/>
      <point x="200" y="-32"/>
      <point x="200" y="-59" type="curve" smooth="yes"/>
      <point x="200" y="-98"/>
      <point x="164" y="-106"/>
      <point x="140" y="-106" type="curve" smooth="yes"/>
      <point x="123" y="-106"/>
      <point x="105" y="-104"/>
      <point x="91" y="-101" type="curve"/>
      <point x="91" y="-73" type="line"/>
      <point x="135" y="-73" type="line" smooth="yes"/>
      <point x="148" y="-73"/>
      <point x="156" y="-70"/>
      <point x="156" y="-59" type="curve" smooth="yes"/>
      <point x="156" y="-49"/>
      <point x="152" y="-45"/>
      <point x="137" y="-45" type="curve" smooth="yes"/>
      <point x="117" y="-45" type="line"/>
      <point x="124" y="0" type="line"/>
      <point x="120" y="0" type="line"/>
      <point x="120" y="353" type="line"/>
      <point x="11" y="353" type="line"/>
      <point x="11" y="399" type="line"/>
      <point x="280" y="399" type="line"/>
      <point x="280" y="353" type="line"/>
      <point x="171" y="353" type="line"/>
    </contour>
  </outline>
</glyph>
<glyph name="uni0163" format="1">
  <advance width="133"/>
  <unicode hex="0163"/>
  <outline>
    <contour>
      <point x="78" y="0" type="move" name="Anchor-1"/>
    </contour>
    <contour>
      <point x="0" y="0" type="move" name="Anchor-0"/>
    </contour>
    <contour>
      <point x="85" y="-21" type="line"/>
      <point x="110" y="-22"/>
      <point x="132" y="-32"/>
      <point x="132" y="-59" type="curve" smooth="yes"/>
      <point x="132" y="-98"/>
      <point x="96" y="-106"/>
      <point x="72" y="-106" type="curve" smooth="yes"/>
      <point x="55" y="-106"/>
      <point x="37" y="-104"/>
      <point x="23" y="-101" type="curve"/>
      <point x="23" y="-73" type="line"/>
      <point x="67" y="-73" type="line" smooth="yes"/>
      <point x="80" y="-73"/>
      <point x="88" y="-70"/>
      <point x="88" y="-59" type="curve" smooth="yes"/>
      <point x="88" y="-49"/>
      <point x="84" y="-45"/>
      <point x="69" y="-45" type="curve" smooth="yes"/>
      <point x="49" y="-45" type="line"/>
      <point x="57" y="4" type="line"/>
      <point x="40" y="17"/>
      <point x="34" y="41"/>
      <point x="34" y="65" type="curve" smooth="yes"/>
      <point x="34" y="264" type="line"/>
      <point x="8" y="264" type="line"/>
      <point x="8" y="306" type="line"/>
      <point x="34" y="306" type="line"/>
      <point x="45" y="391" type="line"/>
      <point x="82" y="391" type="line"/>
      <point x="82" y="306" type="line"/>
      <point x="123" y="306" type="line"/>
      <point x="123" y="264" type="line"/>
      <point x="82" y="264" type="line"/>
      <point x="82" y="63" type="line" smooth="yes"/>
      <point x="82" y="45"/>
      <point x="92" y="36"/>
      <point x="109" y="36" type="curve" smooth="yes"/>
      <point x="123" y="36" type="line"/>
      <point x="123" y="3" type="line"/>
      <point x="115" y="-3"/>
      <point x="101" y="-6"/>
      <point x="88" y="-6" type="curve"/>
    </contour>
  </outline>
</glyph>
<glyph name="Tcaron" format="1">
  <advance width="292"/>
  <unicode hex="0164"/>
  <outline>
    <contour>
      <point x="168" y="436" type="line"/>
      <point x="123" y="436" type="line"/>
      <point x="73" y="515" type="line"/>
      <point x="120" y="515" type="line"/>
      <point x="146" y="469" type="line"/>
      <point x="172" y="515" type="line"/>
      <point x="218" y="515" type="line"/>
    </contour>
    <contour>
      <point x="280" y="353" type="line"/>
      <point x="171" y="353" type="line"/>
      <point x="171" y="0" type="line"/>
      <point x="120" y="0" type="line"/>
      <point x="120" y="353" type="line"/>
      <point x="11" y="353" type="line"/>
      <point x="11" y="399" type="line"/>
      <point x="280" y="399" type="line"/>
    </contour>
  </outline>
</glyph>
<glyph name="utilde" format="1">
  <advance width="266"/>
  <unicode hex="0169"/>
  <outline>
    <contour>
      <point x="218" y="421" type="line"/>
      <point x="218" y="394"/>
      <point x="204" y="360"/>
      <point x="168" y="360" type="curve" smooth="yes"/>
      <point x="155" y="360"/>
      <point x="144" y="365"/>
      <point x="133" y="370" type="curve" smooth="yes"/>
      <point x="123" y="374"/>
      <point x="112" y="379"/>
      <point x="101" y="379" type="curve" smooth="yes"/>
      <point x="91" y="379"/>
      <point x="83" y="374"/>
      <point x="82" y="360" type="curve"/>
      <point x="47" y="360" type="line"/>
      <point x="47" y="387"/>
      <point x="63" y="421"/>
      <point x="98" y="421" type="curve" smooth="yes"/>
      <point x="111" y="421"/>
      <point x="122" y="416"/>
      <point x="133" y="412" type="curve" smooth="yes"/>
      <point x="143" y="407"/>
      <point x="153" y="403"/>
      <point x="164" y="403" type="curve" smooth="yes"/>
      <point x="175" y="403"/>
      <point x="183" y="408"/>
      <point x="184" y="421" type="curve"/>
    </contour>
    <contour>
      <point x="194" y="0" type="line"/>
      <point x="188" y="36" type="line"/>
      <point x="185" y="36" type="line"/>
      <point x="168" y="5"/>
      <point x="141" y="-7"/>
      <point x="111" y="-7" type="curve" smooth="yes"/>
      <point x="65" y="-7"/>
      <point x="35" y="18"/>
      <point x="35" y="86" type="curve" smooth="yes"/>
      <point x="35" y="306" type="line"/>
      <point x="83" y="306" type="line"/>
      <point x="83" y="89" type="line" smooth="yes"/>
      <point x="83" y="47"/>
      <point x="100" y="36"/>
      <point x="126" y="36" type="curve" smooth="yes"/>
      <point x="156" y="36"/>
      <point x="183" y="67"/>
      <point x="183" y="119" type="curve" smooth="yes"/>
      <point x="183" y="306" type="line"/>
      <point x="231" y="306" type="line"/>
      <point x="231" y="0" type="line"/>
    </contour>
  </outline>
</glyph>
<glyph name="Ubreve" format="1">
  <advance width="345"/>
  <unicode hex="016C"/>
  <outline>
    <contour>
      <point x="244" y="515" type="line"/>
      <point x="244" y="488"/>
      <point x="217" y="458"/>
      <point x="173" y="458" type="curve" smooth="yes"/>
      <point x="128" y="458"/>
      <point x="100" y="488"/>
      <point x="100" y="515" type="curve"/>
      <point x="138" y="515" type="line"/>
      <point x="140" y="506"/>
      <point x="153" y="495"/>
      <point x="173" y="495" type="curve" smooth="yes"/>
      <point x="192" y="495"/>
      <point x="206" y="506"/>
      <point x="208" y="515" type="curve"/>
    </contour>
    <contour>
      <point x="304" y="130" type="line" smooth="yes"/>
      <point x="304" y="40"/>
      <point x="254" y="-7"/>
      <point x="173" y="-7" type="curve" smooth="yes"/>
      <point x="90" y="-7"/>
      <point x="41" y="40"/>
      <point x="41" y="130" type="curve" smooth="yes"/>
      <point x="41" y="399" type="line"/>
      <point x="92" y="399" type="line"/>
      <point x="92" y="127" type="line" smooth="yes"/>
      <point x="92" y="71"/>
      <point x="123" y="40"/>
      <point x="173" y="40" type="curve" smooth="yes"/>
      <point x="223" y="40"/>
      <point x="253" y="71"/>
      <point x="253" y="127" type="curve" smooth="yes"/>
      <point x="253" y="399" type="line"/>
      <point x="304" y="399" type="line"/>
    </contour>
  </outline>
</glyph>
<glyph name="uring" format="1">
  <advance width="266"/>
  <unicode hex="016F"/>
  <outline>
    <contour>
      <point x="133" y="440" type="curve" smooth="yes"/>
      <point x="164" y="440"/>
      <point x="188" y="414"/>
      <point x="188" y="384" type="curve" smooth="yes"/>
      <point x="188" y="353"/>
      <point x="163" y="328"/>
      <point x="133" y="328" type="curve" smooth="yes"/>
      <point x="103" y="328"/>
      <point x="77" y="352"/>
      <point x="77" y="384" type="curve" smooth="yes"/>
      <point x="77" y="415"/>
      <point x="102" y="440"/>
    </contour>
    <contour>
      <point x="133" y="413" type="curve" smooth="yes"/>
      <point x="117" y="413"/>
      <point x="103" y="400"/>
      <point x="103" y="384" type="curve" smooth="yes"/>
      <point x="103" y="368"/>
      <point x="117" y="354"/>
      <point x="133" y="354" type="curve" smooth="yes"/>
      <point x="148" y="354"/>
      <point x="163" y="368"/>
      <point x="163" y="384" type="curve" smooth="yes"/>
      <point x="163" y="400"/>
      <point x="148" y="413"/>
    </contour>
    <contour>
      <point x="194" y="0" type="line"/>
      <point x="188" y="36" type="line"/>
      <point x="185" y="36" type="line"/>
      <point x="168" y="5"/>
      <point x="141" y="-7"/>
      <point x="111" y="-7" type="curve" smooth="yes"/>
      <point x="65" y="-7"/>
      <point x="35" y="18"/>
      <point x="35" y="86" type="curve" smooth="yes"/>
      <point x="35" y="306" type="line"/>
      <point x="83" y="306" type="line"/>
      <point x="83" y="89" type="line" smooth="yes"/>
      <point x="83" y="47"/>
      <point x="100" y="36"/>
      <point x="126" y="36" type="curve" smooth="yes"/>
      <point x="156" y="36"/>
      <point x="183" y="67"/>
      <point x="183" y="119" type="curve" smooth="yes"/>
      <point x="183" y="306" type="line"/>
      <point x="231" y="306" type="line"/>
      <point x="231" y="0" type="line"/>
    </contour>
  </outline>
</glyph>
<glyph name="uogonek" format="1">
  <advance width="266"/>
  <unicode hex="0173"/>
  <outline>
    <contour>
      <point x="243" y="-68" type="curve" smooth="yes"/>
      <point x="262" y="-68" type="line"/>
      <point x="262" y="-98" type="line"/>
      <point x="249" y="-103"/>
      <point x="238" y="-106"/>
      <point x="226" y="-106" type="curve" smooth="yes"/>
      <point x="201" y="-106"/>
      <point x="171" y="-94"/>
      <point x="171" y="-53" type="curve" smooth="yes"/>
      <point x="171" y="-28"/>
      <point x="182" y="-11"/>
      <point x="194" y="3" type="curve"/>
      <point x="188" y="36" type="line"/>
      <point x="185" y="36" type="line"/>
      <point x="168" y="5"/>
      <point x="141" y="-7"/>
      <point x="111" y="-7" type="curve" smooth="yes"/>
      <point x="65" y="-7"/>
      <point x="35" y="18"/>
      <point x="35" y="86" type="curve" smooth="yes"/>
      <point x="35" y="306" type="line"/>
      <point x="83" y="306" type="line"/>
      <point x="83" y="89" type="line" smooth="yes"/>
      <point x="83" y="47"/>
      <point x="100" y="36"/>
      <point x="126" y="36" type="curve" smooth="yes"/>
      <point x="156" y="36"/>
      <point x="183" y="67"/>
      <point x="183" y="119" type="curve" smooth="yes"/>
      <point x="183" y="306" type="line"/>
      <point x="231" y="306" type="line"/>
      <point x="231" y="0" type="line"/>
      <point x="224" y="-9"/>
      <point x="217" y="-22"/>
      <point x="217" y="-36" type="curve" smooth="yes"/>
      <point x="217" y="-53"/>
      <point x="223" y="-68"/>
    </contour>
  </outline>
</glyph>
<glyph name="Ycircumflex" format="1">
  <advance width="319"/>
  <unicode hex="0176"/>
  <outline>
    <contour>
      <point x="185" y="435" type="line"/>
      <point x="159" y="481" type="line"/>
      <point x="133" y="435" type="line"/>
      <point x="87" y="435" type="line"/>
      <point x="137" y="514" type="line"/>
      <point x="183" y="514" type="line"/>
      <point x="232" y="435" type="line"/>
    </contour>
    <contour>
      <point x="185" y="0" type="line"/>
      <point x="134" y="0" type="line"/>
      <point x="134" y="165" type="line"/>
      <point x="5" y="399" type="line"/>
      <point x="61" y="399" type="line"/>
      <point x="163" y="214" type="line"/>
      <point x="165" y="214" type="line"/>
      <point x="264" y="399" type="line"/>
      <point x="314" y="399" type="line"/>
      <point x="185" y="165" type="line"/>
    </contour>
  </outline>
</glyph>
<glyph name="Zacute" format="1">
  <advance width="292"/>
  <unicode hex="0179"/>
  <outline>
    <contour>
      <point x="214" y="513" type="line"/>
      <point x="152" y="438" type="line"/>
      <point x="111" y="438" type="line"/>
      <point x="161" y="515" type="line"/>
      <point x="214" y="515" type="line"/>
    </contour>
    <contour>
      <point x="275" y="378" type="line"/>
      <point x="84" y="47" type="line"/>
      <point x="279" y="47" type="line"/>
      <point x="279" y="0" type="line"/>
      <point x="12" y="0" type="line"/>
      <point x="12" y="22" type="line"/>
      <point x="202" y="353" type="line"/>
      <point x="24" y="353" type="line"/>
      <point x="24" y="399" type="line"/>
      <point x="275" y="399" type="line"/>
    </contour>
  </outline>
</glyph>
<glyph name="zacute" format="1">
  <advance width="239"/>
  <unicode hex="017A"/>
  <outline>
    <contour>
      <point x="188" y="419" type="line"/>
      <point x="125" y="344" type="line"/>
      <point x="85" y="344" type="line"/>
      <point x="134" y="421" type="line"/>
      <point x="187" y="421" type="line"/>
    </contour>
    <contour>
      <point x="215" y="284" type="line"/>
      <point x="80" y="43" type="line"/>
      <point x="223" y="43" type="line"/>
      <point x="223" y="0" type="line"/>
      <point x="15" y="0" type="line"/>
      <point x="15" y="22" type="line"/>
      <point x="150" y="264" type="line"/>
      <point x="24" y="264" type="line"/>
      <point x="24" y="306" type="line"/>
      <point x="215" y="306" type="line"/>
    </contour>
  </outline>
</glyph>
<glyph name="Zdotaccent" format="1">
  <advance width="292"/>
  <unicode hex="017B"/>
  <outline>
    <contour>
      <point x="171" y="459" type="line"/>
      <point x="121" y="459" type="line"/>
      <point x="121" y="515" type="line"/>
      <point x="171" y="515" type="line"/>
    </contour>
    <contour>
      <point x="275" y="378" type="line"/>
      <point x="84" y="47" type="line"/>
      <point x="279" y="47" type="line"/>
      <point x="279" y="0" type="line"/>
      <point x="12" y="0" type="line"/>
      <point x="12" y="22" type="line"/>
      <point x="202" y="353" type="line"/>
      <point x="24" y="353" type="line"/>
      <point x="24" y="399" type="line"/>
      <point x="275" y="399" type="line"/>
    </contour>
  </outline>
</glyph>
<glyph name="zcaron" format="1">
  <advance width="239"/>
  <unicode hex="017E"/>
  <outline>
    <contour>
      <point x="97" y="343" type="line"/>
      <point x="47" y="421" type="line"/>
      <point x="94" y="421" type="line"/>
      <point x="119" y="375" type="line"/>
      <point x="146" y="421" type="line"/>
      <point x="192" y="421" type="line"/>
      <point x="142" y="343" type="line"/>
    </contour>
    <contour>
      <point x="80" y="43" type="line"/>
      <point x="223" y="43" type="line"/>
      <point x="223" y="0" type="line"/>
      <point x="15" y="0" type="line"/>
      <point x="15" y="22" type="line"/>
      <point x="150" y="264" type="line"/>
      <point x="24" y="264" type="line"/>
      <point x="24" y="306" type="line"/>
      <point x="215" y="306" type="line"/>
      <point x="215" y="284" type="line"/>
    </contour>
  </outline>
</glyph>
<glyph name="florin" format="1">
  <advance width="266"/>
  <unicode hex="0192"/>
  <outline>
    <contour>
      <point x="206" y="426" type="curve" smooth="yes"/>
      <point x="219" y="426"/>
      <point x="235" y="422"/>
      <point x="244" y="419" type="curve"/>
      <point x="239" y="386" type="line"/>
      <point x="214" y="386" type="line" smooth="yes"/>
      <point x="196" y="386"/>
      <point x="184" y="376"/>
      <point x="183" y="358" type="curve" smooth="yes"/>
      <point x="170" y="277" type="line"/>
      <point x="223" y="277" type="line"/>
      <point x="217" y="234" type="line"/>
      <point x="163" y="234" type="line"/>
      <point x="125" y="-36" type="line" smooth="yes"/>
      <point x="119" y="-77"/>
      <point x="100" y="-106"/>
      <point x="53" y="-106" type="curve" smooth="yes"/>
      <point x="40" y="-106"/>
      <point x="24" y="-103"/>
      <point x="16" y="-99" type="curve"/>
      <point x="20" y="-66" type="line"/>
      <point x="45" y="-66" type="line" smooth="yes"/>
      <point x="63" y="-66"/>
      <point x="75" y="-56"/>
      <point x="76" y="-38" type="curve" smooth="yes"/>
      <point x="116" y="234" type="line"/>
      <point x="74" y="234" type="line"/>
      <point x="81" y="277" type="line"/>
      <point x="123" y="277" type="line"/>
      <point x="134" y="355" type="line" smooth="yes"/>
      <point x="141" y="397"/>
      <point x="159" y="426"/>
    </contour>
  </outline>
</glyph>
<glyph name="AEacute" format="1">
  <advance width="478"/>
  <unicode hex="01FC"/>
  <outline>
    <contour>
      <point x="364" y="513" type="line"/>
      <point x="301" y="438" type="line"/>
      <point x="261" y="438" type="line"/>
      <point x="311" y="515" type="line"/>
      <point x="364" y="515" type="line"/>
    </contour>
    <contour>
      <point x="453" y="353" type="line"/>
      <point x="239" y="353" type="line"/>
      <point x="268" y="228" type="line"/>
      <point x="427" y="228" type="line"/>
      <point x="427" y="181" type="line"/>
      <point x="278" y="181" type="line"/>
      <point x="308" y="47" type="line"/>
      <point x="456" y="47" type="line"/>
      <point x="456" y="0" type="line"/>
      <point x="264" y="0" type="line"/>
      <point x="244" y="89" type="line"/>
      <point x="85" y="89" type="line"/>
      <point x="51" y="0" type="line"/>
      <point x="-1" y="0" type="line"/>
      <point x="163" y="399" type="line"/>
      <point x="453" y="399" type="line"/>
    </contour>
    <contour>
      <point x="186" y="353" type="line" smooth="yes"/>
      <point x="185" y="351"/>
      <point x="185" y="349"/>
      <point x="184" y="348" type="curve" smooth="yes"/>
      <point x="181" y="337"/>
      <point x="178" y="327"/>
      <point x="173" y="316" type="curve" smooth="yes"/>
      <point x="103" y="136" type="line"/>
      <point x="234" y="136" type="line"/>
      <point x="194" y="316" type="line"/>
      <point x="188" y="353" type="line"/>
    </contour>
  </outline>
</glyph>
<glyph name="Scommaaccent" format="1">
  <advance width="319"/>
  <unicode hex="0218"/>
  <outline>
    <contour>
      <point x="159" y="0" type="move" name="Anchor-1"/>
    </contour>
    <contour>
      <point x="159" y="399" type="move" name="Anchor-0"/>
    </contour>
    <contour>
      <point x="159" y="407" type="curve" smooth="yes"/>
      <point x="229" y="407"/>
      <point x="284" y="374"/>
      <point x="284" y="294" type="curve" smooth="yes"/>
      <point x="284" y="287" type="line"/>
      <point x="231" y="287" type="line"/>
      <point x="231" y="296" type="line" smooth="yes"/>
      <point x="231" y="337"/>
      <point x="200" y="359"/>
      <point x="160" y="359" type="curve" smooth="yes"/>
      <point x="118" y="359"/>
      <point x="86" y="342"/>
      <point x="86" y="304" type="curve" smooth="yes"/>
      <point x="86" y="261"/>
      <point x="129" y="247"/>
      <point x="175" y="231" type="curve" smooth="yes"/>
      <point x="232" y="213"/>
      <point x="294" y="192"/>
      <point x="294" y="115" type="curve" smooth="yes"/>
      <point x="294" y="26"/>
      <point x="236" y="-7"/>
      <point x="158" y="-7" type="curve" smooth="yes"/>
      <point x="86" y="-7"/>
      <point x="24" y="25"/>
      <point x="24" y="113" type="curve" smooth="yes"/>
      <point x="24" y="125" type="line"/>
      <point x="78" y="125" type="line"/>
      <point x="77" y="113" type="line"/>
      <point x="77" y="63"/>
      <point x="111" y="40"/>
      <point x="156" y="40" type="curve" smooth="yes"/>
      <point x="210" y="40"/>
      <point x="240" y="63"/>
      <point x="240" y="107" type="curve" smooth="yes"/>
      <point x="240" y="153"/>
      <point x="197" y="167"/>
      <point x="150" y="182" type="curve" smooth="yes"/>
      <point x="94" y="201"/>
      <point x="32" y="221"/>
      <point x="32" y="299" type="curve" smooth="yes"/>
      <point x="32" y="373"/>
      <point x="89" y="407"/>
    </contour>
    <contour>
      <point x="166" y="-129" type="line"/>
      <point x="140" y="-129" type="line"/>
      <point x="154" y="-88" type="line"/>
      <point x="134" y="-88" type="line"/>
      <point x="134" y="-35" type="line"/>
      <point x="184" y="-35" type="line"/>
      <point x="184" y="-84" type="line"/>
    </contour>
  </outline>
</glyph>
<glyph name="scommaaccent" format="1">
  <advance width="239"/>
  <unicode hex="0219"/>
  <outline>
    <contour>
      <point x="119" y="0" type="move" name="Anchor-1"/>
    </contour>
    <contour>
      <point x="119" y="306" type="move" name="Anchor-0"/>
    </contour>
    <contour>
      <point x="122" y="314" type="curve" smooth="yes"/>
      <point x="179" y="314"/>
      <point x="210" y="275"/>
      <point x="210" y="229" type="curve" smooth="yes"/>
      <point x="210" y="226"/>
      <point x="210" y="223"/>
      <point x="209" y="220" type="curve" smooth="yes"/>
      <point x="209" y="219"/>
      <point x="209" y="218"/>
      <point x="209" y="218" type="curve"/>
      <point x="159" y="218" type="line"/>
      <point x="159" y="223" type="line" smooth="yes"/>
      <point x="159" y="248"/>
      <point x="150" y="272"/>
      <point x="117" y="272" type="curve" smooth="yes"/>
      <point x="83" y="272"/>
      <point x="76" y="246"/>
      <point x="76" y="229" type="curve" smooth="yes"/>
      <point x="76" y="200"/>
      <point x="102" y="192"/>
      <point x="131" y="181" type="curve" smooth="yes"/>
      <point x="170" y="168"/>
      <point x="215" y="153"/>
      <point x="215" y="88" type="curve" smooth="yes"/>
      <point x="215" y="22"/>
      <point x="174" y="-7"/>
      <point x="118" y="-7" type="curve" smooth="yes"/>
      <point x="47" y="-7"/>
      <point x="19" y="38"/>
      <point x="19" y="83" type="curve" smooth="yes"/>
      <point x="19" y="88"/>
      <point x="19" y="91"/>
      <point x="20" y="94" type="curve" smooth="yes"/>
      <point x="20" y="95"/>
      <point x="20" y="95"/>
      <point x="20" y="96" type="curve" smooth="yes"/>
      <point x="70" y="96" type="line"/>
      <point x="70" y="90" type="line" smooth="yes"/>
      <point x="70" y="51"/>
      <point x="92" y="35"/>
      <point x="120" y="35" type="curve" smooth="yes"/>
      <point x="145" y="35"/>
      <point x="166" y="51"/>
      <point x="166" y="80" type="curve" smooth="yes"/>
      <point x="166" y="116"/>
      <point x="137" y="126"/>
      <point x="105" y="138" type="curve" smooth="yes"/>
      <point x="67" y="151"/>
      <point x="26" y="166"/>
      <point x="26" y="226" type="curve" smooth="yes"/>
      <point x="26" y="280"/>
      <point x="63" y="314"/>
    </contour>
    <contour>
      <point x="126" y="-129" type="line"/>
      <point x="100" y="-129" type="line"/>
      <point x="114" y="-88" type="line"/>
      <point x="94" y="-88" type="line"/>
      <point x="94" y="-35" type="line"/>
      <point x="144" y="-35" type="line"/>
      <point x="144" y="-84" type="line"/>
    </contour>
  </outline>
</glyph>
<glyph name="uni021B" format="1">
  <advance width="133"/>
  <unicode hex="021B"/>
  <outline>
    <contour>
      <point x="123" y="306" type="line"/>
      <point x="123" y="264" type="line"/>
      <point x="82" y="264" type="line"/>
      <point x="82" y="63" type="line" smooth="yes"/>
      <point x="82" y="45"/>
      <point x="92" y="36"/>
      <point x="109" y="36" type="curve" smooth="yes"/>
      <point x="123" y="36" type="line"/>
      <point x="123" y="3" type="line"/>
      <point x="115" y="-3"/>
      <point x="101" y="-6"/>
      <point x="89" y="-6" type="curve" smooth="yes"/>
      <point x="47" y="-6"/>
      <point x="34" y="30"/>
      <point x="34" y="65" type="curve" smooth="yes"/>
      <point x="34" y="264" type="line"/>
      <point x="8" y="264" type="line"/>
      <point x="8" y="306" type="line"/>
      <point x="34" y="306" type="line"/>
      <point x="45" y="391" type="line"/>
      <point x="82" y="391" type="line"/>
      <point x="82" y="306" type="line"/>
    </contour>
    <contour>
      <point x="74" y="-129" type="line"/>
      <point x="48" y="-129" type="line"/>
      <point x="62" y="-88" type="line"/>
      <point x="42" y="-88" type="line"/>
      <point x="42" y="-35" type="line"/>
      <point x="92" y="-35" type="line"/>
      <point x="92" y="-84" type="line"/>
    </contour>
  </outline>
</glyph>
<glyph name="circumflex" format="1">
  <advance width="159"/>
  <unicode hex="02C6"/>
  <outline>
    <contour>
      <point x="104" y="342" type="line"/>
      <point x="78" y="388" type="line"/>
      <point x="53" y="342" type="line"/>
      <point x="6" y="342" type="line"/>
      <point x="56" y="420" type="line"/>
      <point x="101" y="420" type="line"/>
      <point x="151" y="342" type="line"/>
    </contour>
  </outline>
</glyph>
<glyph name="caron" format="1">
  <advance width="159"/>
  <unicode hex="02C7"/>
  <outline>
    <contour>
      <point x="55" y="343" type="line"/>
      <point x="6" y="421" type="line"/>
      <point x="53" y="421" type="line"/>
      <point x="78" y="375" type="line"/>
      <point x="104" y="421" type="line"/>
      <point x="151" y="421" type="line"/>
      <point x="101" y="343" type="line"/>
    </contour>
  </outline>
</glyph>
<glyph name="uni02C9" format="1">
  <advance width="291"/>
  <unicode hex="02C9"/>
  <outline>
    <contour>
      <point x="0" y="461" type="line"/>
      <point x="0" y="492" type="line"/>
      <point x="292" y="492" type="line"/>
      <point x="292" y="461" type="line"/>
    </contour>
  </outline>
</glyph>
<glyph name="breve" format="1">
  <advance width="159"/>
  <unicode hex="02D8"/>
  <outline>
    <contour>
      <point x="150" y="421" type="line"/>
      <point x="150" y="395"/>
      <point x="123" y="364"/>
      <point x="78" y="364" type="curve" smooth="yes"/>
      <point x="34" y="364"/>
      <point x="7" y="395"/>
      <point x="7" y="421" type="curve"/>
      <point x="43" y="421" type="line"/>
      <point x="45" y="413"/>
      <point x="59" y="402"/>
      <point x="78" y="402" type="curve" smooth="yes"/>
      <point x="98" y="402"/>
      <point x="112" y="413"/>
      <point x="113" y="421" type="curve"/>
    </contour>
  </outline>
</glyph>
<glyph name="dotaccent" format="1">
  <advance width="159"/>
  <unicode hex="02D9"/>
  <outline>
    <contour>
      <point x="54" y="366" type="line"/>
      <point x="54" y="421" type="line"/>
      <point x="105" y="421" type="line"/>
      <point x="105" y="366" type="line"/>
    </contour>
  </outline>
</glyph>
<glyph name="ring" format="1">
  <advance width="159"/>
  <unicode hex="02DA"/>
  <outline>
    <contour>
      <point x="81" y="440" type="curve" smooth="yes"/>
      <point x="113" y="440"/>
      <point x="137" y="414"/>
      <point x="137" y="384" type="curve" smooth="yes"/>
      <point x="137" y="353"/>
      <point x="112" y="328"/>
      <point x="81" y="328" type="curve" smooth="yes"/>
      <point x="51" y="328"/>
      <point x="25" y="352"/>
      <point x="25" y="384" type="curve" smooth="yes"/>
      <point x="25" y="415"/>
      <point x="50" y="440"/>
    </contour>
    <contour>
      <point x="81" y="413" type="curve" smooth="yes"/>
      <point x="65" y="413"/>
      <point x="51" y="400"/>
      <point x="51" y="384" type="curve" smooth="yes"/>
      <point x="51" y="368"/>
      <point x="65" y="354"/>
      <point x="81" y="354" type="curve" smooth="yes"/>
      <point x="97" y="354"/>
      <point x="111" y="368"/>
      <point x="111" y="384" type="curve" smooth="yes"/>
      <point x="111" y="400"/>
      <point x="97" y="413"/>
    </contour>
  </outline>
</glyph>
<glyph name="tilde" format="1">
  <advance width="159"/>
  <unicode hex="02DC"/>
  <outline>
    <contour>
      <point x="164" y="421" type="line"/>
      <point x="164" y="394"/>
      <point x="150" y="360"/>
      <point x="115" y="360" type="curve" smooth="yes"/>
      <point x="102" y="360"/>
      <point x="91" y="365"/>
      <point x="80" y="370" type="curve" smooth="yes"/>
      <point x="70" y="374"/>
      <point x="59" y="379"/>
      <point x="47" y="379" type="curve" smooth="yes"/>
      <point x="38" y="379"/>
      <point x="30" y="374"/>
      <point x="28" y="360" type="curve"/>
      <point x="-6" y="360" type="line"/>
      <point x="-6" y="387"/>
      <point x="9" y="421"/>
      <point x="43" y="421" type="curve" smooth="yes"/>
      <point x="56" y="421"/>
      <point x="68" y="416"/>
      <point x="79" y="412" type="curve" smooth="yes"/>
      <point x="90" y="407"/>
      <point x="100" y="403"/>
      <point x="111" y="403" type="curve" smooth="yes"/>
      <point x="121" y="403"/>
      <point x="129" y="408"/>
      <point x="130" y="421" type="curve"/>
    </contour>
  </outline>
</glyph>
<glyph name="hungarumlaut" format="1">
  <advance width="159"/>
  <unicode hex="02DD"/>
  <outline>
    <contour>
      <point x="43" y="344" type="line"/>
      <point x="3" y="344" type="line"/>
      <point x="38" y="421" type="line"/>
      <point x="91" y="421" type="line"/>
      <point x="92" y="419" type="line"/>
    </contour>
    <contour>
      <point x="118" y="344" type="line"/>
      <point x="78" y="344" type="line"/>
      <point x="114" y="421" type="line"/>
      <point x="167" y="421" type="line"/>
      <point x="167" y="419" type="line"/>
    </contour>
  </outline>
</glyph>
<glyph name="uni0901" format="1">
  <advance width="0"/>
  <unicode hex="0901"/>
  <outline>
    <contour>
      <point x="-71" y="555" type="move" name="Anchor-4"/>
    </contour>
    <contour>
      <point x="-72" y="399" type="move" name="_Anchor-2"/>
    </contour>
    <contour>
      <point x="-99" y="495" type="line"/>
      <point x="-99" y="555" type="line"/>
      <point x="-44" y="555" type="line"/>
      <point x="-44" y="495" type="line"/>
    </contour>
    <contour>
      <point x="28" y="523" type="line"/>
      <point x="28" y="470"/>
      <point x="-13" y="433"/>
      <point x="-72" y="433" type="curve" smooth="yes"/>
      <point x="-130" y="433"/>
      <point x="-172" y="470"/>
      <point x="-172" y="523" type="curve"/>
      <point x="-126" y="523" type="line"/>
      <point x="-126" y="483"/>
      <point x="-105" y="467"/>
      <point x="-72" y="467" type="curve" smooth="yes"/>
      <point x="-39" y="467"/>
      <point x="-18" y="483"/>
      <point x="-18" y="523" type="curve"/>
    </contour>
  </outline>
</glyph>
<glyph name="uni0903" format="1">
  <advance width="130"/>
  <unicode hex="0903"/>
  <outline>
    <contour>
      <point x="-7" y="357" type="line"/>
      <point x="-7" y="399" type="line"/>
      <point x="136" y="399" type="line"/>
      <point x="136" y="357" type="line"/>
    </contour>
    <contour>
      <point x="36" y="236" type="line"/>
      <point x="36" y="299" type="line"/>
      <point x="94" y="299" type="line"/>
      <point x="94" y="236" type="line"/>
    </contour>
    <contour>
      <point x="36" y="60" type="line"/>
      <point x="36" y="123" type="line"/>
      <point x="94" y="123" type="line"/>
      <point x="94" y="60" type="line"/>
    </contour>
  </outline>
</glyph>
<glyph name="uni0908" format="1">
  <advance width="274"/>
  <unicode hex="0908"/>
  <outline>
    <contour>
      <point x="101" y="0" type="move" name="Anchor-7"/>
    </contour>
    <contour>
      <point x="0" y="0" type="move" name="Anchor-6"/>
    </contour>
    <contour>
      <point x="0" y="0" type="move" name="Anchor-5"/>
    </contour>
    <contour>
      <point x="204" y="399" type="move" name="Anchor-3"/>
    </contour>
    <contour>
      <point x="0" y="0" type="move" name="Anchor-2"/>
    </contour>
    <contour>
      <point x="129" y="257" type="line" smooth="yes"/>
      <point x="108" y="257"/>
      <point x="90" y="246"/>
      <point x="90" y="224" type="curve" smooth="yes"/>
      <point x="90" y="205"/>
      <point x="103" y="194"/>
      <point x="127" y="194" type="curve" smooth="yes"/>
      <point x="152" y="194" type="line" smooth="yes"/>
      <point x="212" y="194"/>
      <point x="246" y="165"/>
      <point x="246" y="112" type="curve" smooth="yes"/>
      <point x="246" y="55"/>
      <point x="207" y="26"/>
      <point x="152" y="26" type="curve" smooth="yes"/>
      <point x="128" y="26"/>
      <point x="109" y="31"/>
      <point x="94" y="40" type="curve"/>
      <point x="94" y="-24" type="line"/>
      <point x="46" y="-24" type="line"/>
      <point x="46" y="125" type="line"/>
      <point x="94" y="125" type="line"/>
      <point x="94" y="119" type="line" smooth="yes"/>
      <point x="94" y="83"/>
      <point x="117" y="68"/>
      <point x="146" y="68" type="curve" smooth="yes"/>
      <point x="175" y="68"/>
      <point x="196" y="83"/>
      <point x="196" y="113" type="curve" smooth="yes"/>
      <point x="196" y="139"/>
      <point x="179" y="151"/>
      <point x="148" y="151" type="curve" smooth="yes"/>
      <point x="129" y="151" type="line" smooth="yes"/>
      <point x="70" y="151"/>
      <point x="40" y="179"/>
      <point x="40" y="225" type="curve" smooth="yes"/>
      <point x="40" y="278"/>
      <point x="78" y="299"/>
      <point x="131" y="299" type="curve" smooth="yes"/>
      <point x="181" y="299" type="line"/>
      <point x="181" y="357" type="line"/>
      <point x="-7" y="357" type="line"/>
      <point x="-7" y="399" type="line"/>
      <point x="172" y="399" type="line"/>
      <point x="158" y="422"/>
      <point x="152" y="444"/>
      <point x="152" y="465" type="curve" smooth="yes"/>
      <point x="152" y="512"/>
      <point x="192" y="545"/>
      <point x="246" y="545" type="curve" smooth="yes"/>
      <point x="250" y="545"/>
      <point x="257" y="545"/>
      <point x="259" y="544" type="curve" smooth="yes"/>
      <point x="259" y="502" type="line"/>
      <point x="257" y="502" type="line" smooth="yes"/>
      <point x="220" y="501"/>
      <point x="200" y="484"/>
      <point x="200" y="454" type="curve" smooth="yes"/>
      <point x="200" y="437"/>
      <point x="205" y="420"/>
      <point x="217" y="399" type="curve"/>
      <point x="281" y="399" type="line"/>
      <point x="281" y="357" type="line"/>
      <point x="229" y="357" type="line"/>
      <point x="229" y="257" type="line"/>
    </contour>
  </outline>
</glyph>
<glyph name="uni090B" format="1">
  <advance width="442"/>
  <unicode hex="090B"/>
  <outline>
    <contour>
      <point x="209" y="0" type="move" name="Anchor-7"/>
    </contour>
    <contour>
      <point x="0" y="0" type="move" name="Anchor-6"/>
    </contour>
    <contour>
      <point x="0" y="0" type="move" name="Anchor-5"/>
    </contour>
    <contour>
      <point x="209" y="399" type="move" name="Anchor-3"/>
    </contour>
    <contour>
      <point x="209" y="399" type="move" name="Anchor-2"/>
    </contour>
    <contour>
      <point x="233" y="357" type="line"/>
      <point x="233" y="189" type="line"/>
      <point x="354" y="258" type="line"/>
      <point x="354" y="284" type="line"/>
      <point x="401" y="284" type="line"/>
      <point x="401" y="111" type="line"/>
      <point x="380" y="111" type="line" smooth="yes"/>
      <point x="356" y="111"/>
      <point x="339" y="95"/>
      <point x="339" y="73" type="curve" smooth="yes"/>
      <point x="339" y="52"/>
      <point x="356" y="36"/>
      <point x="380" y="36" type="curve" smooth="yes"/>
      <point x="399" y="36"/>
      <point x="414" y="39"/>
      <point x="428" y="44" type="curve"/>
      <point x="428" y="4" type="line"/>
      <point x="413" y="-2"/>
      <point x="396" y="-7"/>
      <point x="378" y="-7" type="curve" smooth="yes"/>
      <point x="334" y="-7"/>
      <point x="291" y="23"/>
      <point x="291" y="74" type="curve" smooth="yes"/>
      <point x="291" y="116"/>
      <point x="320" y="143"/>
      <point x="354" y="151" type="curve"/>
      <point x="354" y="208" type="line"/>
      <point x="233" y="139" type="line"/>
      <point x="233" y="0" type="line"/>
      <point x="185" y="0" type="line"/>
      <point x="185" y="116" type="line"/>
      <point x="44" y="36" type="line"/>
      <point x="44" y="86" type="line"/>
      <point x="174" y="160" type="line"/>
      <point x="142" y="203" type="line" smooth="yes"/>
      <point x="122" y="229"/>
      <point x="102" y="237"/>
      <point x="80" y="237" type="curve" smooth="yes"/>
      <point x="71" y="237"/>
      <point x="59" y="235"/>
      <point x="47" y="232" type="curve" smooth="yes"/>
      <point x="32" y="228" type="line"/>
      <point x="32" y="268" type="line"/>
      <point x="40" y="271"/>
      <point x="44" y="272"/>
      <point x="48" y="273" type="curve" smooth="yes"/>
      <point x="49" y="273"/>
      <point x="51" y="274"/>
      <point x="53" y="274" type="curve" smooth="yes"/>
      <point x="67" y="277"/>
      <point x="80" y="279"/>
      <point x="93" y="279" type="curve" smooth="yes"/>
      <point x="127" y="279"/>
      <point x="152" y="266"/>
      <point x="177" y="231" type="curve" smooth="yes"/>
      <point x="185" y="220" type="line"/>
      <point x="185" y="357" type="line"/>
      <point x="-7" y="357" type="line"/>
      <point x="-7" y="399" type="line"/>
      <point x="449" y="399" type="line"/>
      <point x="449" y="357" type="line"/>
    </contour>
  </outline>
</glyph>
<glyph name="uni090C" format="1">
  <advance width="402"/>
  <unicode hex="090C"/>
  <outline>
    <contour>
      <point x="329" y="-29" type="move" name="Anchor-7"/>
    </contour>
    <contour>
      <point x="0" y="0" type="move" name="Anchor-6"/>
    </contour>
    <contour>
      <point x="0" y="0" type="move" name="Anchor-5"/>
    </contour>
    <contour>
      <point x="329" y="399" type="move" name="Anchor-3"/>
    </contour>
    <contour>
      <point x="0" y="0" type="move" name="Anchor-2"/>
    </contour>
    <contour>
      <point x="333" y="63" type="line" smooth="yes"/>
      <point x="309" y="63"/>
      <point x="292" y="47"/>
      <point x="292" y="25" type="curve" smooth="yes"/>
      <point x="292" y="4"/>
      <point x="309" y="-12"/>
      <point x="333" y="-12" type="curve" smooth="yes"/>
      <point x="352" y="-12"/>
      <point x="367" y="-9"/>
      <point x="381" y="-4" type="curve"/>
      <point x="381" y="-44" type="line"/>
      <point x="366" y="-50"/>
      <point x="349" y="-55"/>
      <point x="331" y="-55" type="curve" smooth="yes"/>
      <point x="287" y="-55"/>
      <point x="244" y="-25"/>
      <point x="244" y="26" type="curve" smooth="yes"/>
      <point x="244" y="67"/>
      <point x="272" y="94"/>
      <point x="306" y="103" type="curve"/>
      <point x="306" y="176" type="line" smooth="yes"/>
      <point x="306" y="218"/>
      <point x="292" y="244"/>
      <point x="258" y="244" type="curve" smooth="yes"/>
      <point x="223" y="244"/>
      <point x="212" y="209"/>
      <point x="212" y="171" type="curve" smooth="yes"/>
      <point x="212" y="127" type="line"/>
      <point x="163" y="127" type="line"/>
      <point x="163" y="171" type="line" smooth="yes"/>
      <point x="163" y="209"/>
      <point x="152" y="244"/>
      <point x="117" y="244" type="curve" smooth="yes"/>
      <point x="82" y="244"/>
      <point x="69" y="210"/>
      <point x="69" y="153" type="curve" smooth="yes"/>
      <point x="69" y="76"/>
      <point x="100" y="42"/>
      <point x="175" y="42" type="curve" smooth="yes"/>
      <point x="186" y="42" type="line"/>
      <point x="186" y="3" type="line"/>
      <point x="179" y="1"/>
      <point x="171" y="0"/>
      <point x="163" y="0" type="curve" smooth="yes"/>
      <point x="71" y="0"/>
      <point x="19" y="49"/>
      <point x="19" y="160" type="curve" smooth="yes"/>
      <point x="19" y="235"/>
      <point x="53" y="286"/>
      <point x="110" y="286" type="curve" smooth="yes"/>
      <point x="152" y="286"/>
      <point x="176" y="261"/>
      <point x="186" y="227" type="curve"/>
      <point x="188" y="227" type="line"/>
      <point x="198" y="261"/>
      <point x="220" y="286"/>
      <point x="262" y="286" type="curve" smooth="yes"/>
      <point x="279" y="286"/>
      <point x="294" y="281"/>
      <point x="306" y="271" type="curve"/>
      <point x="306" y="357" type="line"/>
      <point x="-7" y="357" type="line"/>
      <point x="-7" y="399" type="line"/>
      <point x="409" y="399" type="line"/>
      <point x="409" y="357" type="line"/>
      <point x="354" y="357" type="line"/>
      <point x="354" y="63" type="line"/>
    </contour>
  </outline>
</glyph>
<glyph name="uni090D" format="1">
  <advance width="289"/>
  <unicode hex="090D"/>
  <outline>
    <contour>
      <point x="173" y="0" type="move" name="Anchor-7"/>
    </contour>
    <contour>
      <point x="0" y="0" type="move" name="Anchor-6"/>
    </contour>
    <contour>
      <point x="0" y="0" type="move" name="Anchor-5"/>
    </contour>
    <contour>
      <point x="216" y="399" type="move" name="Anchor-3"/>
    </contour>
    <contour>
      <point x="144" y="399" type="move" name="Anchor-2"/>
    </contour>
    <contour>
      <point x="238" y="527" type="line"/>
      <point x="238" y="474"/>
      <point x="203" y="437"/>
      <point x="144" y="437" type="curve" smooth="yes"/>
      <point x="86" y="437"/>
      <point x="51" y="474"/>
      <point x="51" y="527" type="curve"/>
      <point x="97" y="527" type="line"/>
      <point x="97" y="491"/>
      <point x="119" y="474"/>
      <point x="144" y="474" type="curve" smooth="yes"/>
      <point x="172" y="474"/>
      <point x="192" y="491"/>
      <point x="192" y="527" type="curve"/>
    </contour>
    <contour>
      <point x="295" y="399" type="line"/>
      <point x="295" y="357" type="line"/>
      <point x="241" y="357" type="line"/>
      <point x="241" y="237" type="line" smooth="yes"/>
      <point x="241" y="202"/>
      <point x="227" y="166"/>
      <point x="180" y="166" type="curve" smooth="yes"/>
      <point x="171" y="166"/>
      <point x="162" y="167"/>
      <point x="154" y="169" type="curve"/>
      <point x="154" y="206" type="line"/>
      <point x="165" y="206" type="line" smooth="yes"/>
      <point x="183" y="206"/>
      <point x="192" y="216"/>
      <point x="192" y="235" type="curve" smooth="yes"/>
      <point x="192" y="357" type="line"/>
      <point x="96" y="357" type="line"/>
      <point x="96" y="194" type="line" smooth="yes"/>
      <point x="96" y="181"/>
      <point x="99" y="172"/>
      <point x="105" y="165" type="curve" smooth="yes"/>
      <point x="214" y="59" type="line" smooth="yes"/>
      <point x="230" y="42"/>
      <point x="241" y="25"/>
      <point x="241" y="9" type="curve" smooth="yes"/>
      <point x="241" y="-5"/>
      <point x="237" y="-17"/>
      <point x="230" y="-31" type="curve"/>
      <point x="190" y="-31" type="line"/>
      <point x="194" y="-16"/>
      <point x="194" y="-5"/>
      <point x="194" y="-1" type="curve" smooth="yes"/>
      <point x="194" y="9"/>
      <point x="191" y="18"/>
      <point x="182" y="28" type="curve" smooth="yes"/>
      <point x="66" y="142" type="line" smooth="yes"/>
      <point x="53" y="156"/>
      <point x="48" y="170"/>
      <point x="48" y="190" type="curve" smooth="yes"/>
      <point x="48" y="357" type="line"/>
      <point x="-7" y="357" type="line"/>
      <point x="-7" y="399" type="line"/>
    </contour>
  </outline>
</glyph>
<glyph name="uni0918" format="1">
  <advance width="306"/>
  <unicode hex="0918"/>
  <outline>
    <contour>
      <point x="234" y="0" type="move" name="Anchor-7"/>
    </contour>
    <contour>
      <point x="0" y="0" type="move" name="Anchor-6"/>
    </contour>
    <contour>
      <point x="13" y="92" type="move" name="Anchor-5"/>
    </contour>
    <contour>
      <point x="234" y="399" type="move" name="Anchor-3"/>
    </contour>
    <contour>
      <point x="154" y="399" type="move" name="Anchor-2"/>
    </contour>
    <contour>
      <point x="313" y="399" type="line"/>
      <point x="313" y="357" type="line"/>
      <point x="258" y="357" type="line"/>
      <point x="258" y="0" type="line"/>
      <point x="210" y="0" type="line"/>
      <point x="210" y="97" type="line"/>
      <point x="193" y="78"/>
      <point x="167" y="68"/>
      <point x="132" y="68" type="curve" smooth="yes"/>
      <point x="71" y="68"/>
      <point x="28" y="101"/>
      <point x="28" y="159" type="curve" smooth="yes"/>
      <point x="28" y="198"/>
      <point x="49" y="223"/>
      <point x="78" y="235" type="curve"/>
      <point x="50" y="248"/>
      <point x="28" y="266"/>
      <point x="28" y="308" type="curve" smooth="yes"/>
      <point x="28" y="328"/>
      <point x="33" y="345"/>
      <point x="41" y="357" type="curve"/>
      <point x="-7" y="357" type="line"/>
      <point x="-7" y="399" type="line"/>
    </contour>
    <contour>
      <point x="139" y="109" type="curve" smooth="yes"/>
      <point x="185" y="109"/>
      <point x="210" y="134"/>
      <point x="210" y="193" type="curve" smooth="yes"/>
      <point x="210" y="357" type="line"/>
      <point x="98" y="357" type="line" smooth="yes"/>
      <point x="82" y="357"/>
      <point x="77" y="339"/>
      <point x="77" y="315" type="curve" smooth="yes"/>
      <point x="77" y="272"/>
      <point x="101" y="252"/>
      <point x="130" y="252" type="curve" smooth="yes"/>
      <point x="158" y="252" type="line"/>
      <point x="158" y="212" type="line"/>
      <point x="131" y="212" type="line" smooth="yes"/>
      <point x="103" y="212"/>
      <point x="77" y="200"/>
      <point x="77" y="163" type="curve" smooth="yes"/>
      <point x="77" y="123"/>
      <point x="103" y="109"/>
    </contour>
  </outline>
</glyph>
<glyph name="uni0923" format="1">
  <advance width="413"/>
  <unicode hex="0923"/>
  <outline>
    <contour>
      <point x="340" y="0" type="move" name="Anchor-7"/>
    </contour>
    <contour>
      <point x="0" y="0" type="move" name="Anchor-6"/>
    </contour>
    <contour>
      <point x="132" y="34" type="move" name="Anchor-5"/>
    </contour>
    <contour>
      <point x="340" y="399" type="move" name="Anchor-3"/>
    </contour>
    <contour>
      <point x="206" y="399" type="move" name="Anchor-2"/>
    </contour>
    <contour>
      <point x="419" y="399" type="line"/>
      <point x="419" y="357" type="line"/>
      <point x="364" y="357" type="line"/>
      <point x="364" y="0" type="line"/>
      <point x="316" y="0" type="line"/>
      <point x="316" y="357" type="line"/>
      <point x="231" y="357" type="line"/>
      <point x="231" y="163" type="line" smooth="yes"/>
      <point x="231" y="101"/>
      <point x="192" y="68"/>
      <point x="132" y="68" type="curve" smooth="yes"/>
      <point x="71" y="68"/>
      <point x="35" y="101"/>
      <point x="35" y="163" type="curve" smooth="yes"/>
      <point x="35" y="357" type="line"/>
      <point x="-7" y="357" type="line"/>
      <point x="-7" y="399" type="line"/>
    </contour>
    <contour>
      <point x="183" y="161" type="curve" smooth="yes"/>
      <point x="183" y="357" type="line"/>
      <point x="82" y="357" type="line"/>
      <point x="82" y="161" type="line" smooth="yes"/>
      <point x="82" y="129"/>
      <point x="101" y="111"/>
      <point x="132" y="111" type="curve" smooth="yes"/>
      <point x="162" y="111"/>
      <point x="183" y="129"/>
    </contour>
  </outline>
</glyph>
<glyph name="uni0924" format="1">
  <advance width="302"/>
  <unicode hex="0924"/>
  <outline>
    <contour>
      <point x="230" y="0" type="move" name="Anchor-7"/>
    </contour>
    <contour>
      <point x="0" y="0" type="move" name="Anchor-6"/>
    </contour>
    <contour>
      <point x="13" y="0" type="move" name="Anchor-5"/>
    </contour>
    <contour>
      <point x="230" y="399" type="move" name="Anchor-3"/>
    </contour>
    <contour>
      <point x="136" y="399" type="move" name="Anchor-2"/>
    </contour>
    <contour>
      <point x="309" y="399" type="line"/>
      <point x="309" y="357" type="line"/>
      <point x="254" y="357" type="line"/>
      <point x="254" y="0" type="line"/>
      <point x="206" y="0" type="line"/>
      <point x="206" y="223" type="line"/>
      <point x="119" y="223" type="line" smooth="yes"/>
      <point x="80" y="223"/>
      <point x="70" y="205"/>
      <point x="70" y="173" type="curve" smooth="yes"/>
      <point x="70" y="150"/>
      <point x="76" y="100"/>
      <point x="130" y="0" type="curve"/>
      <point x="78" y="0" type="line"/>
      <point x="25" y="101"/>
      <point x="20" y="148"/>
      <point x="20" y="175" type="curve" smooth="yes"/>
      <point x="20" y="235"/>
      <point x="55" y="267"/>
      <point x="123" y="267" type="curve" smooth="yes"/>
      <point x="206" y="267" type="line"/>
      <point x="206" y="357" type="line"/>
      <point x="-7" y="357" type="line"/>
      <point x="-7" y="399" type="line"/>
    </contour>
  </outline>
</glyph>
<glyph name="uni0926" format="1">
  <advance width="268"/>
  <unicode hex="0926"/>
  <outline>
    <contour>
      <point x="212" y="0" type="move" name="Anchor-7"/>
    </contour>
    <contour>
      <point x="0" y="0" type="move" name="Anchor-6"/>
    </contour>
    <contour>
      <point x="43" y="34" type="move" name="Anchor-5"/>
    </contour>
    <contour>
      <point x="190" y="399" type="move" name="Anchor-3"/>
    </contour>
    <contour>
      <point x="134" y="399" type="move" name="Anchor-2"/>
    </contour>
    <contour>
      <point x="133" y="257" type="line" smooth="yes"/>
      <point x="93" y="257"/>
      <point x="73" y="230"/>
      <point x="73" y="177" type="curve" smooth="yes"/>
      <point x="73" y="156" type="line" smooth="yes"/>
      <point x="73" y="103"/>
      <point x="95" y="77"/>
      <point x="141" y="77" type="curve" smooth="yes"/>
      <point x="164" y="77"/>
      <point x="181" y="83"/>
      <point x="192" y="95" type="curve"/>
      <point x="182" y="138" type="line"/>
      <point x="229" y="138" type="line"/>
      <point x="262" y="0" type="line"/>
      <point x="215" y="0" type="line"/>
      <point x="203" y="50" type="line"/>
      <point x="185" y="39"/>
      <point x="163" y="34"/>
      <point x="136" y="34" type="curve" smooth="yes"/>
      <point x="68" y="34"/>
      <point x="23" y="74"/>
      <point x="23" y="166" type="curve" smooth="yes"/>
      <point x="23" y="258"/>
      <point x="61" y="299"/>
      <point x="133" y="299" type="curve" smooth="yes"/>
      <point x="167" y="299" type="line"/>
      <point x="167" y="357" type="line"/>
      <point x="-7" y="357" type="line"/>
      <point x="-7" y="399" type="line"/>
      <point x="274" y="399" type="line"/>
      <point x="274" y="357" type="line"/>
      <point x="214" y="357" type="line"/>
      <point x="214" y="257" type="line"/>
    </contour>
  </outline>
</glyph>
<glyph name="uni0927" format="1">
  <advance width="320"/>
  <unicode hex="0927"/>
  <outline>
    <contour>
      <point x="247" y="0" type="move" name="Anchor-7"/>
    </contour>
    <contour>
      <point x="0" y="0" type="move" name="Anchor-6"/>
    </contour>
    <contour>
      <point x="50" y="34" type="move" name="Anchor-5"/>
    </contour>
    <contour>
      <point x="247" y="399" type="move" name="Anchor-3"/>
    </contour>
    <contour>
      <point x="160" y="399" type="move" name="Anchor-2"/>
    </contour>
    <contour>
      <point x="326" y="399" type="line"/>
      <point x="326" y="357" type="line"/>
      <point x="272" y="357" type="line"/>
      <point x="272" y="0" type="line"/>
      <point x="223" y="0" type="line"/>
      <point x="223" y="99" type="line"/>
      <point x="205" y="79"/>
      <point x="177" y="68"/>
      <point x="139" y="68" type="curve" smooth="yes"/>
      <point x="74" y="68"/>
      <point x="28" y="101"/>
      <point x="28" y="161" type="curve" smooth="yes"/>
      <point x="28" y="202"/>
      <point x="49" y="227"/>
      <point x="78" y="239" type="curve"/>
      <point x="50" y="254"/>
      <point x="28" y="275"/>
      <point x="28" y="324" type="curve" smooth="yes"/>
      <point x="28" y="377"/>
      <point x="57" y="407"/>
      <point x="96" y="407" type="curve" smooth="yes"/>
      <point x="136" y="407"/>
      <point x="164" y="386"/>
      <point x="164" y="348" type="curve" smooth="yes"/>
      <point x="164" y="340"/>
      <point x="163" y="333"/>
      <point x="161" y="329" type="curve"/>
      <point x="119" y="329" type="line"/>
      <point x="119" y="341" type="line" smooth="yes"/>
      <point x="119" y="355"/>
      <point x="114" y="366"/>
      <point x="98" y="366" type="curve" smooth="yes"/>
      <point x="82" y="366"/>
      <point x="77" y="348"/>
      <point x="77" y="321" type="curve" smooth="yes"/>
      <point x="77" y="276"/>
      <point x="101" y="256"/>
      <point x="130" y="256" type="curve" smooth="yes"/>
      <point x="161" y="256" type="line"/>
      <point x="161" y="216" type="line"/>
      <point x="131" y="216" type="line" smooth="yes"/>
      <point x="103" y="216"/>
      <point x="77" y="204"/>
      <point x="77" y="165" type="curve" smooth="yes"/>
      <point x="77" y="124"/>
      <point x="106" y="109"/>
      <point x="145" y="109" type="curve" smooth="yes"/>
      <point x="196" y="109"/>
      <point x="223" y="134"/>
      <point x="223" y="193" type="curve" smooth="yes"/>
      <point x="223" y="357" type="line"/>
      <point x="184" y="357" type="line"/>
      <point x="184" y="399" type="line"/>
    </contour>
  </outline>
</glyph>
<glyph name="uni0929" format="1">
  <advance width="321"/>
  <unicode hex="0929"/>
  <outline>
    <contour>
      <point x="248" y="0" type="move" name="Anchor-7"/>
    </contour>
    <contour>
      <point x="0" y="0" type="move" name="Anchor-6"/>
    </contour>
    <contour>
      <point x="80" y="101" type="move" name="Anchor-5"/>
    </contour>
    <contour>
      <point x="248" y="399" type="move" name="Anchor-3"/>
    </contour>
    <contour>
      <point x="161" y="399" type="move" name="Anchor-2"/>
    </contour>
    <contour>
      <point x="328" y="399" type="line"/>
      <point x="328" y="357" type="line"/>
      <point x="273" y="357" type="line"/>
      <point x="273" y="0" type="line"/>
      <point x="225" y="0" type="line"/>
      <point x="225" y="212" type="line"/>
      <point x="158" y="212" type="line"/>
      <point x="158" y="179" type="line" smooth="yes"/>
      <point x="158" y="133"/>
      <point x="127" y="102"/>
      <point x="80" y="102" type="curve" smooth="yes"/>
      <point x="36" y="102"/>
      <point x="1" y="136"/>
      <point x="1" y="179" type="curve" smooth="yes"/>
      <point x="1" y="225"/>
      <point x="32" y="256"/>
      <point x="80" y="256" type="curve" smooth="yes"/>
      <point x="225" y="256" type="line"/>
      <point x="225" y="357" type="line"/>
      <point x="-7" y="357" type="line"/>
      <point x="-7" y="399" type="line"/>
    </contour>
    <contour>
      <point x="111" y="179" type="curve" smooth="yes"/>
      <point x="111" y="212" type="line"/>
      <point x="80" y="212" type="line" smooth="yes"/>
      <point x="61" y="212"/>
      <point x="48" y="199"/>
      <point x="48" y="179" type="curve" smooth="yes"/>
      <point x="48" y="161"/>
      <point x="63" y="146"/>
      <point x="80" y="146" type="curve" smooth="yes"/>
      <point x="98" y="146"/>
      <point x="111" y="159"/>
    </contour>
    <contour>
      <point x="52" y="6" type="line"/>
      <point x="52" y="69" type="line"/>
      <point x="110" y="69" type="line"/>
      <point x="110" y="6" type="line"/>
    </contour>
  </outline>
</glyph>
<glyph name="uni092C" format="1">
  <advance width="288"/>
  <unicode hex="092C"/>
  <outline>
    <contour>
      <point x="215" y="0" type="move" name="Anchor-7"/>
    </contour>
    <contour>
      <point x="0" y="0" type="move" name="Anchor-6"/>
    </contour>
    <contour>
      <point x="29" y="92" type="move" name="Anchor-5"/>
    </contour>
    <contour>
      <point x="215" y="399" type="move" name="Anchor-3"/>
    </contour>
    <contour>
      <point x="130" y="399" type="move" name="Anchor-2"/>
    </contour>
    <contour>
      <point x="295" y="399" type="line"/>
      <point x="295" y="357" type="line"/>
      <point x="240" y="357" type="line"/>
      <point x="240" y="0" type="line"/>
      <point x="192" y="0" type="line"/>
      <point x="192" y="92" type="line"/>
      <point x="190" y="92" type="line"/>
      <point x="176" y="79"/>
      <point x="152" y="68"/>
      <point x="119" y="68" type="curve" smooth="yes"/>
      <point x="60" y="68"/>
      <point x="19" y="103"/>
      <point x="19" y="186" type="curve" smooth="yes"/>
      <point x="19" y="269"/>
      <point x="60" y="304"/>
      <point x="119" y="304" type="curve" smooth="yes"/>
      <point x="153" y="304"/>
      <point x="176" y="293"/>
      <point x="190" y="280" type="curve"/>
      <point x="192" y="280" type="line"/>
      <point x="192" y="357" type="line"/>
      <point x="-7" y="357" type="line"/>
      <point x="-7" y="399" type="line"/>
    </contour>
    <contour>
      <point x="179" y="131" type="line"/>
      <point x="188" y="142"/>
      <point x="192" y="158"/>
      <point x="192" y="179" type="curve" smooth="yes"/>
      <point x="192" y="193" type="line" smooth="yes"/>
      <point x="192" y="239"/>
      <point x="172" y="262"/>
      <point x="130" y="262" type="curve" smooth="yes"/>
      <point x="122" y="262"/>
      <point x="115" y="261"/>
      <point x="109" y="260" type="curve"/>
    </contour>
    <contour>
      <point x="130" y="111" type="curve" smooth="yes"/>
      <point x="139" y="111"/>
      <point x="148" y="112"/>
      <point x="155" y="114" type="curve"/>
      <point x="84" y="246" type="line"/>
      <point x="74" y="235"/>
      <point x="69" y="218"/>
      <point x="69" y="193" type="curve" smooth="yes"/>
      <point x="69" y="179" type="line" smooth="yes"/>
      <point x="69" y="130"/>
      <point x="90" y="111"/>
    </contour>
  </outline>
</glyph>
<glyph name="uni092D" format="1">
  <advance width="373"/>
  <unicode hex="092D"/>
  <outline>
    <contour>
      <point x="301" y="0" type="move" name="Anchor-7"/>
    </contour>
    <contour>
      <point x="0" y="0" type="move" name="Anchor-6"/>
    </contour>
    <contour>
      <point x="46" y="61" type="move" name="Anchor-5"/>
    </contour>
    <contour>
      <point x="301" y="399" type="move" name="Anchor-3"/>
    </contour>
    <contour>
      <point x="202" y="399" type="move" name="Anchor-2"/>
    </contour>
    <contour>
      <point x="380" y="399" type="line"/>
      <point x="380" y="357" type="line"/>
      <point x="324" y="357" type="line"/>
      <point x="324" y="0" type="line"/>
      <point x="277" y="0" type="line"/>
      <point x="277" y="171" type="line"/>
      <point x="188" y="171" type="line"/>
      <point x="188" y="138" type="line" smooth="yes"/>
      <point x="188" y="92"/>
      <point x="158" y="61"/>
      <point x="110" y="61" type="curve" smooth="yes"/>
      <point x="67" y="61"/>
      <point x="31" y="95"/>
      <point x="31" y="138" type="curve" smooth="yes"/>
      <point x="31" y="183"/>
      <point x="63" y="214"/>
      <point x="110" y="214" type="curve" smooth="yes"/>
      <point x="141" y="214" type="line"/>
      <point x="141" y="323" type="line" smooth="yes"/>
      <point x="141" y="346"/>
      <point x="134" y="364"/>
      <point x="108" y="364" type="curve" smooth="yes"/>
      <point x="85" y="364"/>
      <point x="76" y="342"/>
      <point x="76" y="322" type="curve" smooth="yes"/>
      <point x="76" y="302" type="line"/>
      <point x="30" y="302" type="line"/>
      <point x="29" y="308"/>
      <point x="28" y="319"/>
      <point x="28" y="328" type="curve" smooth="yes"/>
      <point x="28" y="379"/>
      <point x="64" y="407"/>
      <point x="111" y="407" type="curve" smooth="yes"/>
      <point x="161" y="407"/>
      <point x="188" y="378"/>
      <point x="188" y="329" type="curve" smooth="yes"/>
      <point x="188" y="214" type="line"/>
      <point x="277" y="214" type="line"/>
      <point x="277" y="357" type="line"/>
      <point x="219" y="357" type="line"/>
      <point x="219" y="399" type="line"/>
    </contour>
    <contour>
      <point x="141" y="138" type="curve" smooth="yes"/>
      <point x="141" y="171" type="line"/>
      <point x="110" y="171" type="line" smooth="yes"/>
      <point x="92" y="171"/>
      <point x="78" y="158"/>
      <point x="78" y="138" type="curve" smooth="yes"/>
      <point x="78" y="119"/>
      <point x="93" y="103"/>
      <point x="110" y="103" type="curve" smooth="yes"/>
      <point x="129" y="103"/>
      <point x="141" y="117"/>
    </contour>
  </outline>
</glyph>
<glyph name="uni092E" format="1">
  <advance width="349"/>
  <unicode hex="092E"/>
  <outline>
    <contour>
      <point x="277" y="0" type="move" name="Anchor-7"/>
    </contour>
    <contour>
      <point x="0" y="0" type="move" name="Anchor-6"/>
    </contour>
    <contour>
      <point x="50" y="34" type="move" name="Anchor-5"/>
    </contour>
    <contour>
      <point x="277" y="399" type="move" name="Anchor-3"/>
    </contour>
    <contour>
      <point x="183" y="399" type="move" name="Anchor-2"/>
    </contour>
    <contour>
      <point x="356" y="399" type="line"/>
      <point x="356" y="357" type="line"/>
      <point x="301" y="357" type="line"/>
      <point x="301" y="0" type="line"/>
      <point x="253" y="0" type="line"/>
      <point x="253" y="171" type="line"/>
      <point x="160" y="171" type="line"/>
      <point x="160" y="138" type="line" smooth="yes"/>
      <point x="160" y="92"/>
      <point x="129" y="61"/>
      <point x="82" y="61" type="curve" smooth="yes"/>
      <point x="38" y="61"/>
      <point x="3" y="95"/>
      <point x="3" y="138" type="curve" smooth="yes"/>
      <point x="3" y="183"/>
      <point x="34" y="214"/>
      <point x="82" y="214" type="curve" smooth="yes"/>
      <point x="113" y="214" type="line"/>
      <point x="113" y="357" type="line"/>
      <point x="-7" y="357" type="line"/>
      <point x="-7" y="399" type="line"/>
    </contour>
    <contour>
      <point x="160" y="214" type="line"/>
      <point x="253" y="214" type="line"/>
      <point x="253" y="357" type="line"/>
      <point x="160" y="357" type="line"/>
    </contour>
    <contour>
      <point x="113" y="138" type="curve" smooth="yes"/>
      <point x="113" y="171" type="line"/>
      <point x="82" y="171" type="line" smooth="yes"/>
      <point x="63" y="171"/>
      <point x="50" y="158"/>
      <point x="50" y="138" type="curve" smooth="yes"/>
      <point x="50" y="119"/>
      <point x="64" y="103"/>
      <point x="82" y="103" type="curve" smooth="yes"/>
      <point x="100" y="103"/>
      <point x="113" y="117"/>
    </contour>
  </outline>
</glyph>
<glyph name="uni0930" format="1">
  <advance width="211"/>
  <unicode hex="0930"/>
  <outline>
    <contour>
      <point x="94" y="0" type="move" name="Anchor-7"/>
    </contour>
    <contour>
      <point x="0" y="0" type="move" name="Anchor-6"/>
    </contour>
    <contour>
      <point x="17" y="95" type="move" name="Anchor-5"/>
    </contour>
    <contour>
      <point x="140" y="399" type="move" name="Anchor-3"/>
    </contour>
    <contour>
      <point x="0" y="0" type="move" name="Anchor-2"/>
    </contour>
    <contour>
      <point x="217" y="399" type="line"/>
      <point x="217" y="357" type="line"/>
      <point x="164" y="357" type="line"/>
      <point x="164" y="267" type="line" smooth="yes"/>
      <point x="164" y="200"/>
      <point x="133" y="164"/>
      <point x="76" y="162" type="curve"/>
      <point x="156" y="0" type="line"/>
      <point x="105" y="0" type="line"/>
      <point x="26" y="170" type="line"/>
      <point x="26" y="200" type="line"/>
      <point x="58" y="200" type="line" smooth="yes"/>
      <point x="96" y="200"/>
      <point x="117" y="222"/>
      <point x="117" y="262" type="curve" smooth="yes"/>
      <point x="117" y="357" type="line"/>
      <point x="-7" y="357" type="line"/>
      <point x="-7" y="399" type="line"/>
    </contour>
  </outline>
</glyph>
<glyph name="uni0935" format="1">
  <advance width="275"/>
  <unicode hex="0935"/>
  <outline>
    <contour>
      <point x="202" y="0" type="move" name="Anchor-7"/>
    </contour>
    <contour>
      <point x="0" y="0" type="move" name="Anchor-6"/>
    </contour>
    <contour>
      <point x="29" y="92" type="move" name="Anchor-5"/>
    </contour>
    <contour>
      <point x="202" y="399" type="move" name="Anchor-3"/>
    </contour>
    <contour>
      <point x="121" y="399" type="move" name="Anchor-2"/>
    </contour>
    <contour>
      <point x="281" y="357" type="line"/>
      <point x="226" y="357" type="line"/>
      <point x="226" y="283" type="line"/>
      <point x="227" y="283" type="line"/>
      <point x="227" y="89" type="line"/>
      <point x="226" y="89" type="line"/>
      <point x="226" y="0" type="line"/>
      <point x="178" y="0" type="line"/>
      <point x="178" y="92" type="line"/>
      <point x="177" y="92" type="line"/>
      <point x="163" y="79"/>
      <point x="141" y="68"/>
      <point x="109" y="68" type="curve" smooth="yes"/>
      <point x="53" y="68"/>
      <point x="14" y="103"/>
      <point x="14" y="186" type="curve" smooth="yes"/>
      <point x="14" y="269"/>
      <point x="53" y="304"/>
      <point x="109" y="304" type="curve" smooth="yes"/>
      <point x="142" y="304"/>
      <point x="163" y="293"/>
      <point x="177" y="280" type="curve"/>
      <point x="178" y="280" type="line"/>
      <point x="178" y="357" type="line"/>
      <point x="-7" y="357" type="line"/>
      <point x="-7" y="399" type="line"/>
      <point x="281" y="399" type="line"/>
    </contour>
    <contour>
      <point x="121" y="111" type="curve" smooth="yes"/>
      <point x="155" y="111"/>
      <point x="174" y="128"/>
      <point x="178" y="162" type="curve"/>
      <point x="178" y="210" type="line"/>
      <point x="174" y="245"/>
      <point x="155" y="262"/>
      <point x="121" y="262" type="curve" smooth="yes"/>
      <point x="83" y="262"/>
      <point x="64" y="243"/>
      <point x="64" y="193" type="curve" smooth="yes"/>
      <point x="64" y="179" type="line" smooth="yes"/>
      <point x="64" y="130"/>
      <point x="83" y="111"/>
    </contour>
  </outline>
</glyph>
<glyph name="uni0937" format="1">
  <advance width="279"/>
  <unicode hex="0937"/>
  <outline>
    <contour>
      <point x="207" y="0" type="move" name="Anchor-7"/>
    </contour>
    <contour>
      <point x="0" y="0" type="move" name="Anchor-6"/>
    </contour>
    <contour>
      <point x="38" y="92" type="move" name="Anchor-5"/>
    </contour>
    <contour>
      <point x="207" y="399" type="move" name="Anchor-3"/>
    </contour>
    <contour>
      <point x="133" y="399" type="move" name="Anchor-2"/>
    </contour>
    <contour>
      <point x="286" y="399" type="line"/>
      <point x="286" y="357" type="line"/>
      <point x="231" y="357" type="line"/>
      <point x="231" y="0" type="line"/>
      <point x="183" y="0" type="line"/>
      <point x="183" y="113" type="line"/>
      <point x="168" y="99"/>
      <point x="147" y="92"/>
      <point x="122" y="92" type="curve" smooth="yes"/>
      <point x="68" y="92"/>
      <point x="36" y="125"/>
      <point x="36" y="187" type="curve" smooth="yes"/>
      <point x="36" y="357" type="line"/>
      <point x="-6" y="357" type="line"/>
      <point x="-6" y="399" type="line"/>
    </contour>
    <contour>
      <point x="84" y="357" type="line"/>
      <point x="84" y="353" type="line"/>
      <point x="183" y="173" type="line"/>
      <point x="183" y="357" type="line"/>
    </contour>
    <contour>
      <point x="84" y="190" type="line" smooth="yes"/>
      <point x="84" y="156"/>
      <point x="102" y="135"/>
      <point x="134" y="135" type="curve" smooth="yes"/>
      <point x="147" y="135"/>
      <point x="158" y="138"/>
      <point x="166" y="145" type="curve"/>
      <point x="84" y="295" type="line"/>
    </contour>
  </outline>
</glyph>
<glyph name="uni0938" format="1">
  <advance width="339"/>
  <unicode hex="0938"/>
  <outline>
    <contour>
      <point x="273" y="0" type="move" name="Anchor-7"/>
    </contour>
    <contour>
      <point x="0" y="0" type="move" name="Anchor-6"/>
    </contour>
    <contour>
      <point x="17" y="95" type="move" name="Anchor-5"/>
    </contour>
    <contour>
      <point x="273" y="399" type="move" name="Anchor-3"/>
    </contour>
    <contour>
      <point x="160" y="399" type="move" name="Anchor-2"/>
    </contour>
    <contour>
      <point x="353" y="399" type="line"/>
      <point x="353" y="357" type="line"/>
      <point x="298" y="357" type="line"/>
      <point x="298" y="0" type="line"/>
      <point x="250" y="0" type="line"/>
      <point x="250" y="162" type="line"/>
      <point x="76" y="162" type="line"/>
      <point x="156" y="0" type="line"/>
      <point x="105" y="0" type="line"/>
      <point x="26" y="170" type="line"/>
      <point x="26" y="200" type="line"/>
      <point x="58" y="200" type="line" smooth="yes"/>
      <point x="63" y="200"/>
      <point x="68" y="200"/>
      <point x="72" y="201" type="curve"/>
      <point x="72" y="202" type="line"/>
      <point x="76" y="202" type="line"/>
      <point x="103" y="208"/>
      <point x="117" y="229"/>
      <point x="117" y="262" type="curve" smooth="yes"/>
      <point x="117" y="357" type="line"/>
      <point x="-7" y="357" type="line"/>
      <point x="-7" y="399" type="line"/>
    </contour>
    <contour>
      <point x="150" y="202" type="curve"/>
      <point x="250" y="202" type="line"/>
      <point x="250" y="357" type="line"/>
      <point x="164" y="357" type="line"/>
      <point x="164" y="267" type="line" smooth="yes"/>
      <point x="164" y="240"/>
      <point x="159" y="219"/>
    </contour>
  </outline>
</glyph>
<glyph name="uni0939" format="1">
  <advance width="281"/>
  <unicode hex="0939"/>
  <outline>
    <contour>
      <point x="163" y="-20" type="move" name="Anchor-7"/>
    </contour>
    <contour>
      <point x="0" y="0" type="move" name="Anchor-6"/>
    </contour>
    <contour>
      <point x="140" y="-34" type="move" name="Anchor-5"/>
    </contour>
    <contour>
      <point x="201" y="399" type="move" name="Anchor-3"/>
    </contour>
    <contour>
      <point x="141" y="399" type="move" name="Anchor-2"/>
    </contour>
    <contour>
      <point x="130" y="257" type="line" smooth="yes"/>
      <point x="109" y="257"/>
      <point x="91" y="246"/>
      <point x="91" y="226" type="curve" smooth="yes"/>
      <point x="91" y="191"/>
      <point x="122" y="189"/>
      <point x="140" y="188" type="curve" smooth="yes"/>
      <point x="151" y="188" type="line" smooth="yes"/>
      <point x="225" y="188"/>
      <point x="262" y="156"/>
      <point x="262" y="94" type="curve" smooth="yes"/>
      <point x="262" y="83"/>
      <point x="262" y="76"/>
      <point x="261" y="72" type="curve"/>
      <point x="212" y="72" type="line"/>
      <point x="212" y="94" type="line" smooth="yes"/>
      <point x="212" y="129"/>
      <point x="191" y="150"/>
      <point x="155" y="150" type="curve" smooth="yes"/>
      <point x="117" y="150"/>
      <point x="90" y="130"/>
      <point x="90" y="83" type="curve" smooth="yes"/>
      <point x="90" y="32"/>
      <point x="117" y="9"/>
      <point x="175" y="9" type="curve" smooth="yes"/>
      <point x="215" y="9" type="line"/>
      <point x="215" y="-28" type="line"/>
      <point x="204" y="-32"/>
      <point x="188" y="-34"/>
      <point x="174" y="-34" type="curve" smooth="yes"/>
      <point x="85" y="-34"/>
      <point x="40" y="5"/>
      <point x="40" y="86" type="curve" smooth="yes"/>
      <point x="40" y="121"/>
      <point x="54" y="148"/>
      <point x="77" y="165" type="curve"/>
      <point x="50" y="178"/>
      <point x="41" y="200"/>
      <point x="41" y="227" type="curve" smooth="yes"/>
      <point x="41" y="275"/>
      <point x="79" y="299"/>
      <point x="130" y="299" type="curve" smooth="yes"/>
      <point x="177" y="299" type="line"/>
      <point x="177" y="357" type="line"/>
      <point x="-7" y="357" type="line"/>
      <point x="-7" y="399" type="line"/>
      <point x="288" y="399" type="line"/>
      <point x="288" y="357" type="line"/>
      <point x="225" y="357" type="line"/>
      <point x="225" y="257" type="line"/>
    </contour>
  </outline>
</glyph>
<glyph name="uni093D" format="1">
  <advance width="256"/>
  <unicode hex="093D"/>
  <outline>
    <contour>
      <point x="123" y="357" type="line" smooth="yes"/>
      <point x="99" y="357"/>
      <point x="78" y="341"/>
      <point x="78" y="312" type="curve" smooth="yes"/>
      <point x="78" y="272"/>
      <point x="117" y="243"/>
      <point x="148" y="220" type="curve" smooth="yes"/>
      <point x="196" y="184"/>
      <point x="233" y="154"/>
      <point x="233" y="93" type="curve" smooth="yes"/>
      <point x="233" y="26"/>
      <point x="189" y="-7"/>
      <point x="127" y="-7" type="curve" smooth="yes"/>
      <point x="55" y="-7"/>
      <point x="23" y="37"/>
      <point x="23" y="86" type="curve" smooth="yes"/>
      <point x="23" y="92"/>
      <point x="23" y="95"/>
      <point x="24" y="102" type="curve"/>
      <point x="74" y="102" type="line"/>
      <point x="74" y="90" type="line" smooth="yes"/>
      <point x="74" y="51"/>
      <point x="101" y="35"/>
      <point x="129" y="35" type="curve" smooth="yes"/>
      <point x="159" y="35"/>
      <point x="183" y="55"/>
      <point x="183" y="94" type="curve" smooth="yes"/>
      <point x="183" y="133"/>
      <point x="158" y="157"/>
      <point x="111" y="193" type="curve" smooth="yes"/>
      <point x="67" y="227"/>
      <point x="28" y="258"/>
      <point x="28" y="314" type="curve" smooth="yes"/>
      <point x="28" y="371"/>
      <point x="69" y="399"/>
      <point x="128" y="399" type="curve" smooth="yes"/>
      <point x="246" y="399" type="line"/>
      <point x="246" y="357" type="line"/>
    </contour>
  </outline>
</glyph>
<glyph name="uni093E" format="1">
  <advance width="144"/>
  <unicode hex="093E"/>
  <outline>
    <contour>
      <point x="72" y="0" type="move" name="Anchor-7"/>
    </contour>
    <contour>
      <point x="0" y="0" type="move" name="Anchor-6"/>
    </contour>
    <contour>
      <point x="0" y="0" type="move" name="Anchor-5"/>
    </contour>
    <contour>
      <point x="72" y="399" type="move" name="Anchor-3"/>
    </contour>
    <contour>
      <point x="72" y="399" type="move" name="Anchor-2"/>
    </contour>
    <contour>
      <point x="151" y="399" type="line"/>
      <point x="151" y="357" type="line"/>
      <point x="96" y="357" type="line"/>
      <point x="96" y="0" type="line"/>
      <point x="48" y="0" type="line"/>
      <point x="48" y="357" type="line"/>
      <point x="-7" y="357" type="line"/>
      <point x="-7" y="399" type="line"/>
    </contour>
  </outline>
</glyph>
<glyph name="uni0941" format="1">
  <advance width="0"/>
  <unicode hex="0941"/>
  <outline>
    <contour>
      <point x="-73" y="0" type="move" name="_Anchor-8"/>
    </contour>
    <contour>
      <point x="-73" y="0" type="move" name="_Anchor-7"/>
    </contour>
    <contour>
      <point x="-73" y="0" type="move" name="_Anchor-1"/>
    </contour>
    <contour>
      <point x="-213" y="-20" type="line"/>
      <point x="-163" y="-71"/>
      <point x="-124" y="-101"/>
      <point x="-83" y="-101" type="curve" smooth="yes"/>
      <point x="-55" y="-101"/>
      <point x="-40" y="-83"/>
      <point x="-40" y="-63" type="curve" smooth="yes"/>
      <point x="-40" y="-42"/>
      <point x="-58" y="-25"/>
      <point x="-82" y="-25" type="curve" smooth="yes"/>
      <point x="-100" y="-25"/>
      <point x="-115" y="-28"/>
      <point x="-129" y="-33" type="curve"/>
      <point x="-129" y="7" type="line"/>
      <point x="-115" y="13"/>
      <point x="-98" y="18"/>
      <point x="-79" y="18" type="curve" smooth="yes"/>
      <point x="-35" y="18"/>
      <point x="7" y="-13"/>
      <point x="7" y="-63" type="curve" smooth="yes"/>
      <point x="7" y="-115"/>
      <point x="-32" y="-144"/>
      <point x="-80" y="-144" type="curve" smooth="yes"/>
      <point x="-128" y="-144"/>
      <point x="-171" y="-117"/>
      <point x="-213" y="-78" type="curve"/>
    </contour>
  </outline>
</glyph>
<glyph name="uni0942" format="1">
  <advance width="0"/>
  <unicode hex="0942"/>
  <outline>
    <contour>
      <point x="-73" y="0" type="move" name="_Anchor-8"/>
    </contour>
    <contour>
      <point x="-73" y="0" type="move" name="_Anchor-7"/>
    </contour>
    <contour>
      <point x="-73" y="0" type="move" name="_Anchor-1"/>
    </contour>
    <contour>
      <point x="-78" y="18" type="curve" smooth="yes"/>
      <point x="-17" y="18"/>
      <point x="48" y="-17"/>
      <point x="57" y="-144" type="curve"/>
      <point x="9" y="-144" type="line"/>
      <point x="9" y="-69"/>
      <point x="-32" y="-26"/>
      <point x="-78" y="-26" type="curve" smooth="yes"/>
      <point x="-107" y="-26"/>
      <point x="-128" y="-42"/>
      <point x="-128" y="-65" type="curve" smooth="yes"/>
      <point x="-128" y="-84"/>
      <point x="-112" y="-101"/>
      <point x="-85" y="-101" type="curve" smooth="yes"/>
      <point x="-74" y="-101"/>
      <point x="-61" y="-98"/>
      <point x="-51" y="-94" type="curve"/>
      <point x="-51" y="-136" type="line"/>
      <point x="-62" y="-140"/>
      <point x="-74" y="-144"/>
      <point x="-90" y="-144" type="curve" smooth="yes"/>
      <point x="-132" y="-144"/>
      <point x="-176" y="-114"/>
      <point x="-176" y="-63" type="curve" smooth="yes"/>
      <point x="-176" y="-12"/>
      <point x="-135" y="18"/>
    </contour>
  </outline>
</glyph>
